STARTFONT 2.1
COMMENT
COMMENT Converted from OpenType font "texgyreadventor-regular.otf" by "otf2bdf 3.0".
COMMENT
FONT -FreeType-TeX Gyre Adventor-Medium-R-Normal--41-410-72-72-P-226-ISO10646-1
SIZE 41 72 72
FONTBOUNDINGBOX 97 70 -33 -21
STARTPROPERTIES 19
FOUNDRY "FreeType"
FAMILY_NAME "TeX Gyre Adventor"
WEIGHT_NAME "Medium"
SLANT "R"
SETWIDTH_NAME "Normal"
ADD_STYLE_NAME ""
PIXEL_SIZE 41
POINT_SIZE 410
RESOLUTION_X 72
RESOLUTION_Y 72
SPACING "P"
AVERAGE_WIDTH 226
CHARSET_REGISTRY "ISO10646"
CHARSET_ENCODING "1"
FONT_ASCENT 30
FONT_DESCENT 7
COPYRIGHT "Copyright 2007-2018 for TeX Gyre extensions by B. Jackowski, J.M. Nowacki, et al. (on behalf of TeX USERS GROUPS). Vietnamese characters were added by Han The Thanh."
_OTF_FONTFILE "texgyreadventor-regular.otf"
_OTF_PSNAME "TeXGyreAdventor-Regular"
ENDPROPERTIES
CHARS 1199
STARTCHAR 0020
ENCODING 32
SWIDTH 268 0
DWIDTH 23 0
BBX 0 0 0 0
BITMAP
ENDCHAR
STARTCHAR 0021
ENCODING 33
SWIDTH 292 0
DWIDTH 12 0
BBX 3 30 5 0
BITMAP
E0
E0
E0
E0
E0
E0
E0
E0
E0
E0
E0
E0
E0
E0
E0
E0
E0
E0
E0
E0
E0
E0
00
00
00
E0
E0
E0
E0
E0
ENDCHAR
STARTCHAR 0022
ENCODING 34
SWIDTH 317 0
DWIDTH 13 0
BBX 7 9 3 21
BITMAP
C6
C6
C6
C6
C6
C6
C6
C6
C6
ENDCHAR
STARTCHAR 0023
ENCODING 35
SWIDTH 560 0
DWIDTH 23 0
BBX 23 30 0 0
BITMAP
00E070
00C070
00C070
01C060
01C060
01C0E0
01C0E0
0180E0
0380E0
7FFFFE
7FFFFE
7FFFFE
0301C0
0301C0
070180
070180
070380
070380
FFFFFC
FFFFFC
FFFFFC
0E0700
0E0700
0C0700
1C0700
1C0600
1C0600
1C0E00
180E00
180E00
ENDCHAR
STARTCHAR 0024
ENCODING 36
SWIDTH 560 0
DWIDTH 23 0
BBX 17 35 3 -2
BITMAP
01C000
01C000
01C000
01C000
0FF800
1FFC00
3C1E00
380F00
780700
700700
700300
700000
700000
380000
3C0000
1F0000
0FE000
07F800
00FC00
001E00
000F00
000700
000780
000380
E00380
E00780
E00700
700700
780E00
3FFE00
1FFC00
07F000
01C000
01C000
01C000
ENDCHAR
STARTCHAR 0025
ENCODING 37
SWIDTH 780 0
DWIDTH 32 0
BBX 30 32 1 -1
BITMAP
0F800000
3FE00E00
7FF01C00
70781C00
E0383C00
E01C3800
C01C3800
C01C7000
C01C7000
E01CE000
E038E000
7879C000
3FF1C000
1FE38000
07038000
00070000
00070000
00070700
000E1FE0
000E7FF0
001C7878
001CE038
0038E01C
0038C01C
0071C01C
0070C01C
00E0E01C
00E0E038
00E07078
01C07FF0
01C03FE0
00000F80
ENDCHAR
STARTCHAR 0026
ENCODING 38
SWIDTH 756 0
DWIDTH 31 0
BBX 28 32 2 -1
BITMAP
00FC0000
01FF0000
03FF8000
0783C000
0F01C000
0E01C000
0E00C000
0E01C000
0E01C000
0F03C000
0787C000
03CF81C0
01FE0380
01FC0380
07F80700
0FFC0700
1F3E0E00
3C1F0E00
780F9C00
7007DC00
7003F800
F001F800
E000F800
E000FC00
7000FE00
7001FF00
7001CF80
3803C7C0
3E0783E0
1FFF01F0
07FE00F0
01F80020
ENDCHAR
STARTCHAR 0027
ENCODING 39
SWIDTH 195 0
DWIDTH 8 0
BBX 2 9 3 21
BITMAP
C0
C0
C0
C0
C0
C0
C0
C0
C0
ENDCHAR
STARTCHAR 0028
ENCODING 40
SWIDTH 365 0
DWIDTH 15 0
BBX 10 38 3 -8
BITMAP
00C0
01C0
03C0
0780
0700
0E00
1E00
1C00
3800
3800
3800
7000
7000
7000
7000
F000
F000
F000
F000
F000
F000
F000
7000
7000
7000
7000
7800
3800
3800
3C00
1C00
1E00
0F00
0700
0380
03C0
00C0
0040
ENDCHAR
STARTCHAR 0029
ENCODING 41
SWIDTH 365 0
DWIDTH 15 0
BBX 10 38 2 -8
BITMAP
C000
E000
F000
7800
3C00
1C00
0E00
0E00
0700
0700
0780
0380
0380
0380
03C0
03C0
01C0
01C0
01C0
01C0
01C0
03C0
03C0
0380
0380
0380
0380
0700
0700
0F00
0E00
1E00
1C00
3800
7800
F000
E000
8000
ENDCHAR
STARTCHAR 002A
ENCODING 42
SWIDTH 439 0
DWIDTH 18 0
BBX 15 16 1 14
BITMAP
0380
0380
0380
638C
7B9E
7FFE
1FF8
0FE0
0FF0
3FFC
FFBE
739E
2384
0380
0380
0380
ENDCHAR
STARTCHAR 002B
ENCODING 43
SWIDTH 731 0
DWIDTH 30 0
BBX 23 23 3 -1
BITMAP
003800
003800
003800
003800
003800
003800
003800
003800
003800
003800
FFFFFE
FFFFFE
FFFFFE
003800
003800
003800
003800
003800
003800
003800
003800
003800
003800
ENDCHAR
STARTCHAR 002C
ENCODING 44
SWIDTH 268 0
DWIDTH 11 0
BBX 6 8 4 -3
BITMAP
1C
1C
38
38
70
70
E0
E0
ENDCHAR
STARTCHAR 002D
ENCODING 45
SWIDTH 341 0
DWIDTH 14 0
BBX 11 3 1 9
BITMAP
FFE0
FFE0
FFE0
ENDCHAR
STARTCHAR 002E
ENCODING 46
SWIDTH 268 0
DWIDTH 10 0
BBX 3 5 4 0
BITMAP
E0
E0
E0
E0
E0
ENDCHAR
STARTCHAR 002F
ENCODING 47
SWIDTH 512 0
DWIDTH 21 0
BBX 15 33 3 -6
BITMAP
001E
001C
001C
003C
0038
0038
0078
0070
0070
00F0
00E0
00E0
01E0
01C0
01C0
03C0
0380
0380
0780
0700
0700
0E00
0E00
0E00
1C00
1C00
1C00
3800
3800
3800
7000
7000
F000
ENDCHAR
STARTCHAR 0030
ENCODING 48
SWIDTH 560 0
DWIDTH 23 0
BBX 21 32 1 -1
BITMAP
01FC00
07FF00
1FFF80
3E03C0
3801E0
7800F0
700070
700070
F00070
E00070
E00038
E00038
E00038
E00038
E00038
E00038
E00038
E00038
E00038
E00038
E00038
E00078
E00070
F00070
700070
700070
7800F0
3C00E0
3E03C0
1FFFC0
07FF00
01FC00
ENDCHAR
STARTCHAR 0031
ENCODING 49
SWIDTH 560 0
DWIDTH 23 0
BBX 9 30 6 0
BITMAP
FF80
FF80
FF80
0380
0380
0380
0380
0380
0380
0380
0380
0380
0380
0380
0380
0380
0380
0380
0380
0380
0380
0380
0380
0380
0380
0380
0380
0380
0380
0380
ENDCHAR
STARTCHAR 0032
ENCODING 50
SWIDTH 560 0
DWIDTH 23 0
BBX 20 31 1 0
BITMAP
01FC00
07FF00
0FFF80
1E07C0
3C01E0
3800E0
7000E0
700070
700070
700070
000070
0000E0
0000E0
0001E0
0003C0
000380
000780
001F00
003E00
007C00
00F000
01E000
03C000
078000
0F0000
1E0000
3C0000
780000
FFFFF0
FFFFF0
FFFFF0
ENDCHAR
STARTCHAR 0033
ENCODING 51
SWIDTH 560 0
DWIDTH 23 0
BBX 20 32 1 -1
BITMAP
01F800
07FE00
0FFF00
0E0780
1C0380
1C0380
3C01C0
3801C0
0001C0
000380
000380
000780
00FF00
00FE00
00FF00
000F80
0003C0
0001E0
0000E0
0000E0
0000F0
000070
E00070
F00070
7000E0
7000E0
7801E0
3803C0
3E0780
1FFF80
07FE00
01F800
ENDCHAR
STARTCHAR 0034
ENCODING 52
SWIDTH 560 0
DWIDTH 23 0
BBX 22 30 0 0
BITMAP
0001E0
0003E0
0003E0
0007E0
000FE0
000EE0
001CE0
003CE0
0038E0
0070E0
00F0E0
00E0E0
01C0E0
03C0E0
0380E0
0700E0
0F00E0
0E00E0
1C00E0
3C00E0
7800E0
7000E0
FFFFFC
FFFFFC
FFFFFC
0000E0
0000E0
0000E0
0000E0
0000E0
ENDCHAR
STARTCHAR 0035
ENCODING 53
SWIDTH 560 0
DWIDTH 23 0
BBX 21 31 1 -1
BITMAP
0FFFC0
0FFFC0
0FFFC0
0E0000
0E0000
1C0000
1C0000
1C0000
1C0000
1C0000
1CFC00
3FFF00
3FFF80
3E07C0
3C01E0
3800F0
000070
000070
000078
000038
000038
E00038
E00070
700070
700070
7800E0
3C01E0
1E03C0
0FFF80
07FF00
01FC00
ENDCHAR
STARTCHAR 0036
ENCODING 54
SWIDTH 560 0
DWIDTH 23 0
BBX 21 31 1 -1
BITMAP
001C00
003C00
007800
007000
00F000
00E000
01C000
03C000
038000
070000
0FFC00
0FFF00
1FFF80
3E03C0
3C01E0
7800F0
700070
F00070
E00078
E00038
E00038
E00038
E00078
F00070
700070
7800F0
3C01E0
1E03C0
0FFF80
07FF00
01FC00
ENDCHAR
STARTCHAR 0037
ENCODING 55
SWIDTH 560 0
DWIDTH 23 0
BBX 17 30 3 0
BITMAP
FFFF80
FFFF80
FFFF80
000380
000700
000700
000E00
000E00
001C00
001C00
003C00
003800
003800
007000
007000
00E000
00E000
01C000
01C000
038000
038000
078000
070000
0F0000
0E0000
0E0000
1C0000
1C0000
380000
380000
ENDCHAR
STARTCHAR 0038
ENCODING 56
SWIDTH 560 0
DWIDTH 23 0
BBX 19 32 2 -1
BITMAP
01F000
07FC00
1FFE00
1E0F00
380780
380380
780380
700380
700380
780380
380380
3C0780
1E0F00
0FFE00
0FFC00
1FFF00
3C0F80
7803C0
7001C0
E001E0
E000E0
E000E0
E000E0
E000E0
E000E0
E001E0
7001C0
7803C0
3C0780
1FFF00
0FFE00
03F800
ENDCHAR
STARTCHAR 0039
ENCODING 57
SWIDTH 560 0
DWIDTH 23 0
BBX 21 31 1 0
BITMAP
01FC00
07FF00
0FFF80
1E07C0
3C01E0
7800F0
700070
F00070
E00078
E00038
E00038
E00038
E00078
F00070
700070
7800F0
3C01E0
3E03C0
1FFFC0
07FF80
01F700
000F00
000E00
001C00
003C00
003800
007800
00F000
00E000
01E000
03C000
ENDCHAR
STARTCHAR 003A
ENCODING 58
SWIDTH 268 0
DWIDTH 11 0
BBX 3 21 4 0
BITMAP
E0
E0
E0
E0
E0
00
00
00
00
00
00
00
00
00
00
00
E0
E0
E0
E0
E0
ENDCHAR
STARTCHAR 003B
ENCODING 59
SWIDTH 268 0
DWIDTH 11 0
BBX 6 24 2 -3
BITMAP
1C
1C
1C
1C
1C
00
00
00
00
00
00
00
00
00
00
00
1C
38
38
38
70
70
E0
E0
ENDCHAR
STARTCHAR 003C
ENCODING 60
SWIDTH 731 0
DWIDTH 30 0
BBX 24 29 3 -4
BITMAP
000001
000007
00000F
00003F
0000FC
0003F0
000FE0
001F80
007E00
01F800
07E000
1FC000
3F0000
FC0000
F00000
F80000
7E0000
3F8000
0FC000
03F000
00FC00
003F00
001FC0
0007E0
0001F8
00007E
00001F
00000F
000003
ENDCHAR
STARTCHAR 003D
ENCODING 61
SWIDTH 731 0
DWIDTH 30 0
BBX 23 11 3 5
BITMAP
FFFFFE
FFFFFE
FFFFFE
000000
000000
000000
000000
000000
FFFFFE
FFFFFE
FFFFFE
ENDCHAR
STARTCHAR 003E
ENCODING 62
SWIDTH 731 0
DWIDTH 30 0
BBX 24 29 3 -4
BITMAP
800000
E00000
F00000
FC0000
3F0000
0FC000
07F000
01F800
007E00
001F80
000FE0
0003F8
0000FC
00003F
00000F
00001F
00007E
0001F8
0007F0
000FC0
003F00
00FC00
03F000
0FE000
1F8000
7E0000
F80000
F00000
C00000
ENDCHAR
STARTCHAR 003F
ENCODING 63
SWIDTH 585 0
DWIDTH 24 0
BBX 19 31 3 0
BITMAP
03F800
0FFE00
3FFF00
3C0F80
700380
7001C0
E001C0
E001C0
E001E0
E001E0
0001C0
0001C0
0003C0
000780
000F00
001E00
003C00
003800
007000
00F000
00E000
00E000
00E000
000000
000000
000000
00E000
00E000
00E000
00E000
00E000
ENDCHAR
STARTCHAR 0040
ENCODING 64
SWIDTH 878 0
DWIDTH 36 0
BBX 30 32 3 -1
BITMAP
000FE000
007FFC00
01F01F00
03C00780
070001C0
0E0000E0
1C000070
3807E030
301FF738
703C3E18
60781E18
60701E1C
E0E01C0C
C1C01C0C
C1C01C0C
C1C0181C
C3803818
C3803818
C3807018
C3807030
E380F070
63C0E060
71E3E0C0
31FF73C0
38FE7F00
1C003E00
1E000040
0F0001E0
078003C0
01F01F00
007FFC00
001FE000
ENDCHAR
STARTCHAR 0041
ENCODING 65
SWIDTH 731 0
DWIDTH 30 0
BBX 29 30 1 0
BITMAP
000F0000
000F8000
001F8000
001F8000
003DC000
0039C000
0039E000
0070E000
0070F000
00F07000
00E07000
01E03800
01C03800
01C03C00
03801C00
03801E00
07800E00
07FFFE00
0FFFFF00
0FFFFF00
0E000780
1C000380
1C0003C0
3C0001C0
380001C0
780000E0
700000E0
700000F0
E0000070
E0000078
ENDCHAR
STARTCHAR 0042
ENCODING 66
SWIDTH 585 0
DWIDTH 24 0
BBX 19 30 3 0
BITMAP
FFF000
FFFE00
FFFF00
E00F80
E00380
E00380
E003C0
E003C0
E003C0
E00380
E00380
E00780
E01F00
FFFE00
FFFE00
FFFF80
E007C0
E001C0
E000E0
E000E0
E000E0
E000E0
E000E0
E000E0
E000E0
E001E0
E007C0
FFFF80
FFFF00
FFF800
ENDCHAR
STARTCHAR 0043
ENCODING 67
SWIDTH 804 0
DWIDTH 33 0
BBX 29 32 2 -1
BITMAP
000FF000
007FFC00
01FFFF00
03F00FC0
078003E0
0F0001E0
1E0000F0
3C000078
38000038
78000000
70000000
F0000000
E0000000
E0000000
E0000000
E0000000
E0000000
E0000000
E0000000
E0000000
F0000000
70000000
78000000
78000000
3C000078
1E000070
1F0001F0
0F8003E0
07F00FC0
01FFFF00
007FFE00
001FF000
ENDCHAR
STARTCHAR 0044
ENCODING 68
SWIDTH 756 0
DWIDTH 31 0
BBX 26 30 3 0
BITMAP
FFFC0000
FFFF8000
FFFFE000
E003F800
E0007C00
E0003E00
E0001E00
E0000F00
E0000700
E0000780
E0000380
E0000380
E00003C0
E00001C0
E00001C0
E00001C0
E00001C0
E00003C0
E0000380
E0000380
E0000780
E0000700
E0000F00
E0001E00
E0003E00
E0007C00
E003F800
FFFFE000
FFFF8000
FFF80000
ENDCHAR
STARTCHAR 0045
ENCODING 69
SWIDTH 536 0
DWIDTH 22 0
BBX 17 30 3 0
BITMAP
FFFF80
FFFF80
FFFF80
E00000
E00000
E00000
E00000
E00000
E00000
E00000
E00000
E00000
E00000
FFFF00
FFFF00
FFFF00
E00000
E00000
E00000
E00000
E00000
E00000
E00000
E00000
E00000
E00000
E00000
FFFF80
FFFF80
FFFF80
ENDCHAR
STARTCHAR 0046
ENCODING 70
SWIDTH 487 0
DWIDTH 20 0
BBX 15 30 3 0
BITMAP
FFFE
FFFE
FFFE
E000
E000
E000
E000
E000
E000
E000
E000
E000
E000
FFFE
FFFE
FFFE
E000
E000
E000
E000
E000
E000
E000
E000
E000
E000
E000
E000
E000
E000
ENDCHAR
STARTCHAR 0047
ENCODING 71
SWIDTH 878 0
DWIDTH 36 0
BBX 32 32 2 -1
BITMAP
000FF000
007FFE00
01FFFF80
03F00FC0
078001F0
0F0000F0
1E000078
3C00003C
3800001C
78000000
70000000
F0000000
E0000000
E0000000
E0000000
E0000000
E0000000
E01FFFFF
E01FFFFF
E01FFFFF
F000000F
7000000E
7800000E
3800001C
3C00003C
1E000078
0F0000F0
07C001E0
03F00FC0
01FFFF80
007FFE00
000FF000
ENDCHAR
STARTCHAR 0048
ENCODING 72
SWIDTH 682 0
DWIDTH 28 0
BBX 22 30 3 0
BITMAP
E0001C
E0001C
E0001C
E0001C
E0001C
E0001C
E0001C
E0001C
E0001C
E0001C
E0001C
E0001C
E0001C
FFFFFC
FFFFFC
FFFFFC
E0001C
E0001C
E0001C
E0001C
E0001C
E0001C
E0001C
E0001C
E0001C
E0001C
E0001C
E0001C
E0001C
E0001C
ENDCHAR
STARTCHAR 0049
ENCODING 73
SWIDTH 219 0
DWIDTH 9 0
BBX 3 30 3 0
BITMAP
E0
E0
E0
E0
E0
E0
E0
E0
E0
E0
E0
E0
E0
E0
E0
E0
E0
E0
E0
E0
E0
E0
E0
E0
E0
E0
E0
E0
E0
E0
ENDCHAR
STARTCHAR 004A
ENCODING 74
SWIDTH 487 0
DWIDTH 20 0
BBX 17 31 0 -1
BITMAP
000380
000380
000380
000380
000380
000380
000380
000380
000380
000380
000380
000380
000380
000380
000380
000380
000380
000380
000380
000380
000380
000380
000380
F00780
700700
700700
780F00
3C1E00
3FFE00
1FFC00
07F000
ENDCHAR
STARTCHAR 004B
ENCODING 75
SWIDTH 585 0
DWIDTH 24 0
BBX 21 30 3 0
BITMAP
E00078
E000F0
E001E0
E003C0
E00380
E00700
E00F00
E01E00
E03C00
E07800
E07000
E0F000
E1E000
E3C000
E78000
E7C000
EFC000
FFE000
FCF000
F87800
F03C00
E01C00
E01E00
E00F00
E00780
E00380
E003C0
E001E0
E000F0
E00078
ENDCHAR
STARTCHAR 004C
ENCODING 76
SWIDTH 463 0
DWIDTH 19 0
BBX 16 30 3 0
BITMAP
E000
E000
E000
E000
E000
E000
E000
E000
E000
E000
E000
E000
E000
E000
E000
E000
E000
E000
E000
E000
E000
E000
E000
E000
E000
E000
E000
FFFF
FFFF
FFFF
ENDCHAR
STARTCHAR 004D
ENCODING 77
SWIDTH 926 0
DWIDTH 38 0
BBX 32 30 3 0
BITMAP
F800001F
F800003F
FC00003F
FC000077
EE000077
EE0000F7
EF0000E7
E70000E7
E78001C7
E38001C7
E3800387
E1C00387
E1C00787
E1E00707
E0E00707
E0F00E07
E0700E07
E0701C07
E0381C07
E0383C07
E03C3807
E01C3807
E01E7007
E00E7007
E00EE007
E007E007
E007E007
E007C007
E003C007
E0038007
ENDCHAR
STARTCHAR 004E
ENCODING 78
SWIDTH 731 0
DWIDTH 30 0
BBX 24 30 3 0
BITMAP
F80007
F80007
FC0007
FE0007
EE0007
EF0007
E78007
E38007
E3C007
E1E007
E0E007
E07007
E07807
E03807
E01C07
E01E07
E00E07
E00707
E00787
E003C7
E001C7
E001E7
E000F7
E00077
E0007F
E0003F
E0001F
E0001F
E0000F
E00007
ENDCHAR
STARTCHAR 004F
ENCODING 79
SWIDTH 878 0
DWIDTH 36 0
BBX 32 32 2 -1
BITMAP
000FF000
007FFE00
01FFFF00
03F00FC0
07C003E0
0F0000F0
1E000078
3C000038
3800003C
7800001C
7000000E
F000000E
E000000E
E000000F
E0000007
E0000007
E0000007
E0000007
E0000007
E000000E
F000000E
7000000E
7800001C
3800003C
3C000038
1E000078
0F0000F0
07C003E0
03F00FC0
01FFFF00
007FFE00
000FF000
ENDCHAR
STARTCHAR 0050
ENCODING 80
SWIDTH 585 0
DWIDTH 24 0
BBX 20 30 3 0
BITMAP
FFFC00
FFFF00
FFFFC0
E003E0
E000E0
E000F0
E00070
E00070
E00070
E00070
E00070
E00070
E000F0
E000E0
E003E0
FFFFC0
FFFF80
FFFC00
E00000
E00000
E00000
E00000
E00000
E00000
E00000
E00000
E00000
E00000
E00000
E00000
ENDCHAR
STARTCHAR 0051
ENCODING 81
SWIDTH 878 0
DWIDTH 36 0
BBX 32 32 2 -1
BITMAP
000FF000
007FFE00
01FFFF80
03F00FE0
07C001F0
0F0000F8
1E000078
3C00003C
3800001E
7800000E
7000000F
F0000007
E0000007
E0000007
E0000007
E0000007
E0000007
E0000007
E0000007
E7FE0007
FFFFC007
7FFFF00F
7801F80E
38007E1E
3C001F3C
1E000FF8
0F0003F8
07C001F0
03F007F8
01FFFFFF
007FFE1F
000FF007
ENDCHAR
STARTCHAR 0052
ENCODING 82
SWIDTH 609 0
DWIDTH 25 0
BBX 21 30 3 0
BITMAP
FFF800
FFFF00
FFFFC0
E007E0
E001F0
E000F0
E00070
E00078
E00038
E00038
E00038
E00078
E00070
E00070
E000F0
E003E0
E3FFC0
E1FF00
E0F800
E07000
E07800
E03C00
E01E00
E00E00
E00F00
E00780
E003C0
E001C0
E001E0
E000F0
ENDCHAR
STARTCHAR 0053
ENCODING 83
SWIDTH 487 0
DWIDTH 20 0
BBX 19 32 1 -1
BITMAP
03F000
0FFE00
1FFF00
3C0F80
380780
780380
7003C0
7001C0
700000
700000
780000
380000
3E0000
1FC000
0FF800
03FE00
007F00
000F80
0007C0
0003C0
0001C0
0001C0
0001E0
E001E0
F001C0
F001C0
7001C0
780380
3E0F80
1FFF00
0FFE00
03F000
ENDCHAR
STARTCHAR 0054
ENCODING 84
SWIDTH 414 0
DWIDTH 17 0
BBX 17 30 0 0
BITMAP
FFFF80
FFFF80
FFFF80
01C000
01C000
01C000
01C000
01C000
01C000
01C000
01C000
01C000
01C000
01C000
01C000
01C000
01C000
01C000
01C000
01C000
01C000
01C000
01C000
01C000
01C000
01C000
01C000
01C000
01C000
01C000
ENDCHAR
STARTCHAR 0055
ENCODING 85
SWIDTH 658 0
DWIDTH 27 0
BBX 21 31 3 -1
BITMAP
E00038
E00038
E00038
E00038
E00038
E00038
E00038
E00038
E00038
E00038
E00038
E00038
E00038
E00038
E00038
E00038
E00038
E00038
E00038
E00038
E00038
E00038
F00070
700070
700070
7800F0
3C01E0
3E03C0
1FFF80
07FF00
01FC00
ENDCHAR
STARTCHAR 0056
ENCODING 86
SWIDTH 707 0
DWIDTH 29 0
BBX 27 30 1 0
BITMAP
E00000E0
E00001E0
F00001C0
700001C0
78000380
38000380
38000780
3C000700
1C000700
1E000E00
0E000E00
0E001E00
07001C00
07001C00
07803800
03803800
03807000
01C07000
01C07000
01E0E000
00E0E000
00E1C000
0071C000
0071C000
003B8000
003B8000
003F0000
001F0000
001E0000
000E0000
ENDCHAR
STARTCHAR 0057
ENCODING 87
SWIDTH 951 0
DWIDTH 39 0
BBX 38 30 1 0
BITMAP
E00070001C
E000780038
E000780038
F000F80038
7000F80038
7000FC0070
7001DC0070
3801DC0070
3801DC00E0
3801CE00E0
3C038E00E0
1C038E00E0
1C038701C0
1C070701C0
0E070701C0
0E07070380
0E07038380
0F0E038380
070E038380
070E03C700
070E01C700
039C01C700
039C01CE00
039C00EE00
03F800EE00
01F800EE00
01F800FC00
01F8007C00
00F0007C00
00F0007800
ENDCHAR
STARTCHAR 0058
ENCODING 88
SWIDTH 609 0
DWIDTH 25 0
BBX 23 30 1 0
BITMAP
F0001E
70001C
380038
3C0078
1C0070
0E00E0
0F01E0
0701C0
038380
03C780
01C700
01EE00
00FE00
007C00
007800
007C00
00FE00
00EE00
01EF00
03C780
038380
0783C0
0F01E0
0E00E0
1E00F0
3C0078
380038
78003C
F0001E
E0000E
ENDCHAR
STARTCHAR 0059
ENCODING 89
SWIDTH 585 0
DWIDTH 24 0
BBX 24 30 0 0
BITMAP
F00007
70000E
78000E
38001C
3C003C
1C0038
1E0078
0E0070
0700F0
0700E0
0381E0
0381C0
01C3C0
01C380
00E780
00E700
007E00
007E00
003C00
003C00
001C00
001C00
001C00
001C00
001C00
001C00
001C00
001C00
001C00
001C00
ENDCHAR
STARTCHAR 005A
ENCODING 90
SWIDTH 487 0
DWIDTH 20 0
BBX 18 30 1 0
BITMAP
FFFFC0
FFFFC0
FFFFC0
0003C0
000380
000700
000F00
000E00
001C00
003C00
003800
007800
007000
00E000
01E000
01C000
03C000
038000
070000
0F0000
0E0000
1E0000
1C0000
380000
780000
700000
F00000
FFFFC0
FFFFC0
FFFFC0
ENDCHAR
STARTCHAR 005B
ENCODING 91
SWIDTH 341 0
DWIDTH 14 0
BBX 10 39 3 -9
BITMAP
FFC0
FFC0
FFC0
F000
F000
F000
F000
F000
F000
F000
F000
F000
F000
F000
F000
F000
F000
F000
F000
F000
F000
F000
F000
F000
F000
F000
F000
F000
F000
F000
F000
F000
F000
F000
F000
F000
FFC0
FFC0
FFC0
ENDCHAR
STARTCHAR 005C
ENCODING 92
SWIDTH 512 0
DWIDTH 21 0
BBX 15 33 3 -6
BITMAP
F000
7000
7000
7800
3800
3800
3C00
1C00
1C00
1E00
0E00
0E00
0F00
0700
0700
0780
0380
0380
03C0
01C0
01C0
00E0
00E0
00E0
0070
0070
0070
0038
0038
003C
001C
001C
001E
ENDCHAR
STARTCHAR 005D
ENCODING 93
SWIDTH 341 0
DWIDTH 14 0
BBX 9 39 2 -9
BITMAP
FF80
FF80
FF80
0380
0380
0380
0380
0380
0380
0380
0380
0380
0380
0380
0380
0380
0380
0380
0380
0380
0380
0380
0380
0380
0380
0380
0380
0380
0380
0380
0380
0380
0380
0380
0380
0380
FF80
FF80
FF80
ENDCHAR
STARTCHAR 005E
ENCODING 94
SWIDTH 609 0
DWIDTH 25 0
BBX 23 23 1 7
BITMAP
007800
007C00
007C00
00EE00
00EE00
01CF00
01C700
03C700
038380
038380
0701C0
0701C0
0F01E0
0E00E0
1E00E0
1C0070
1C0070
380078
380038
78003C
70001C
F0001C
E0000E
ENDCHAR
STARTCHAR 005F
ENCODING 95
SWIDTH 512 0
DWIDTH 21 0
BBX 21 2 0 -5
BITMAP
FFFFF8
FFFFF8
ENDCHAR
STARTCHAR 0060
ENCODING 96
SWIDTH 365 0
DWIDTH 15 0
BBX 8 7 2 24
BITMAP
40
E0
F8
7E
1F
07
01
ENDCHAR
STARTCHAR 0061
ENCODING 97
SWIDTH 682 0
DWIDTH 28 0
BBX 23 24 2 -1
BITMAP
00FE00
03FF8E
0FFFCE
1F01EE
3C007E
38003E
70001E
70001E
E0000E
E0000E
E0000E
E0000E
E0000E
E0000E
E0000E
F0000E
F0001E
78001E
78003E
3E007E
1F01FE
0FFFEE
03FF8E
00FE00
ENDCHAR
STARTCHAR 0062
ENCODING 98
SWIDTH 682 0
DWIDTH 28 0
BBX 23 31 3 -1
BITMAP
E00000
E00000
E00000
E00000
E00000
E00000
E00000
E0FE00
E3FF80
EFFFE0
FF01F0
FC0078
F80038
F0001C
F0001C
E0000E
E0000E
E0000E
C0000E
C0000E
E0000E
E0000E
E0000E
F0001C
F0001C
F80038
FC0078
EF01F0
EFFFE0
E3FF80
00FE00
ENDCHAR
STARTCHAR 0063
ENCODING 99
SWIDTH 658 0
DWIDTH 27 0
BBX 23 24 2 -1
BITMAP
00FE00
03FFC0
0FFFE0
1F01F0
3C0078
38003C
78001C
700000
E00000
E00000
E00000
E00000
E00000
E00000
E00000
E00000
700000
78001E
38003C
3E0078
1F01F0
0FFFE0
03FFC0
00FF00
ENDCHAR
STARTCHAR 0064
ENCODING 100
SWIDTH 682 0
DWIDTH 28 0
BBX 24 31 2 -1
BITMAP
00000F
00000F
00000F
00000F
00000F
00000F
00000F
00FE0F
03FF8F
0FFFEF
1F01FF
3C007F
38003F
70001F
70000F
E0000F
E0000F
E0000F
E00007
E00007
E0000F
E0000F
E0000F
70001F
78001F
38003F
3E007F
1F01FF
0FFFEF
03FF8F
00FE00
ENDCHAR
STARTCHAR 0065
ENCODING 101
SWIDTH 658 0
DWIDTH 27 0
BBX 23 24 2 -1
BITMAP
00FE00
03FF80
0FFFE0
1F01F0
3C0078
380038
70003C
70001C
E0001E
E0000E
FFFFFE
FFFFFE
FFFFFE
E00000
E00000
E00000
70001C
70001C
380038
3C0078
1F01F0
0FFFE0
03FF80
00FE00
ENDCHAR
STARTCHAR 0066
ENCODING 102
SWIDTH 317 0
DWIDTH 13 0
BBX 12 30 1 0
BITMAP
00F0
03F0
07F0
0F00
0E00
1C00
1C00
1C00
FFF0
FFF0
FFF0
1C00
1C00
1C00
1C00
1C00
1C00
1C00
1C00
1C00
1C00
1C00
1C00
1C00
1C00
1C00
1C00
1C00
1C00
1C00
ENDCHAR
STARTCHAR 0067
ENCODING 103
SWIDTH 682 0
DWIDTH 28 0
BBX 23 32 2 -9
BITMAP
00FE00
03FF8E
0FFFCE
1F01EE
3C00FE
38003E
70003E
70001E
E0001E
E0000E
E0000E
E0000E
E0000E
E0000E
E0000E
E0001E
F0001E
78003E
78003E
3C007E
1F01EE
0FFFCE
03FF8E
00FE0E
70001E
70001C
38003C
3C0078
1F00F8
0FFFE0
07FFC0
00FE00
ENDCHAR
STARTCHAR 0068
ENCODING 104
SWIDTH 609 0
DWIDTH 25 0
BBX 19 30 3 0
BITMAP
E00000
E00000
E00000
E00000
E00000
E00000
E00000
E1F800
E7FE00
FFFF80
FC07C0
F803C0
F001E0
E000E0
E000E0
E000E0
E000E0
E000E0
E000E0
E000E0
E000E0
E000E0
E000E0
E000E0
E000E0
E000E0
E000E0
E000E0
E000E0
E000E0
ENDCHAR
STARTCHAR 0069
ENCODING 105
SWIDTH 195 0
DWIDTH 8 0
BBX 3 30 3 0
BITMAP
E0
E0
E0
E0
E0
00
00
00
E0
E0
E0
E0
E0
E0
E0
E0
E0
E0
E0
E0
E0
E0
E0
E0
E0
E0
E0
E0
E0
E0
ENDCHAR
STARTCHAR 006A
ENCODING 106
SWIDTH 195 0
DWIDTH 8 0
BBX 8 38 -2 -8
BITMAP
07
07
07
07
07
00
00
00
07
07
07
07
07
07
07
07
07
07
07
07
07
07
07
07
07
07
07
07
07
07
07
07
0E
0E
1E
FC
F8
E0
ENDCHAR
STARTCHAR 006B
ENCODING 107
SWIDTH 512 0
DWIDTH 21 0
BBX 17 30 3 0
BITMAP
E00000
E00000
E00000
E00000
E00000
E00000
E00000
E00000
E00700
E00F00
E01E00
E03C00
E03800
E07000
E0F000
E1E000
E3C000
E38000
E78000
EF0000
FF8000
FFC000
F9E000
F0F000
E07800
E03C00
E01C00
E01E00
E00F00
E00780
ENDCHAR
STARTCHAR 006C
ENCODING 108
SWIDTH 195 0
DWIDTH 8 0
BBX 3 30 3 0
BITMAP
E0
E0
E0
E0
E0
E0
E0
E0
E0
E0
E0
E0
E0
E0
E0
E0
E0
E0
E0
E0
E0
E0
E0
E0
E0
E0
E0
E0
E0
E0
ENDCHAR
STARTCHAR 006D
ENCODING 109
SWIDTH 926 0
DWIDTH 38 0
BBX 33 23 3 0
BITMAP
03F007E000
EFFC1FF800
FFFE3FFE00
FC0F781E00
F007E00F00
F003E00700
E003C00780
E003C00380
E001C00380
E001C00380
E001C00380
E001C00380
E001C00380
E001C00380
E001C00380
E001C00380
E001C00380
E001C00380
E001C00380
E001C00380
E001C00380
E001C00380
E001C00380
ENDCHAR
STARTCHAR 006E
ENCODING 110
SWIDTH 609 0
DWIDTH 25 0
BBX 19 23 3 0
BITMAP
01F800
E7FE00
EFFF80
FC0780
F803C0
F001E0
E000E0
E000E0
E000E0
E000E0
E000E0
E000E0
E000E0
E000E0
E000E0
E000E0
E000E0
E000E0
E000E0
E000E0
E000E0
E000E0
E000E0
ENDCHAR
STARTCHAR 006F
ENCODING 111
SWIDTH 658 0
DWIDTH 27 0
BBX 23 24 2 -1
BITMAP
00FE00
03FF80
0FFFE0
1F01F0
3C0078
380038
70003C
70001C
E0001E
E0000E
E0000E
E0000E
E0000E
E0000E
E0000E
E0000E
70001C
70001C
380038
3C0078
1F01F0
0FFFE0
03FF80
00FE00
ENDCHAR
STARTCHAR 0070
ENCODING 112
SWIDTH 682 0
DWIDTH 28 0
BBX 23 31 3 -8
BITMAP
00FE00
E3FF80
EFFFE0
FF01F0
FC0078
F80038
F0003C
F0001C
E0000E
E0000E
E0000E
C0000E
C0000E
E0000E
E0000E
E0000E
F0001C
F0001C
F80038
FC0078
FF01F0
EFFFE0
E3FF80
E0FE00
E00000
E00000
E00000
E00000
E00000
E00000
E00000
ENDCHAR
STARTCHAR 0071
ENCODING 113
SWIDTH 682 0
DWIDTH 28 0
BBX 23 31 2 -8
BITMAP
00FE00
03FF8E
0FFFEE
1F01EE
3C007E
38003E
70001E
70001E
E0000E
E0000E
E0000E
E00006
E00006
E0000E
E0000E
E0000E
F0000E
78001E
78003E
3C007E
1F01FE
0FFFEE
03FF8E
00FE0E
00000E
00000E
00000E
00000E
00000E
00000E
00000E
ENDCHAR
STARTCHAR 0072
ENCODING 114
SWIDTH 292 0
DWIDTH 12 0
BBX 9 23 3 0
BITMAP
0380
EF80
FF80
FE00
F800
F000
E000
E000
E000
E000
E000
E000
E000
E000
E000
E000
E000
E000
E000
E000
E000
E000
E000
ENDCHAR
STARTCHAR 0073
ENCODING 115
SWIDTH 390 0
DWIDTH 16 0
BBX 14 24 1 -1
BITMAP
0FC0
1FE0
3FF0
7878
7038
7038
7000
7000
7800
7C00
3F80
1FE0
03F0
00F8
0038
003C
001C
E01C
E01C
F038
7878
7FF0
3FE0
0FC0
ENDCHAR
STARTCHAR 0074
ENCODING 116
SWIDTH 341 0
DWIDTH 14 0
BBX 13 30 0 0
BITMAP
0700
0700
0700
0700
0700
0700
0700
0700
FFF8
FFF8
FFF8
0700
0700
0700
0700
0700
0700
0700
0700
0700
0700
0700
0700
0700
0700
0700
0700
0700
0700
0700
ENDCHAR
STARTCHAR 0075
ENCODING 117
SWIDTH 609 0
DWIDTH 25 0
BBX 19 23 3 -1
BITMAP
E000E0
E000E0
E000E0
E000E0
E000E0
E000E0
E000E0
E000E0
E000E0
E000E0
E000E0
E000E0
E000E0
E000E0
E000E0
E000E0
E001E0
F001E0
7803E0
7C07E0
3FFEE0
1FFCE0
03F000
ENDCHAR
STARTCHAR 0076
ENCODING 118
SWIDTH 560 0
DWIDTH 23 0
BBX 21 22 1 0
BITMAP
E00038
E00038
E00070
700070
7000E0
3800E0
3801E0
1C01C0
1C01C0
1C0380
0E0380
0E0700
070700
070F00
038E00
038E00
039C00
01DC00
01F800
00F800
00F800
007000
ENDCHAR
STARTCHAR 0077
ENCODING 119
SWIDTH 829 0
DWIDTH 34 0
BBX 34 22 0 0
BITMAP
F0000001C0
7000000380
7000000380
3801E00700
3801E00700
3801E00700
1C03F00E00
1C03F00E00
0E03F01C00
0E07381C00
0E07381C00
0707383800
070E1C3800
038E1C7000
038E1C7000
039C0E7000
01DC0EE000
01DC0EE000
01F807C000
00F807C000
00F807C000
0070038000
ENDCHAR
STARTCHAR 0078
ENCODING 120
SWIDTH 487 0
DWIDTH 20 0
BBX 18 22 1 0
BITMAP
E003C0
F00380
780780
380F00
1C0E00
1E1C00
0E3C00
073800
07F000
03E000
01E000
01E000
03F000
07F000
073800
0E3C00
1E1E00
3C0E00
380F00
700780
F00380
E001C0
ENDCHAR
STARTCHAR 0079
ENCODING 121
SWIDTH 536 0
DWIDTH 22 0
BBX 20 30 1 -8
BITMAP
E00070
E00070
F000F0
7000E0
7801E0
3801C0
3801C0
3C0380
1C0380
1E0700
0E0700
0E0F00
0F0E00
070E00
079C00
039C00
03B800
03F800
01F800
01F000
00F000
00E000
00E000
01C000
01C000
03C000
038000
078000
070000
070000
ENDCHAR
STARTCHAR 007A
ENCODING 122
SWIDTH 414 0
DWIDTH 17 0
BBX 17 22 0 0
BITMAP
7FFF00
7FFF00
7FFF00
000F00
001E00
001C00
003800
007800
00F000
00E000
01C000
03C000
078000
070000
0E0000
1E0000
3C0000
380000
780000
FFFF80
FFFF80
FFFF80
ENDCHAR
STARTCHAR 007B
ENCODING 123
SWIDTH 365 0
DWIDTH 15 0
BBX 11 39 2 -9
BITMAP
0020
01E0
03E0
0780
0F00
0E00
0E00
0E00
0E00
0E00
0E00
0E00
0E00
0E00
0E00
0E00
0E00
1E00
FC00
F800
FC00
3C00
1E00
0E00
0E00
0E00
0E00
0E00
0E00
0E00
0E00
0E00
0E00
0E00
0F00
0780
07E0
03E0
00E0
ENDCHAR
STARTCHAR 007C
ENCODING 124
SWIDTH 243 0
DWIDTH 10 0
BBX 3 33 3 -6
BITMAP
E0
E0
E0
E0
E0
E0
E0
E0
E0
E0
E0
E0
E0
E0
E0
E0
E0
E0
E0
E0
E0
E0
E0
E0
E0
E0
E0
E0
E0
E0
E0
E0
E0
ENDCHAR
STARTCHAR 007D
ENCODING 125
SWIDTH 365 0
DWIDTH 15 0
BBX 11 39 2 -9
BITMAP
8000
F000
FC00
3C00
1E00
0E00
0E00
0E00
0E00
0E00
0E00
0E00
0E00
0E00
0E00
0E00
0F00
0780
07E0
03E0
03E0
0780
0F00
0E00
0E00
0E00
0E00
0E00
0E00
0E00
0E00
0E00
0E00
0E00
0E00
1C00
FC00
F800
E000
ENDCHAR
STARTCHAR 007E
ENCODING 126
SWIDTH 609 0
DWIDTH 25 0
BBX 21 7 2 8
BITMAP
000030
0FC038
3FF870
3FFFF0
70FFE0
E01F80
600000
ENDCHAR
STARTCHAR 00A0
ENCODING 160
SWIDTH 268 0
DWIDTH 11 0
BBX 0 0 0 0
BITMAP
ENDCHAR
STARTCHAR 00A1
ENCODING 161
SWIDTH 292 0
DWIDTH 12 0
BBX 3 30 5 -8
BITMAP
E0
E0
E0
E0
E0
00
00
00
E0
E0
E0
E0
E0
E0
E0
E0
E0
E0
E0
E0
E0
E0
E0
E0
E0
E0
E0
E0
E0
E0
ENDCHAR
STARTCHAR 00A2
ENCODING 162
SWIDTH 560 0
DWIDTH 23 0
BBX 19 26 2 3
BITMAP
006000
006000
006000
006000
03F800
0FFE00
1FFF80
3C0780
7803C0
7001E0
E00000
E00000
E00000
E00000
E00000
E00000
F00000
7001C0
7803C0
3E0F80
1FFF00
07FE00
00F000
006000
006000
006000
ENDCHAR
STARTCHAR 00A3
ENCODING 163
SWIDTH 560 0
DWIDTH 23 0
BBX 23 31 1 0
BITMAP
00FE00
03FF80
07FFE0
0F01F0
1E00F0
1C0078
3C0038
38001C
38001C
380000
380000
380000
380000
1C0000
FFFFC0
FFFFC0
FFFFC0
03C000
01C000
00E000
00E00E
00700E
00700E
00700E
00700E
00701E
00E01C
00E07C
7FFFF8
7FFFE0
7FFF80
ENDCHAR
STARTCHAR 00A4
ENCODING 164
SWIDTH 560 0
DWIDTH 23 0
BBX 21 21 1 2
BITMAP
21FC20
77FF70
FFFFF0
7E07E0
3C01E0
7800F0
700070
F00070
E00038
E00038
E00038
E00038
E00038
F00070
700070
7800F0
3C01E0
7F07F0
FFFFF0
77FF60
21F800
ENDCHAR
STARTCHAR 00A5
ENCODING 165
SWIDTH 560 0
DWIDTH 23 0
BBX 24 30 0 0
BITMAP
E00007
70000E
70000E
38001C
3C001C
1C0038
1E0038
0E0070
070070
0700E0
0380E0
3F81FC
3FC1FC
3FC3FC
00E700
00E700
007E00
007E00
3FFFFC
3FFFFC
3FFFFC
001C00
001C00
001C00
001C00
001C00
001C00
001C00
001C00
001C00
ENDCHAR
STARTCHAR 00A6
ENCODING 166
SWIDTH 609 0
DWIDTH 25 0
BBX 3 35 11 -5
BITMAP
E0
E0
E0
E0
E0
E0
E0
E0
E0
E0
E0
E0
E0
E0
00
00
00
00
00
00
00
E0
E0
E0
E0
E0
E0
E0
E0
E0
E0
E0
E0
E0
E0
ENDCHAR
STARTCHAR 00A7
ENCODING 167
SWIDTH 609 0
DWIDTH 25 0
BBX 18 37 4 -6
BITMAP
03F000
0FF800
1FFC00
3C1E00
380F00
380700
300000
300000
380000
3C0000
1E0000
3FC000
77F000
E1FC00
E07E00
C01F00
C00780
E003C0
E001C0
F801C0
7E01C0
3F8380
0FE380
03FF00
00FE00
003E00
000F00
000700
E00300
E00380
700300
700700
780700
3C1E00
1FFC00
0FF800
01E000
ENDCHAR
STARTCHAR 00A8
ENCODING 168
SWIDTH 365 0
DWIDTH 15 0
BBX 9 5 3 25
BITMAP
E380
E380
E380
E380
E380
ENDCHAR
STARTCHAR 00A9
ENCODING 169
SWIDTH 756 0
DWIDTH 31 0
BBX 29 30 1 -1
BITMAP
00020000
007FF000
01E03C00
03000E00
0E000300
18000180
100FC0C0
307FF060
60F07C20
61C01E30
43800E10
C3000010
C7000018
87000018
86000018
86000018
87000018
C7000018
C3000010
43800E10
61C01E30
60F03C20
307FF060
301FC040
180000C0
0C000180
07000700
03C01C00
00FFF800
001FC000
ENDCHAR
STARTCHAR 00AA
ENCODING 170
SWIDTH 365 0
DWIDTH 15 0
BBX 13 18 1 13
BITMAP
0F98
1FD8
38F8
7078
6038
E038
C018
E038
6038
7078
38F8
3FD8
0F98
0000
0000
0000
FFF8
FFF8
ENDCHAR
STARTCHAR 00AB
ENCODING 171
SWIDTH 414 0
DWIDTH 17 0
BBX 14 16 2 4
BITMAP
0C18
1C38
1C38
3870
78F0
70E0
F1E0
E1C0
E1C0
70E0
70F0
3870
3C78
1C38
1E1C
0810
ENDCHAR
STARTCHAR 00AC
ENCODING 172
SWIDTH 756 0
DWIDTH 31 0
BBX 25 12 3 0
BITMAP
FFFFFF80
FFFFFF80
FFFFFF80
00000380
00000380
00000380
00000380
00000380
00000380
00000380
00000380
00000380
ENDCHAR
STARTCHAR 00AD
ENCODING 173
SWIDTH 341 0
DWIDTH 14 0
BBX 11 3 1 9
BITMAP
FFE0
FFE0
FFE0
ENDCHAR
STARTCHAR 00AE
ENCODING 174
SWIDTH 756 0
DWIDTH 31 0
BBX 29 30 1 -1
BITMAP
001FC000
00FFF800
03801C00
07000700
0C000180
180000C0
30FF80C0
30FFE060
60C0F030
40C03030
40C03810
C0C03818
C0C03818
80C03018
80C07018
80DFE018
C0CFC018
C0C70018
C0C38010
40C38010
60C1C030
60C0E020
30C07060
30C078C0
180000C0
0C000180
07000700
03C01C00
00FFF800
001FC000
ENDCHAR
STARTCHAR 00AF
ENCODING 175
SWIDTH 487 0
DWIDTH 20 0
BBX 14 3 3 26
BITMAP
FFFC
FFFC
FFFC
ENDCHAR
STARTCHAR 00B0
ENCODING 176
SWIDTH 390 0
DWIDTH 16 0
BBX 12 12 2 18
BITMAP
0F80
3FC0
79E0
6070
E030
C030
C030
E030
E070
70E0
3FE0
1F80
ENDCHAR
STARTCHAR 00B1
ENCODING 177
SWIDTH 731 0
DWIDTH 30 0
BBX 23 30 3 -8
BITMAP
003800
003800
003800
003800
003800
003800
003800
003800
003800
003800
FFFFFE
FFFFFE
FFFFFE
003800
003800
003800
003800
003800
003800
003800
003800
003800
003800
003800
000000
000000
000000
FFFFFE
FFFFFE
FFFFFE
ENDCHAR
STARTCHAR 00B2
ENCODING 178
SWIDTH 341 0
DWIDTH 14 0
BBX 13 19 0 12
BITMAP
0FC0
1FE0
38F0
7038
6038
6018
6018
0038
0070
00F0
01E0
03C0
0780
0F00
1E00
3800
7000
FFF8
FFF8
ENDCHAR
STARTCHAR 00B3
ENCODING 179
SWIDTH 341 0
DWIDTH 14 0
BBX 12 19 1 12
BITMAP
0F00
3FC0
79C0
70E0
60E0
00E0
01E0
0FC0
0FC0
01E0
0070
0070
0030
C030
C070
E070
70E0
7FC0
1F80
ENDCHAR
STARTCHAR 00B4
ENCODING 180
SWIDTH 365 0
DWIDTH 15 0
BBX 9 7 5 24
BITMAP
0100
0700
1F80
3E00
F800
F000
4000
ENDCHAR
STARTCHAR 00B5
ENCODING 181
SWIDTH 609 0
DWIDTH 25 0
BBX 19 29 3 -7
BITMAP
E000E0
E000E0
E000E0
E000E0
E000E0
E000E0
E000E0
E000E0
E000E0
E000E0
E000E0
E000E0
E000E0
E000E0
F001E0
F001E0
F803E0
FC07E0
FE0FE0
EFFEE0
E7FCE0
E1F0E0
E00000
E00000
E00000
E00000
E00000
E00000
E00000
ENDCHAR
STARTCHAR 00B6
ENCODING 182
SWIDTH 560 0
DWIDTH 23 0
BBX 18 36 2 -6
BITMAP
07FFC0
1FFFC0
3FFFC0
7FC1C0
FFC1C0
FFC1C0
FFC1C0
FFC1C0
FFC1C0
FFC1C0
FFC1C0
FFC1C0
7FC1C0
3FC1C0
1FC1C0
03C1C0
01C1C0
01C1C0
01C1C0
01C1C0
01C1C0
01C1C0
01C1C0
01C1C0
01C1C0
01C1C0
01C1C0
01C1C0
01C1C0
01C1C0
01C1C0
01C1C0
01C1C0
01C1C0
01C1C0
01C1C0
ENDCHAR
STARTCHAR 00B7
ENCODING 183
SWIDTH 243 0
DWIDTH 10 0
BBX 3 5 3 8
BITMAP
E0
E0
E0
E0
E0
ENDCHAR
STARTCHAR 00B8
ENCODING 184
SWIDTH 317 0
DWIDTH 13 0
BBX 9 10 3 -10
BITMAP
1800
3000
3E00
7F00
2300
0380
0380
E300
7F00
3E00
ENDCHAR
STARTCHAR 00B9
ENCODING 185
SWIDTH 341 0
DWIDTH 14 0
BBX 6 18 4 12
BITMAP
FC
FC
1C
1C
1C
1C
1C
1C
1C
1C
1C
1C
1C
1C
1C
1C
1C
1C
ENDCHAR
STARTCHAR 00BA
ENCODING 186
SWIDTH 365 0
DWIDTH 15 0
BBX 13 18 1 13
BITMAP
0F80
1FE0
38F0
7030
6038
E018
E018
E018
6038
7030
38E0
1FE0
0F80
0000
0000
0000
FFF8
FFF8
ENDCHAR
STARTCHAR 00BB
ENCODING 187
SWIDTH 414 0
DWIDTH 17 0
BBX 14 16 2 4
BITMAP
E1C0
E1C0
70E0
70E0
3870
3878
1C38
1E3C
1C38
3C38
3870
78F0
70E0
E1E0
E1C0
4080
ENDCHAR
STARTCHAR 00BC
ENCODING 188
SWIDTH 829 0
DWIDTH 34 0
BBX 29 30 4 0
BITMAP
FC003800
FC003000
1C007000
1C006000
1C006000
1C00C000
1C00C000
1C018000
1C018000
1C030000
1C030000
1C070000
1C0600E0
1C0E01E0
1C0C01E0
1C1C03E0
1C180760
1C380660
00300E60
00301C60
00603860
00603860
00C07060
00C0E060
0180E060
0181FFF8
0301FFF8
03000060
07000060
06000060
ENDCHAR
STARTCHAR 00BD
ENCODING 189
SWIDTH 829 0
DWIDTH 34 0
BBX 29 30 4 0
BITMAP
F8003000
F8003000
18007000
18006000
1800E000
1800C000
1801C000
18018000
18038000
18030000
18030000
180607C0
18061FE0
180C3CF0
180C3038
18187018
18186018
18306018
00300038
00700038
00600070
00E000E0
00C001C0
01C00780
01800F00
01801E00
03003C00
03007800
06007FF8
06007FF8
ENDCHAR
STARTCHAR 00BE
ENCODING 190
SWIDTH 829 0
DWIDTH 34 0
BBX 32 31 1 0
BITMAP
0F000000
3FC00180
79C00300
70E00300
60E00600
00E00600
01E00C00
0FC00C00
0FC01C00
01E01800
00703800
00703000
0030701C
C030601C
C070E03C
E070C07C
70E0C06C
7FC180EC
1F8181CC
0003018C
0003038C
0006070C
0006060C
000E0E0C
000C1C0C
001C1C0C
00183FFF
00383FFF
0030000C
0070000C
0060000C
ENDCHAR
STARTCHAR 00BF
ENCODING 191
SWIDTH 585 0
DWIDTH 24 0
BBX 19 31 3 -9
BITMAP
01E000
01E000
01E000
01E000
01E000
000000
000000
000000
00C000
01C000
01C000
01C000
038000
078000
0F0000
1E0000
3C0000
780000
F00000
E00000
E00000
E000E0
E000C0
E001C0
E001C0
F003C0
780380
3C0F00
1FFE00
0FFC00
01E000
ENDCHAR
STARTCHAR 00C0
ENCODING 192
SWIDTH 731 0
DWIDTH 30 0
BBX 29 38 1 1
BITMAP
00600000
00F80000
007C0000
001F0000
000F8000
00030000
00000000
00000000
000F0000
000F8000
001F8000
001F8000
003DC000
0039C000
0039E000
0070E000
0070F000
00F07000
00E07000
01E03800
01C03800
01C03C00
03801C00
03801E00
07800E00
07FFFE00
0FFFFF00
0FFFFF00
0E000780
1C000380
1C0003C0
3C0001C0
380001C0
780000E0
700000E0
700000F0
E0000070
E0000078
ENDCHAR
STARTCHAR 00C1
ENCODING 193
SWIDTH 731 0
DWIDTH 30 0
BBX 29 38 1 1
BITMAP
00007000
0000F000
0003E000
000FC000
001F0000
000C0000
00000000
00000000
000F0000
000F8000
001F8000
001F8000
003DC000
0039C000
0039E000
0070E000
0070F000
00F07000
00E07000
01E03800
01C03800
01C03C00
03801C00
03801E00
07800E00
07FFFE00
0FFFFF00
0FFFFF00
0E000780
1C000380
1C0003C0
3C0001C0
380001C0
780000E0
700000E0
700000F0
E0000070
E0000078
ENDCHAR
STARTCHAR 00C2
ENCODING 194
SWIDTH 731 0
DWIDTH 30 0
BBX 29 37 1 0
BITMAP
000F0000
001FC000
003DE000
0070F000
01E07800
00000000
00000000
000F0000
000F8000
001F8000
001F8000
003DC000
0039C000
0039E000
0070E000
0070F000
00F07000
00E07000
01E03800
01C03800
01C03C00
03801C00
03801E00
07800E00
07FFFE00
0FFFFF00
0FFFFF00
0E000780
1C000380
1C0003C0
3C0001C0
380001C0
780000E0
700000E0
700000F0
E0000070
E0000078
ENDCHAR
STARTCHAR 00C3
ENCODING 195
SWIDTH 731 0
DWIDTH 30 0
BBX 29 37 1 0
BITMAP
00380000
007E3000
00FFF000
0043E000
00000000
00000000
00000000
000F0000
000F8000
001F8000
001F8000
003DC000
0039C000
0039E000
0070E000
0070F000
00F07000
00E07000
01E03800
01C03800
01C03C00
03801C00
03801E00
07800E00
07FFFE00
0FFFFF00
0FFFFF00
0E000780
1C000380
1C0003C0
3C0001C0
380001C0
780000E0
700000E0
700000F0
E0000070
E0000078
ENDCHAR
STARTCHAR 00C4
ENCODING 196
SWIDTH 731 0
DWIDTH 30 0
BBX 29 37 1 0
BITMAP
0038E000
0038E000
0038E000
0038E000
0038E000
00000000
00000000
000F0000
000F8000
001F8000
001F8000
003DC000
0039C000
0039E000
0070E000
0070F000
00F07000
00E07000
01E03800
01C03800
01C03C00
03801C00
03801E00
07800E00
07FFFE00
0FFFFF00
0FFFFF00
0E000780
1C000380
1C0003C0
3C0001C0
380001C0
780000E0
700000E0
700000F0
E0000070
E0000078
ENDCHAR
STARTCHAR 00C5
ENCODING 197
SWIDTH 731 0
DWIDTH 30 0
BBX 29 40 1 0
BITMAP
000F0000
001F8000
0038C000
0030C000
0030C000
0038C000
001F8000
000F0000
00000000
00000000
000F0000
000F8000
001F8000
001F8000
003DC000
0039C000
0039E000
0070E000
0070F000
00F07000
00E07000
01E03800
01C03800
01C03C00
03801C00
03801E00
07800E00
07FFFE00
0FFFFF00
0FFFFF00
0E000780
1C000380
1C0003C0
3C0001C0
380001C0
780000E0
700000E0
700000F0
E0000070
E0000078
ENDCHAR
STARTCHAR 00C6
ENCODING 198
SWIDTH 1000 0
DWIDTH 41 0
BBX 37 30 1 0
BITMAP
00000FFFF8
00001FFFF8
00001FFFF8
00003F0000
00007F0000
0000770000
0000E70000
0001E70000
0003C70000
0003870000
0007870000
000F070000
000E070000
001E07FFF8
003C07FFF8
003807FFF8
0070070000
00FFFF0000
01FFFF0000
01FFFF0000
03C0070000
0780070000
0700070000
0F00070000
1E00070000
1C00070000
3800070000
780007FFF8
F00007FFF8
E00007FFF8
ENDCHAR
STARTCHAR 00C7
ENCODING 199
SWIDTH 804 0
DWIDTH 33 0
BBX 29 41 2 -10
BITMAP
001FF000
007FFE00
01FFFF80
07E00FC0
0F8003E0
1E0000F0
1C000078
38000038
78000000
70000000
70000000
E0000000
E0000000
E0000000
E0000000
E0000000
E0000000
E0000000
E0000000
F0000000
70000000
70000000
78000000
3C000038
3C000078
1E0000F0
0F8001E0
07E007C0
03FC7F80
00FFFF00
003FF800
00018000
00030000
0003E000
0007F000
00023800
00003800
00003800
00063000
0007F000
0003E000
ENDCHAR
STARTCHAR 00C8
ENCODING 200
SWIDTH 536 0
DWIDTH 22 0
BBX 17 38 3 1
BITMAP
180000
3E0000
1F8000
07C000
01E000
00E000
000000
000000
FFFF80
FFFF80
FFFF80
E00000
E00000
E00000
E00000
E00000
E00000
E00000
E00000
E00000
E00000
FFFF00
FFFF00
FFFF00
E00000
E00000
E00000
E00000
E00000
E00000
E00000
E00000
E00000
E00000
E00000
FFFF80
FFFF80
FFFF80
ENDCHAR
STARTCHAR 00C9
ENCODING 201
SWIDTH 536 0
DWIDTH 22 0
BBX 17 38 3 1
BITMAP
001C00
003C00
00F800
03F000
07C000
030000
000000
000000
FFFF80
FFFF80
FFFF80
E00000
E00000
E00000
E00000
E00000
E00000
E00000
E00000
E00000
E00000
FFFF00
FFFF00
FFFF00
E00000
E00000
E00000
E00000
E00000
E00000
E00000
E00000
E00000
E00000
E00000
FFFF80
FFFF80
FFFF80
ENDCHAR
STARTCHAR 00CA
ENCODING 202
SWIDTH 536 0
DWIDTH 22 0
BBX 17 37 3 0
BITMAP
03E000
07F000
0F7800
1E3C00
381E00
000000
000000
FFFF80
FFFF80
FFFF80
E00000
E00000
E00000
E00000
E00000
E00000
E00000
E00000
E00000
E00000
FFFF00
FFFF00
FFFF00
E00000
E00000
E00000
E00000
E00000
E00000
E00000
E00000
E00000
E00000
E00000
FFFF80
FFFF80
FFFF80
ENDCHAR
STARTCHAR 00CB
ENCODING 203
SWIDTH 536 0
DWIDTH 22 0
BBX 17 37 3 0
BITMAP
0E3800
0E3800
0E3800
0E3800
0E3800
000000
000000
FFFF80
FFFF80
FFFF80
E00000
E00000
E00000
E00000
E00000
E00000
E00000
E00000
E00000
E00000
FFFF00
FFFF00
FFFF00
E00000
E00000
E00000
E00000
E00000
E00000
E00000
E00000
E00000
E00000
E00000
FFFF80
FFFF80
FFFF80
ENDCHAR
STARTCHAR 00CC
ENCODING 204
SWIDTH 219 0
DWIDTH 9 0
BBX 9 38 -2 1
BITMAP
6000
F800
7E00
1F00
0780
0380
0000
0000
0700
0700
0700
0700
0700
0700
0700
0700
0700
0700
0700
0700
0700
0700
0700
0700
0700
0700
0700
0700
0700
0700
0700
0700
0700
0700
0700
0700
0700
0700
ENDCHAR
STARTCHAR 00CD
ENCODING 205
SWIDTH 219 0
DWIDTH 9 0
BBX 9 38 2 1
BITMAP
0300
0F80
1F00
7C00
F000
E000
0000
0000
7000
7000
7000
7000
7000
7000
7000
7000
7000
7000
7000
7000
7000
7000
7000
7000
7000
7000
7000
7000
7000
7000
7000
7000
7000
7000
7000
7000
7000
7000
ENDCHAR
STARTCHAR 00CE
ENCODING 206
SWIDTH 219 0
DWIDTH 9 0
BBX 13 37 -2 0
BITMAP
0F80
1FC0
3DE0
7870
F038
0000
0000
0700
0700
0700
0700
0700
0700
0700
0700
0700
0700
0700
0700
0700
0700
0700
0700
0700
0700
0700
0700
0700
0700
0700
0700
0700
0700
0700
0700
0700
0700
ENDCHAR
STARTCHAR 00CF
ENCODING 207
SWIDTH 219 0
DWIDTH 9 0
BBX 9 37 0 0
BITMAP
E380
E380
E380
E380
E380
0000
0000
1C00
1C00
1C00
1C00
1C00
1C00
1C00
1C00
1C00
1C00
1C00
1C00
1C00
1C00
1C00
1C00
1C00
1C00
1C00
1C00
1C00
1C00
1C00
1C00
1C00
1C00
1C00
1C00
1C00
1C00
ENDCHAR
STARTCHAR 00D0
ENCODING 208
SWIDTH 780 0
DWIDTH 32 0
BBX 30 30 1 0
BITMAP
0FFFC000
0FFFF800
0FFFFE00
0E003F00
0E0007C0
0E0003C0
0E0001E0
0E0000F0
0E000070
0E000078
0E000038
0E000038
0E000038
FFFE003C
FFFE003C
FFFE003C
0E00003C
0E000038
0E000038
0E000038
0E000078
0E000070
0E0000F0
0E0001E0
0E0003E0
0E0007C0
0E003F00
0FFFFE00
0FFFF800
0FFF8000
ENDCHAR
STARTCHAR 00D1
ENCODING 209
SWIDTH 731 0
DWIDTH 30 0
BBX 24 37 3 0
BITMAP
00E000
01F8C0
03FFC0
010F80
000000
000000
000000
F80007
F80007
FC0007
FE0007
EE0007
EF0007
E78007
E38007
E3C007
E1E007
E0E007
E07007
E07807
E03807
E01C07
E01E07
E00E07
E00707
E00787
E003C7
E001C7
E001E7
E000F7
E00077
E0007F
E0003F
E0001F
E0001F
E0000F
E00007
ENDCHAR
STARTCHAR 00D2
ENCODING 210
SWIDTH 878 0
DWIDTH 36 0
BBX 32 40 2 -1
BITMAP
00100000
003C0000
003E0000
000F8000
0007E000
0001C000
00004000
00000000
000FF000
007FFE00
01FFFF00
03F00FC0
07C003E0
0F0000F0
1E000078
3C000038
3800003C
7800001C
7000000E
F000000E
E000000E
E000000F
E0000007
E0000007
E0000007
E0000007
E0000007
E000000E
F000000E
7000000E
7800001C
3800003C
3C000038
1E000078
0F0000F0
07C003E0
03F00FC0
01FFFF00
007FFE00
000FF000
ENDCHAR
STARTCHAR 00D3
ENCODING 211
SWIDTH 878 0
DWIDTH 36 0
BBX 32 40 2 -1
BITMAP
00000800
00003C00
0000FC00
0001F000
0007C000
00078000
00020000
00000000
000FF000
007FFE00
01FFFF00
03F00FC0
07C003E0
0F0000F0
1E000078
3C000038
3800003C
7800001C
7000000E
F000000E
E000000E
E000000F
E0000007
E0000007
E0000007
E0000007
E0000007
E000000E
F000000E
7000000E
7800001C
3800003C
3C000038
1E000078
0F0000F0
07C003E0
03F00FC0
01FFFF00
007FFE00
000FF000
ENDCHAR
STARTCHAR 00D4
ENCODING 212
SWIDTH 878 0
DWIDTH 36 0
BBX 32 39 2 -1
BITMAP
00038000
0007E000
000FF000
001E7800
00383C00
00400200
00000000
000FF000
007FFE00
01FFFF00
03F00FC0
07C003E0
0F0000F0
1E000078
3C000038
3800003C
7800001C
7000000E
F000000E
E000000E
E000000F
E0000007
E0000007
E0000007
E0000007
E0000007
E000000E
F000000E
7000000E
7800001C
3800003C
3C000038
1E000078
0F0000F0
07C003E0
03F00FC0
01FFFF00
007FFE00
000FF000
ENDCHAR
STARTCHAR 00D5
ENCODING 213
SWIDTH 878 0
DWIDTH 36 0
BBX 32 38 2 0
BITMAP
001F0800
003FFC00
0031F800
00107000
00000000
00000000
000FF000
007FFE00
01FFFF00
03F00FC0
07C003E0
0F0000F0
1E000078
3C000038
3800003C
7800001C
7000000E
F000000E
E000000E
E000000F
E0000007
E0000007
E0000007
E0000007
E0000007
E000000E
F000000E
7000000E
7800001C
3800003C
3C000038
1E000078
0F0000F0
07C003E0
03F00FC0
01FFFF00
007FFE00
000FF000
ENDCHAR
STARTCHAR 00D6
ENCODING 214
SWIDTH 878 0
DWIDTH 36 0
BBX 32 39 2 -1
BITMAP
001C7000
001C7000
001C7000
001C7000
001C7000
00000000
00000000
000FF000
007FFE00
01FFFF00
03F00FC0
07C003E0
0F0000F0
1E000078
3C000038
3800003C
7800001C
7000000E
F000000E
E000000E
E000000F
E0000007
E0000007
E0000007
E0000007
E0000007
E000000E
F000000E
7000000E
7800001C
3800003C
3C000038
1E000078
0F0000F0
07C003E0
03F00FC0
01FFFF00
007FFE00
000FF000
ENDCHAR
STARTCHAR 00D7
ENCODING 215
SWIDTH 609 0
DWIDTH 25 0
BBX 18 18 3 1
BITMAP
600080
F001C0
7803C0
3C0780
1E0F00
0F1E00
07BC00
03F800
01F000
01F000
03F800
07BC00
0F1E00
1E0F00
3C0780
7803C0
7001C0
200080
ENDCHAR
STARTCHAR 00D8
ENCODING 216
SWIDTH 878 0
DWIDTH 36 0
BBX 32 37 2 -3
BITMAP
0000001C
0000003C
000FF078
007FFE70
01FFFFE0
03E00FE0
078003E0
0F0003F0
1E0007F8
3C000F3C
38000E3C
78001C1E
70003C0E
F000780E
E000700E
E000E00F
E001E007
E003C007
E0038007
E0070007
E00F0007
E00E000E
F01C000E
703C000E
7878001C
3870001C
3CE00038
1FE00078
0FC000F0
078003E0
07F00FC0
0FFFFF00
1E7FFE00
1C0FF000
38000000
38000000
10000000
ENDCHAR
STARTCHAR 00D9
ENCODING 217
SWIDTH 658 0
DWIDTH 27 0
BBX 21 39 3 0
BITMAP
060000
0F8000
07E000
01F000
007800
003800
000000
000000
E00038
E00038
E00038
E00038
E00038
E00038
E00038
E00038
E00038
E00038
E00038
E00038
E00038
E00038
E00038
E00038
E00038
E00038
E00038
E00038
E00038
E00038
F00070
700070
700070
7800F0
3C01E0
3E03C0
1FFF80
07FF00
01FC00
ENDCHAR
STARTCHAR 00DA
ENCODING 218
SWIDTH 658 0
DWIDTH 27 0
BBX 21 39 3 0
BITMAP
000700
000F00
003E00
00FC00
00F000
00C000
000000
000000
E00038
E00038
E00038
E00038
E00038
E00038
E00038
E00038
E00038
E00038
E00038
E00038
E00038
E00038
E00038
E00038
E00038
E00038
E00038
E00038
E00038
E00038
F00070
700070
700070
7800F0
3C01E0
3E03C0
1FFF80
07FF00
01FC00
ENDCHAR
STARTCHAR 00DB
ENCODING 219
SWIDTH 658 0
DWIDTH 27 0
BBX 21 38 3 -1
BITMAP
00F800
01FC00
03DE00
078F00
0E0380
000000
000000
E00038
E00038
E00038
E00038
E00038
E00038
E00038
E00038
E00038
E00038
E00038
E00038
E00038
E00038
E00038
E00038
E00038
E00038
E00038
E00038
E00038
E00038
F00070
700070
700070
7800F0
3C01E0
3E03C0
1FFF80
07FF00
01FC00
ENDCHAR
STARTCHAR 00DC
ENCODING 220
SWIDTH 658 0
DWIDTH 27 0
BBX 21 38 3 -1
BITMAP
038E00
038E00
038E00
038E00
038E00
000000
000000
E00038
E00038
E00038
E00038
E00038
E00038
E00038
E00038
E00038
E00038
E00038
E00038
E00038
E00038
E00038
E00038
E00038
E00038
E00038
E00038
E00038
E00038
F00070
700070
700070
7800F0
3C01E0
3E03C0
1FFF80
07FF00
01FC00
ENDCHAR
STARTCHAR 00DD
ENCODING 221
SWIDTH 585 0
DWIDTH 24 0
BBX 24 38 0 1
BITMAP
0001C0
0007C0
000F80
003E00
007C00
003000
000000
000000
F00007
70000E
78000E
38001C
3C003C
1C0038
1E0078
0E0070
0700F0
0700E0
0381E0
0381C0
01C3C0
01C380
00E780
00E700
007E00
007E00
003C00
003C00
001C00
001C00
001C00
001C00
001C00
001C00
001C00
001C00
001C00
001C00
ENDCHAR
STARTCHAR 00DE
ENCODING 222
SWIDTH 585 0
DWIDTH 24 0
BBX 20 30 3 0
BITMAP
E00000
E00000
E00000
E00000
E00000
FFF000
FFFF00
FFFFC0
E007E0
E001E0
E000F0
E00070
E00070
E00070
E00070
E00070
E00070
E000F0
E000E0
E003E0
FFFFC0
FFFF80
FFFC00
E00000
E00000
E00000
E00000
E00000
E00000
E00000
ENDCHAR
STARTCHAR 00DF
ENCODING 223
SWIDTH 560 0
DWIDTH 23 0
BBX 19 32 2 -1
BITMAP
03F000
0FFC00
1FFE00
3C0F00
380780
700380
700380
700380
700380
F00380
E00380
E00380
E00780
E00F00
E1FE00
E1FE00
E1FF80
E00FC0
E003C0
E001E0
E000E0
E000E0
E000E0
FC00E0
FC00E0
FC00E0
FE00E0
EE01C0
EF03C0
E7FF80
E3FF00
00FC00
ENDCHAR
STARTCHAR 00E0
ENCODING 224
SWIDTH 682 0
DWIDTH 28 0
BBX 23 32 2 -1
BITMAP
030000
03C000
03F000
00F800
003C00
001C00
000000
000000
00FE00
03FF8E
0FFFCE
1F01EE
3C007E
38003E
70001E
70001E
E0000E
E0000E
E0000E
E0000E
E0000E
E0000E
E0000E
F0000E
F0001E
78001E
78003E
3E007E
1F01FE
0FFFEE
03FF8E
00FE00
ENDCHAR
STARTCHAR 00E1
ENCODING 225
SWIDTH 682 0
DWIDTH 28 0
BBX 23 32 2 -1
BITMAP
000180
000780
001F80
003E00
007800
007000
000000
000000
00FE00
03FF8E
0FFFCE
1F01EE
3C007E
38003E
70001E
70001E
E0000E
E0000E
E0000E
E0000E
E0000E
E0000E
E0000E
F0000E
F0001E
78001E
78003E
3E007E
1F01FE
0FFFEE
03FF8E
00FE00
ENDCHAR
STARTCHAR 00E2
ENCODING 226
SWIDTH 682 0
DWIDTH 28 0
BBX 23 31 2 -1
BITMAP
003C00
00FE00
01EF00
03C780
0783C0
000000
000000
00FE00
03FF8E
0FFFCE
1F01EE
3C007E
38003E
70001E
70001E
E0000E
E0000E
E0000E
E0000E
E0000E
E0000E
E0000E
F0000E
F0001E
78001E
78003E
3E007E
1F01FE
0FFFEE
03FF8E
00FE00
ENDCHAR
STARTCHAR 00E3
ENCODING 227
SWIDTH 682 0
DWIDTH 28 0
BBX 23 31 2 -1
BITMAP
01E000
03F980
03FF80
031F80
000200
000000
000000
00FE00
03FF8E
0FFFCE
1F01EE
3C007E
38003E
70001E
70001E
E0000E
E0000E
E0000E
E0000E
E0000E
E0000E
E0000E
F0000E
F0001E
78001E
78003E
3E007E
1F01FE
0FFFEE
03FF8E
00FE00
ENDCHAR
STARTCHAR 00E4
ENCODING 228
SWIDTH 682 0
DWIDTH 28 0
BBX 23 31 2 -1
BITMAP
01C700
01C700
01C700
01C700
01C700
000000
000000
00FE00
03FF8E
0FFFCE
1F01EE
3C007E
38003E
70001E
70001E
E0000E
E0000E
E0000E
E0000E
E0000E
E0000E
E0000E
F0000E
F0001E
78001E
78003E
3E007E
1F01FE
0FFFEE
03FF8E
00FE00
ENDCHAR
STARTCHAR 00E5
ENCODING 229
SWIDTH 682 0
DWIDTH 28 0
BBX 23 34 2 -1
BITMAP
003C00
00FE00
00C600
018300
018300
00C600
00FE00
003800
000000
000000
00FE00
03FF8E
0FFFCE
1F01EE
3C007E
38003E
70001E
70001E
E0000E
E0000E
E0000E
E0000E
E0000E
E0000E
E0000E
F0000E
70001E
78001E
78003E
3E007E
1F01FE
0FFFEE
03FF8E
00FE00
ENDCHAR
STARTCHAR 00E6
ENCODING 230
SWIDTH 1146 0
DWIDTH 47 0
BBX 44 24 2 -1
BITMAP
00FE0007F000
03FF8E1FFC00
0FFFEE7FFF00
1F01FEF80F80
3C007FE007C0
38003FC001C0
70001F8001E0
70000F8000E0
E0000F0000E0
E0000F000070
E0000FFFFFF0
E00007FFFFF0
E00007FFFFF0
E0000F000000
E0000F000000
F0000F000000
70001F8000E0
78001F8001E0
78003FC001C0
3E007EE00380
1F01FEF80F80
0FFFEE7FFF00
03FF8E1FFC00
00FE0007F000
ENDCHAR
STARTCHAR 00E7
ENCODING 231
SWIDTH 658 0
DWIDTH 27 0
BBX 23 33 2 -10
BITMAP
00FE00
03FFC0
0FFFE0
1F01F0
3C0078
38003C
70001E
700000
E00000
E00000
E00000
E00000
E00000
E00000
E00000
F00000
70001E
78001C
3C003C
1E00F8
0FC3F0
07FFE0
01FF80
001800
001800
003E00
007F00
003380
000180
000180
007380
007F00
003E00
ENDCHAR
STARTCHAR 00E8
ENCODING 232
SWIDTH 658 0
DWIDTH 27 0
BBX 23 32 2 -1
BITMAP
030000
07C000
03E000
00F800
007C00
001C00
000000
000000
00FE00
03FF80
0FFFE0
1F01F0
3C0078
380038
70003C
70001C
E0001E
E0000E
FFFFFE
FFFFFE
FFFFFE
E00000
E00000
E00000
70001C
70001C
380038
3C0078
1F01F0
0FFFE0
03FF80
00FE00
ENDCHAR
STARTCHAR 00E9
ENCODING 233
SWIDTH 658 0
DWIDTH 27 0
BBX 23 32 2 -1
BITMAP
000180
000780
001F80
003E00
00F800
007000
000000
000000
00FE00
03FF80
0FFFE0
1F01F0
3C0078
380038
70003C
70001C
E0001E
E0000E
FFFFFE
FFFFFE
FFFFFE
E00000
E00000
E00000
70001C
70001C
380038
3C0078
1F01F0
0FFFE0
03FF80
00FE00
ENDCHAR
STARTCHAR 00EA
ENCODING 234
SWIDTH 658 0
DWIDTH 27 0
BBX 23 31 2 -1
BITMAP
007800
00FE00
01EF00
03C780
0783C0
000000
000000
00FE00
03FF80
0FFFE0
1F01F0
3C0078
380038
70003C
70001C
E0001E
E0000E
FFFFFE
FFFFFE
FFFFFE
E00000
E00000
E00000
70001C
70001C
380038
3C0078
1F01F0
0FFFE0
03FF80
00FE00
ENDCHAR
STARTCHAR 00EB
ENCODING 235
SWIDTH 658 0
DWIDTH 27 0
BBX 23 31 2 -1
BITMAP
01C700
01C700
01C700
01C700
01C700
000000
000000
00FE00
03FF80
0FFFE0
1F01F0
3C0078
380038
70003C
70001C
E0001E
E0000E
FFFFFE
FFFFFE
FFFFFE
E00000
E00000
E00000
70001C
70001C
380038
3C0078
1F01F0
0FFFE0
03FF80
00FE00
ENDCHAR
STARTCHAR 00EC
ENCODING 236
SWIDTH 195 0
DWIDTH 8 0
BBX 9 31 -2 0
BITMAP
4000
F000
F800
3E00
1F80
0780
0100
0000
0000
0700
0700
0700
0700
0700
0700
0700
0700
0700
0700
0700
0700
0700
0700
0700
0700
0700
0700
0700
0700
0700
0700
ENDCHAR
STARTCHAR 00ED
ENCODING 237
SWIDTH 195 0
DWIDTH 8 0
BBX 8 31 2 0
BITMAP
02
07
1F
7E
F8
E0
C0
00
00
70
70
70
70
70
70
70
70
70
70
70
70
70
70
70
70
70
70
70
70
70
70
ENDCHAR
STARTCHAR 00EE
ENCODING 238
SWIDTH 195 0
DWIDTH 8 0
BBX 14 30 -3 0
BITMAP
0380
0FC0
1FE0
3CF0
7878
F01C
0000
0000
0380
0380
0380
0380
0380
0380
0380
0380
0380
0380
0380
0380
0380
0380
0380
0380
0380
0380
0380
0380
0380
0380
ENDCHAR
STARTCHAR 00EF
ENCODING 239
SWIDTH 195 0
DWIDTH 8 0
BBX 9 30 0 0
BITMAP
E380
E380
E380
E380
E380
0000
0000
0000
1C00
1C00
1C00
1C00
1C00
1C00
1C00
1C00
1C00
1C00
1C00
1C00
1C00
1C00
1C00
1C00
1C00
1C00
1C00
1C00
1C00
1C00
ENDCHAR
STARTCHAR 00F0
ENCODING 240
SWIDTH 658 0
DWIDTH 27 0
BBX 23 31 2 0
BITMAP
01C300
00FF80
007E00
01FC00
03DE00
010F00
000380
00FDC0
07FFE0
0FFFF0
1F01F8
3C0078
78003C
70001C
F0001E
E0001E
E0000E
E0000E
E0000E
E0000E
E0000E
E0000E
E0000E
70001C
70001C
780038
3C0078
1F01F0
0FFFE0
03FF80
00FE00
ENDCHAR
STARTCHAR 00F1
ENCODING 241
SWIDTH 609 0
DWIDTH 25 0
BBX 19 30 3 0
BITMAP
078000
0FE600
0FFE00
0C7E00
080800
000000
000000
01F800
E7FE00
EFFF80
FC0780
F803C0
F001E0
E000E0
E000E0
E000E0
E000E0
E000E0
E000E0
E000E0
E000E0
E000E0
E000E0
E000E0
E000E0
E000E0
E000E0
E000E0
E000E0
E000E0
ENDCHAR
STARTCHAR 00F2
ENCODING 242
SWIDTH 658 0
DWIDTH 27 0
BBX 23 32 2 -1
BITMAP
030000
07C000
03F000
00F800
003C00
001C00
000000
000000
00FE00
03FF80
0FFFE0
1F01F0
3C0078
380038
70003C
70001C
E0001E
E0000E
E0000E
E0000E
E0000E
E0000E
E0000E
E0000E
70001C
70001C
380038
3C0078
1F01F0
0FFFE0
03FF80
00FE00
ENDCHAR
STARTCHAR 00F3
ENCODING 243
SWIDTH 658 0
DWIDTH 27 0
BBX 23 32 2 -1
BITMAP
000180
000780
001F80
003E00
00F800
007000
000000
000000
00FE00
03FF80
0FFFE0
1F01F0
3C0078
380038
70003C
70001C
E0001E
E0000E
E0000E
E0000E
E0000E
E0000E
E0000E
E0000E
70001C
70001C
380038
3C0078
1F01F0
0FFFE0
03FF80
00FE00
ENDCHAR
STARTCHAR 00F4
ENCODING 244
SWIDTH 658 0
DWIDTH 27 0
BBX 23 31 2 -1
BITMAP
007C00
00FE00
01EF00
03C780
0783C0
000000
000000
00FE00
03FF80
0FFFE0
1F01F0
3C0078
380038
70003C
70001C
E0001E
E0000E
E0000E
E0000E
E0000E
E0000E
E0000E
E0000E
70001C
70001C
380038
3C0078
1F01F0
0FFFE0
03FF80
00FE00
ENDCHAR
STARTCHAR 00F5
ENCODING 245
SWIDTH 658 0
DWIDTH 27 0
BBX 23 31 2 -1
BITMAP
01E000
03F980
03FF80
031F80
000200
000000
000000
00FE00
03FF80
0FFFE0
1F01F0
3C0078
380038
70003C
70001C
E0001E
E0000E
E0000E
E0000E
E0000E
E0000E
E0000E
E0000E
70001C
70001C
380038
3C0078
1F01F0
0FFFE0
03FF80
00FE00
ENDCHAR
STARTCHAR 00F6
ENCODING 246
SWIDTH 658 0
DWIDTH 27 0
BBX 23 31 2 -1
BITMAP
01C700
01C700
01C700
01C700
01C700
000000
000000
00FE00
03FF80
0FFFE0
1F01F0
3C0078
380038
70003C
70001C
E0001E
E0000E
E0000E
E0000E
E0000E
E0000E
E0000E
E0000E
70001C
70001C
380038
3C0078
1F01F0
0FFFE0
03FF80
00FE00
ENDCHAR
STARTCHAR 00F7
ENCODING 247
SWIDTH 731 0
DWIDTH 30 0
BBX 23 22 3 -1
BITMAP
003800
003800
003800
003800
003800
000000
000000
000000
000000
FFFFFE
FFFFFE
FFFFFE
000000
000000
000000
000000
000000
003800
003800
003800
003800
003800
ENDCHAR
STARTCHAR 00F8
ENCODING 248
SWIDTH 658 0
DWIDTH 27 0
BBX 23 26 2 -2
BITMAP
000018
00FE3C
03FFB8
0FFFF0
1F01F0
3C01F8
3801F8
78039C
70079C
E00F0E
E00E0E
E01C0E
E0380E
E0780E
E0700E
E0E00E
E1C01E
F3C01C
73803C
7F0038
3E0078
1F01F0
3FFFE0
3BFF80
70FE00
300000
ENDCHAR
STARTCHAR 00F9
ENCODING 249
SWIDTH 609 0
DWIDTH 25 0
BBX 19 32 3 -1
BITMAP
080000
0E0000
1F8000
07C000
01F000
00F000
002000
000000
000000
E000E0
E000E0
E000E0
E000E0
E000E0
E000E0
E000E0
E000E0
E000E0
E000E0
E000E0
E000E0
E000E0
E000E0
E000E0
E000E0
E001E0
F001E0
7803E0
7C07E0
3FFEE0
1FFCE0
03F000
ENDCHAR
STARTCHAR 00FA
ENCODING 250
SWIDTH 609 0
DWIDTH 25 0
BBX 19 32 3 -1
BITMAP
000600
000E00
003F00
00FC00
01F000
01C000
018000
000000
000000
E000E0
E000E0
E000E0
E000E0
E000E0
E000E0
E000E0
E000E0
E000E0
E000E0
E000E0
E000E0
E000E0
E000E0
E000E0
E000E0
E001E0
F001E0
7803E0
7C07E0
3FFEE0
1FFCE0
03F000
ENDCHAR
STARTCHAR 00FB
ENCODING 251
SWIDTH 609 0
DWIDTH 25 0
BBX 19 31 3 -1
BITMAP
00E000
01F000
03F800
071C00
1E0F00
3C0780
000000
000000
E000E0
E000E0
E000E0
E000E0
E000E0
E000E0
E000E0
E000E0
E000E0
E000E0
E000E0
E000E0
E000E0
E000E0
E000E0
E000E0
E001E0
F001E0
7803E0
7C07E0
3FFEE0
1FFCE0
03F000
ENDCHAR
STARTCHAR 00FC
ENCODING 252
SWIDTH 609 0
DWIDTH 25 0
BBX 19 31 3 -1
BITMAP
071C00
071C00
071C00
071C00
071C00
000000
000000
000000
E000E0
E000E0
E000E0
E000E0
E000E0
E000E0
E000E0
E000E0
E000E0
E000E0
E000E0
E000E0
E000E0
E000E0
E000E0
E000E0
E001E0
F001E0
7803E0
7C07E0
3FFEE0
1FFCE0
03F000
ENDCHAR
STARTCHAR 00FD
ENCODING 253
SWIDTH 536 0
DWIDTH 22 0
BBX 20 39 1 -8
BITMAP
000200
000F00
001F00
007C00
01F800
01E000
008000
000000
000000
E00070
E00070
F000F0
7000E0
7801E0
3801C0
3801C0
3C0380
1C0380
1E0700
0E0700
0E0F00
0F0E00
070E00
079C00
039C00
03B800
03F800
01F800
01F000
00F000
00E000
00E000
01C000
01C000
03C000
038000
078000
070000
070000
ENDCHAR
STARTCHAR 00FE
ENCODING 254
SWIDTH 682 0
DWIDTH 28 0
BBX 23 38 3 -8
BITMAP
E00000
E00000
E00000
E00000
E00000
E00000
E00000
E0FE00
E3FF80
EFFFE0
FF01F0
FC0078
F80038
F0003C
F0001C
E0000E
E0000E
E0000E
C0000E
C0000E
E0000E
E0000E
E0000E
F0001C
F0001C
F80038
FC0078
FF01F0
EFFFE0
E3FF80
E0FE00
E00000
E00000
E00000
E00000
E00000
E00000
E00000
ENDCHAR
STARTCHAR 00FF
ENCODING 255
SWIDTH 536 0
DWIDTH 22 0
BBX 20 38 1 -8
BITMAP
079E00
079E00
079E00
079E00
079E00
000000
000000
000000
E00070
E00070
F000F0
7000E0
7801E0
3801C0
3801C0
3C0380
1C0380
1E0700
0E0700
0E0F00
0F0E00
070E00
079C00
039C00
03B800
03F800
01F800
01F000
00F000
00E000
00E000
01C000
01C000
03C000
038000
078000
070000
070000
ENDCHAR
STARTCHAR 0100
ENCODING 256
SWIDTH 731 0
DWIDTH 30 0
BBX 29 36 1 0
BITMAP
01FFF800
01FFF800
01FFF800
00000000
00000000
00000000
000F0000
000F8000
001F8000
001F8000
003DC000
0039C000
0039E000
0070E000
0070F000
00F07000
00E07000
01E03800
01C03800
01C03C00
03801C00
03801E00
07800E00
07FFFE00
0FFFFF00
0FFFFF00
0E000780
1C000380
1C0003C0
3C0001C0
380001C0
780000E0
700000E0
700000F0
E0000070
E0000078
ENDCHAR
STARTCHAR 0101
ENCODING 257
SWIDTH 682 0
DWIDTH 28 0
BBX 23 30 2 -1
BITMAP
07FFC0
07FFC0
07FFC0
000000
000000
000000
00FE00
03FF8E
0FFFCE
1F01EE
3C007E
38003E
70001E
70001E
E0000E
E0000E
E0000E
E0000E
E0000E
E0000E
E0000E
F0000E
70001E
78001E
78003E
3E007E
1F01FE
0FFFEE
03FF8E
00FE00
ENDCHAR
STARTCHAR 0102
ENCODING 258
SWIDTH 731 0
DWIDTH 30 0
BBX 29 37 1 0
BITMAP
00E03000
00E07000
0079F000
003FE000
001F8000
00000000
00000000
000F0000
000F8000
001F8000
001F8000
003DC000
0039C000
0039E000
0070E000
0070F000
00F07000
00E07000
01E03800
01C03800
01C03C00
03801C00
03801E00
07800E00
07FFFE00
0FFFFF00
0FFFFF00
0E000780
1C000380
1C0003C0
3C0001C0
380001C0
780000E0
700000E0
700000F0
E0000070
E0000078
ENDCHAR
STARTCHAR 0103
ENCODING 259
SWIDTH 682 0
DWIDTH 28 0
BBX 23 31 2 -1
BITMAP
0701C0
038180
03CF80
01FF00
00FC00
000000
000000
00FE00
03FF8E
0FFFCE
1F01EE
3C007E
38003E
70001E
70001E
E0000E
E0000E
E0000E
E0000E
E0000E
E0000E
E0000E
F0000E
F0001E
78001E
78003E
3E007E
1F01FE
0FFFEE
03FF8E
00FE00
ENDCHAR
STARTCHAR 0104
ENCODING 260
SWIDTH 731 0
DWIDTH 30 0
BBX 29 40 1 -10
BITMAP
000F0000
000F8000
001F8000
001F8000
003DC000
0039C000
0039E000
0070E000
0070F000
00F07000
00E07000
01E03800
01C03800
01C03C00
03801C00
03801E00
07800E00
07FFFE00
0FFFFF00
0FFFFF00
0E000780
1C000380
1C0003C0
3C0001C0
380001C0
780000E0
700000E0
700000F0
E0000070
E0000078
00000070
000000E0
000001C0
000001C0
00000380
000003C0
000001C0
000001F8
000000F8
00000078
ENDCHAR
STARTCHAR 0105
ENCODING 261
SWIDTH 682 0
DWIDTH 28 0
BBX 24 34 2 -11
BITMAP
00FE00
03FF8E
0FFFCE
1F01EE
3C007E
38003E
70001E
70001E
E0000E
E0000E
E0000E
E0000E
E0000E
E0000E
E0000E
F0000E
F0001E
78001E
78003E
3E007E
1F01FE
0FFFEE
03FF8E
00FE0E
00001C
000038
000038
000070
000070
000070
000078
00003F
00003F
00000F
ENDCHAR
STARTCHAR 0106
ENCODING 262
SWIDTH 804 0
DWIDTH 33 0
BBX 29 40 2 -1
BITMAP
00001800
00003800
0000F800
0003F000
0007C000
00070000
00060000
00000000
000FF000
007FFC00
01FFFF00
03F00FC0
078003E0
0F0001E0
1E0000F0
3C000078
38000038
78000000
70000000
F0000000
E0000000
E0000000
E0000000
E0000000
E0000000
E0000000
E0000000
E0000000
F0000000
70000000
78000000
78000000
3C000078
1E000070
1F0001F0
0F8003E0
07F00FC0
01FFFF00
007FFE00
001FF000
ENDCHAR
STARTCHAR 0107
ENCODING 263
SWIDTH 658 0
DWIDTH 27 0
BBX 23 32 2 -1
BITMAP
000180
0007C0
000F80
003E00
007C00
007000
000000
000000
00FE00
03FFC0
0FFFE0
1F01F0
3C0078
38003C
78001C
700000
E00000
E00000
E00000
E00000
E00000
E00000
E00000
E00000
700000
78001E
38003C
3E0078
1F01F0
0FFFE0
03FFC0
00FF00
ENDCHAR
STARTCHAR 0108
ENCODING 264
SWIDTH 804 0
DWIDTH 33 0
BBX 29 39 2 -1
BITMAP
00038000
0007C000
000FE000
001C7800
00783C00
00000000
00000000
000FF000
007FFC00
01FFFF00
03F00FC0
078003E0
0F0001E0
1E0000F0
3C000078
38000038
78000000
70000000
F0000000
E0000000
E0000000
E0000000
E0000000
E0000000
E0000000
E0000000
E0000000
F0000000
70000000
78000000
78000000
3C000078
1E000070
1F0001F0
0F8003E0
07F00FC0
01FFFF00
007FFE00
001FF000
ENDCHAR
STARTCHAR 0109
ENCODING 265
SWIDTH 658 0
DWIDTH 27 0
BBX 23 31 2 -1
BITMAP
003C00
007E00
01EF00
03C780
0781C0
000000
000000
00FE00
03FFC0
0FFFE0
1F01F0
3C0078
38003C
78001C
700000
E00000
E00000
E00000
E00000
E00000
E00000
E00000
E00000
700000
78001E
38003C
3E0078
1F01F0
0FFFE0
03FFC0
00FF00
ENDCHAR
STARTCHAR 010A
ENCODING 266
SWIDTH 804 0
DWIDTH 33 0
BBX 29 39 2 -1
BITMAP
00038000
00038000
00038000
00038000
00038000
00000000
00000000
000FF000
007FFC00
01FFFF00
03F00FC0
078003E0
0F0001E0
1E0000F0
3C000078
38000038
78000000
70000000
F0000000
E0000000
E0000000
E0000000
E0000000
E0000000
E0000000
E0000000
E0000000
F0000000
70000000
78000000
78000000
3C000078
1E000070
1F0001F0
0F8003E0
07F00FC0
01FFFF00
007FFE00
001FF000
ENDCHAR
STARTCHAR 010B
ENCODING 267
SWIDTH 658 0
DWIDTH 27 0
BBX 23 31 2 -1
BITMAP
003800
003800
003800
003800
003800
000000
000000
00FE00
03FFC0
0FFFE0
1F01F0
3C0078
38003C
78001C
700000
E00000
E00000
E00000
E00000
E00000
E00000
E00000
E00000
700000
78001E
38003C
3E0078
1F01F0
0FFFE0
03FFC0
00FF00
ENDCHAR
STARTCHAR 010C
ENCODING 268
SWIDTH 804 0
DWIDTH 33 0
BBX 29 39 2 -1
BITMAP
00F01E00
00383800
001CF000
000FE000
0007C000
00000000
00000000
000FF000
007FFC00
01FFFF00
03F00FC0
078003E0
0F0001E0
1E0000F0
3C000078
38000038
78000000
70000000
F0000000
E0000000
E0000000
E0000000
E0000000
E0000000
E0000000
E0000000
E0000000
F0000000
70000000
78000000
78000000
3C000078
1E000070
1F0001F0
0F8003E0
07F00FC0
01FFFF00
007FFE00
001FF000
ENDCHAR
STARTCHAR 010D
ENCODING 269
SWIDTH 658 0
DWIDTH 27 0
BBX 23 31 2 -1
BITMAP
0781C0
03C780
01EF00
007E00
003C00
000000
000000
00FE00
03FFC0
0FFFE0
1F01F0
3C0078
38003C
78001C
700000
E00000
E00000
E00000
E00000
E00000
E00000
E00000
E00000
700000
78001E
38003C
3E0078
1F01F0
0FFFE0
03FFC0
00FF00
ENDCHAR
STARTCHAR 010E
ENCODING 270
SWIDTH 756 0
DWIDTH 31 0
BBX 26 37 3 0
BITMAP
1C0F0000
0F1C0000
07B80000
03F00000
01E00000
00000000
00000000
FFFC0000
FFFF8000
FFFFE000
E003F800
E0007C00
E0003E00
E0001E00
E0000F00
E0000700
E0000780
E0000380
E0000380
E00003C0
E00001C0
E00001C0
E00001C0
E00001C0
E00003C0
E0000380
E0000380
E0000780
E0000700
E0000F00
E0001E00
E0003E00
E0007C00
E003F800
FFFFE000
FFFF8000
FFF80000
ENDCHAR
STARTCHAR 010F
ENCODING 271
SWIDTH 682 0
DWIDTH 28 0
BBX 31 31 2 -1
BITMAP
00000F0E
00000F0E
00000F1C
00000F1C
00000F1C
00000F38
00000F38
00FE0F00
03FF8F00
0FFFEF00
1F01FF00
3C007F00
38003F00
70001F00
70000F00
E0000F00
E0000F00
E0000F00
E0000700
E0000700
E0000F00
E0000F00
E0000F00
70001F00
78001F00
38003F00
3E007F00
1F01FF00
0FFFEF00
03FF8F00
00FE0000
ENDCHAR
STARTCHAR 0110
ENCODING 272
SWIDTH 780 0
DWIDTH 32 0
BBX 30 30 1 0
BITMAP
0FFFC000
0FFFF800
0FFFFE00
0E003F00
0E0007C0
0E0003C0
0E0001E0
0E0000F0
0E000070
0E000078
0E000038
0E000038
0E000038
FFFE003C
FFFE003C
FFFE003C
0E00003C
0E000038
0E000038
0E000038
0E000078
0E000070
0E0000F0
0E0001E0
0E0003E0
0E0007C0
0E003F00
0FFFFE00
0FFFF800
0FFF8000
ENDCHAR
STARTCHAR 0111
ENCODING 273
SWIDTH 682 0
DWIDTH 28 0
BBX 26 31 2 -1
BITMAP
00000F00
00000F00
00000F00
0003FFC0
0003FFC0
0003FFC0
00000F00
00FE0F00
03FF8F00
0FFFEF00
1F01FF00
3C007F00
38003F00
70001F00
70000F00
E0000F00
E0000F00
E0000F00
E0000700
E0000700
E0000F00
E0000F00
E0000F00
70001F00
78001F00
38003F00
3E007F00
1F01FF00
0FFFEF00
03FF8F00
00FE0000
ENDCHAR
STARTCHAR 0112
ENCODING 274
SWIDTH 536 0
DWIDTH 22 0
BBX 17 36 3 0
BITMAP
7FFE00
7FFE00
7FFE00
000000
000000
000000
FFFF80
FFFF80
FFFF80
E00000
E00000
E00000
E00000
E00000
E00000
E00000
E00000
E00000
E00000
FFFF00
FFFF00
FFFF00
E00000
E00000
E00000
E00000
E00000
E00000
E00000
E00000
E00000
E00000
E00000
FFFF80
FFFF80
FFFF80
ENDCHAR
STARTCHAR 0113
ENCODING 275
SWIDTH 658 0
DWIDTH 27 0
BBX 23 30 2 -1
BITMAP
0FFFC0
0FFFC0
0FFFC0
000000
000000
000000
00FE00
03FF80
0FFFE0
1F01F0
3C0078
380038
70003C
70001C
E0001E
E0000E
FFFFFE
FFFFFE
FFFFFE
E00000
E00000
E00000
70001C
70001C
380038
3C0078
1F01F0
0FFFE0
03FF80
00FE00
ENDCHAR
STARTCHAR 0114
ENCODING 276
SWIDTH 536 0
DWIDTH 22 0
BBX 17 37 3 0
BITMAP
380E00
181C00
1E7C00
0FF800
07E000
000000
000000
FFFF80
FFFF80
FFFF80
E00000
E00000
E00000
E00000
E00000
E00000
E00000
E00000
E00000
E00000
FFFF00
FFFF00
FFFF00
E00000
E00000
E00000
E00000
E00000
E00000
E00000
E00000
E00000
E00000
E00000
FFFF80
FFFF80
FFFF80
ENDCHAR
STARTCHAR 0115
ENCODING 277
SWIDTH 658 0
DWIDTH 27 0
BBX 23 31 2 -1
BITMAP
070180
070380
03CF80
01FF00
00FC00
000000
000000
00FE00
03FF80
0FFFE0
1F01F0
3C0078
380038
70003C
70001C
E0001E
E0000E
FFFFFE
FFFFFE
FFFFFE
E00000
E00000
E00000
70001C
70001C
380038
3C0078
1F01F0
0FFFE0
03FF80
00FE00
ENDCHAR
STARTCHAR 0116
ENCODING 278
SWIDTH 536 0
DWIDTH 22 0
BBX 17 37 3 0
BITMAP
01C000
01C000
01C000
01C000
01C000
000000
000000
FFFF80
FFFF80
FFFF80
E00000
E00000
E00000
E00000
E00000
E00000
E00000
E00000
E00000
E00000
FFFF00
FFFF00
FFFF00
E00000
E00000
E00000
E00000
E00000
E00000
E00000
E00000
E00000
E00000
E00000
FFFF80
FFFF80
FFFF80
ENDCHAR
STARTCHAR 0117
ENCODING 279
SWIDTH 658 0
DWIDTH 27 0
BBX 23 31 2 -1
BITMAP
003800
003800
003800
003800
003800
000000
000000
00FE00
03FF80
0FFFE0
1F01F0
3C0078
380038
70003C
70001C
E0001E
E0000E
FFFFFE
FFFFFE
FFFFFE
E00000
E00000
E00000
70001C
70001C
380038
3C0078
1F01F0
0FFFE0
03FF80
00FE00
ENDCHAR
STARTCHAR 0118
ENCODING 280
SWIDTH 536 0
DWIDTH 22 0
BBX 17 40 3 -10
BITMAP
FFFF80
FFFF80
FFFF80
E00000
E00000
E00000
E00000
E00000
E00000
E00000
E00000
E00000
E00000
FFFF00
FFFF00
FFFF00
E00000
E00000
E00000
E00000
E00000
E00000
E00000
E00000
E00000
E00000
E00000
FFFF80
FFFF80
FFFF80
000700
000E00
001C00
003800
003800
003800
003C00
001F80
000F80
000780
ENDCHAR
STARTCHAR 0119
ENCODING 281
SWIDTH 658 0
DWIDTH 27 0
BBX 23 34 2 -11
BITMAP
00FE00
03FF80
0FFFE0
1F01F0
3C0078
380038
70003C
70001C
E0001E
E0000E
FFFFFE
FFFFFE
FFFFFE
E00000
E00000
E00000
70001C
70001C
380038
3C0078
1F01F0
0FFFE0
03FF80
00FF00
001C00
003800
003800
007000
007000
007000
007800
003F00
001F00
000F00
ENDCHAR
STARTCHAR 011A
ENCODING 282
SWIDTH 536 0
DWIDTH 22 0
BBX 17 37 3 0
BITMAP
3C1E00
1E3C00
0F7800
07E000
03C000
000000
000000
FFFF80
FFFF80
FFFF80
E00000
E00000
E00000
E00000
E00000
E00000
E00000
E00000
E00000
E00000
FFFF00
FFFF00
FFFF00
E00000
E00000
E00000
E00000
E00000
E00000
E00000
E00000
E00000
E00000
E00000
FFFF80
FFFF80
FFFF80
ENDCHAR
STARTCHAR 011B
ENCODING 283
SWIDTH 658 0
DWIDTH 27 0
BBX 23 31 2 -1
BITMAP
0703C0
03C780
01EF00
00FC00
007800
000000
000000
00FE00
03FF80
0FFFE0
1F01F0
3C0078
380038
70003C
70001C
E0001E
E0000E
FFFFFE
FFFFFE
FFFFFE
E00000
E00000
E00000
70001C
70001C
380038
3C0078
1F01F0
0FFFE0
03FF80
00FE00
ENDCHAR
STARTCHAR 011C
ENCODING 284
SWIDTH 878 0
DWIDTH 36 0
BBX 32 39 2 -1
BITMAP
00038000
0007E000
000FF000
001E7800
003C3C00
00400200
00000000
000FF000
007FFE00
01FFFF80
03F00FC0
078001F0
0F0000F0
1E000078
3C00003C
3800001C
78000000
70000000
F0000000
E0000000
E0000000
E0000000
E0000000
E0000000
E01FFFFF
E01FFFFF
E01FFFFF
F000000F
7000000E
7800000E
3800001C
3C00003C
1E000078
0F0000F0
07C001E0
03F00FC0
01FFFF80
007FFE00
000FF000
ENDCHAR
STARTCHAR 011D
ENCODING 285
SWIDTH 682 0
DWIDTH 28 0
BBX 23 39 2 -9
BITMAP
007800
00FC00
01EF00
03C780
0703C0
080000
000000
00FE00
03FF8E
0FFFCE
1F01EE
3C00FE
38003E
70003E
70001E
E0001E
E0000E
E0000E
E0000E
E0000E
E0000E
E0000E
E0001E
F0001E
78003E
78003E
3C007E
1F01EE
0FFFCE
03FF8E
00FE0E
70001E
70001C
38003C
3C0078
1F00F8
0FFFE0
07FFC0
00FE00
ENDCHAR
STARTCHAR 011E
ENCODING 286
SWIDTH 878 0
DWIDTH 36 0
BBX 32 39 2 -1
BITMAP
00301C00
00381C00
003C3800
001FF800
000FF000
00000000
00000000
000FF000
007FFE00
01FFFF80
03F00FC0
078001F0
0F0000F0
1E000078
3C00003C
3800001C
78000000
70000000
F0000000
E0000000
E0000000
E0000000
E0000000
E0000000
E01FFFFF
E01FFFFF
E01FFFFF
F000000F
7000000E
7800000E
3800001C
3C00003C
1E000078
0F0000F0
07C001E0
03F00FC0
01FFFF80
007FFE00
000FF000
ENDCHAR
STARTCHAR 011F
ENCODING 287
SWIDTH 682 0
DWIDTH 28 0
BBX 23 39 2 -9
BITMAP
070180
070380
03CF80
01FF00
00FC00
000000
000000
00FE00
03FF8E
0FFFCE
1F01EE
3C00FE
38003E
70003E
70001E
E0001E
E0000E
E0000E
E0000E
E0000E
E0000E
E0000E
E0001E
F0001E
78003E
78003E
3C007E
1F01EE
0FFFCE
03FF8E
00FE0E
70001E
70001C
38003C
3C0078
1F00F8
0FFFE0
07FFC0
00FE00
ENDCHAR
STARTCHAR 0120
ENCODING 288
SWIDTH 878 0
DWIDTH 36 0
BBX 32 39 2 -1
BITMAP
00038000
00038000
00038000
00038000
00038000
00000000
00000000
000FF000
007FFE00
01FFFF80
03F00FC0
078001F0
0F0000F0
1E000078
3C00003C
3800001C
78000000
70000000
F0000000
E0000000
E0000000
E0000000
E0000000
E0000000
E01FFFFF
E01FFFFF
E01FFFFF
F000000F
7000000E
7800000E
3800001C
3C00003C
1E000078
0F0000F0
07C001E0
03F00FC0
01FFFF80
007FFE00
000FF000
ENDCHAR
STARTCHAR 0121
ENCODING 289
SWIDTH 682 0
DWIDTH 28 0
BBX 23 39 2 -9
BITMAP
003800
003800
003800
003800
003800
000000
000000
00FE00
03FF8E
0FFFCE
1F01EE
3C00FE
38003E
70003E
70001E
E0001E
E0000E
E0000E
E0000E
E0000E
E0000E
E0000E
E0001E
F0001E
78003E
78003E
3C007E
1F01EE
0FFFCE
03FF8E
00FE0E
70001E
70001C
38003C
3C0078
1F00F8
0FFFE0
07FFC0
00FE00
ENDCHAR
STARTCHAR 0122
ENCODING 290
SWIDTH 878 0
DWIDTH 36 0
BBX 32 41 2 -10
BITMAP
000FF000
007FFE00
01FFFF80
03F00FC0
078001F0
0F0000F0
1E000078
3C00003C
3800001C
78000000
70000000
F0000000
E0000000
E0000000
E0000000
E0000000
E0000000
E01FFFFF
E01FFFFF
E01FFFFF
F000000F
7000000E
7800000E
3800001C
3C00003C
1E000078
0F0000F0
07C001E0
03F00FC0
01FFFF80
007FFE00
000FF000
00000000
00000000
0001C000
00038000
00038000
00038000
00070000
00070000
00070000
ENDCHAR
STARTCHAR 0123
ENCODING 291
SWIDTH 682 0
DWIDTH 28 0
BBX 23 41 2 -9
BITMAP
003800
003800
003800
003800
007000
007000
007000
000000
000000
00FE00
03FF8E
0FFFCE
1F01EE
3C00FE
38003E
70003E
70001E
E0001E
E0000E
E0000E
E0000E
E0000E
E0000E
E0000E
E0001E
F0001E
78003E
78003E
3C007E
1F01EE
0FFFCE
03FF8E
00FE0E
70001E
70001C
38003C
3C0078
1F00F8
0FFFE0
07FFC0
00FE00
ENDCHAR
STARTCHAR 0124
ENCODING 292
SWIDTH 682 0
DWIDTH 28 0
BBX 22 37 3 0
BITMAP
007800
00FC00
01CE00
078780
0F03C0
000000
000000
E0001C
E0001C
E0001C
E0001C
E0001C
E0001C
E0001C
E0001C
E0001C
E0001C
E0001C
E0001C
E0001C
FFFFFC
FFFFFC
FFFFFC
E0001C
E0001C
E0001C
E0001C
E0001C
E0001C
E0001C
E0001C
E0001C
E0001C
E0001C
E0001C
E0001C
E0001C
ENDCHAR
STARTCHAR 0125
ENCODING 293
SWIDTH 609 0
DWIDTH 25 0
BBX 19 37 3 0
BITMAP
01F000
03F800
07BC00
0F1E00
1E0700
000000
000000
E00000
E00000
E00000
E00000
E00000
E00000
E00000
E1F800
E7FE00
FFFF80
FC07C0
F803C0
F001E0
E000E0
E000E0
E000E0
E000E0
E000E0
E000E0
E000E0
E000E0
E000E0
E000E0
E000E0
E000E0
E000E0
E000E0
E000E0
E000E0
E000E0
ENDCHAR
STARTCHAR 0126
ENCODING 294
SWIDTH 682 0
DWIDTH 28 0
BBX 28 30 0 0
BITMAP
1C000380
1C000380
1C000380
1C000380
FFFFFFF0
FFFFFFF0
FFFFFFF0
1C000380
1C000380
1C000380
1C000380
1C000380
1C000380
1FFFFF80
1FFFFF80
1FFFFF80
1C000380
1C000380
1C000380
1C000380
1C000380
1C000380
1C000380
1C000380
1C000380
1C000380
1C000380
1C000380
1C000380
1C000380
ENDCHAR
STARTCHAR 0127
ENCODING 295
SWIDTH 609 0
DWIDTH 25 0
BBX 22 30 0 0
BITMAP
1C0000
1C0000
FFC000
FFC000
FFC000
1C0000
1C0000
1C3F00
1CFFC0
1FFFF0
1F80F0
1F0078
1E003C
1C001C
1C001C
1C001C
1C001C
1C001C
1C001C
1C001C
1C001C
1C001C
1C001C
1C001C
1C001C
1C001C
1C001C
1C001C
1C001C
1C001C
ENDCHAR
STARTCHAR 0128
ENCODING 296
SWIDTH 219 0
DWIDTH 9 0
BBX 11 37 -1 0
BITMAP
7820
FE60
FFE0
C7E0
0000
0000
0000
0E00
0E00
0E00
0E00
0E00
0E00
0E00
0E00
0E00
0E00
0E00
0E00
0E00
0E00
0E00
0E00
0E00
0E00
0E00
0E00
0E00
0E00
0E00
0E00
0E00
0E00
0E00
0E00
0E00
0E00
ENDCHAR
STARTCHAR 0129
ENCODING 297
SWIDTH 195 0
DWIDTH 8 0
BBX 12 29 -2 1
BITMAP
7C20
FFF0
67F0
41E0
0000
0000
0000
0700
0700
0700
0700
0700
0700
0700
0700
0700
0700
0700
0700
0700
0700
0700
0700
0700
0700
0700
0700
0700
0700
ENDCHAR
STARTCHAR 012A
ENCODING 298
SWIDTH 219 0
DWIDTH 9 0
BBX 14 36 -2 0
BITMAP
FFFC
FFFC
FFFC
0000
0000
0000
0700
0700
0700
0700
0700
0700
0700
0700
0700
0700
0700
0700
0700
0700
0700
0700
0700
0700
0700
0700
0700
0700
0700
0700
0700
0700
0700
0700
0700
0700
ENDCHAR
STARTCHAR 012B
ENCODING 299
SWIDTH 195 0
DWIDTH 8 0
BBX 14 29 -3 0
BITMAP
FFFC
FFFC
FFFC
0000
0000
0000
0000
0380
0380
0380
0380
0380
0380
0380
0380
0380
0380
0380
0380
0380
0380
0380
0380
0380
0380
0380
0380
0380
0380
ENDCHAR
STARTCHAR 012C
ENCODING 300
SWIDTH 219 0
DWIDTH 9 0
BBX 13 37 -2 0
BITMAP
E038
7038
79F0
3FE0
0FC0
0000
0000
0700
0700
0700
0700
0700
0700
0700
0700
0700
0700
0700
0700
0700
0700
0700
0700
0700
0700
0700
0700
0700
0700
0700
0700
0700
0700
0700
0700
0700
0700
ENDCHAR
STARTCHAR 012D
ENCODING 301
SWIDTH 195 0
DWIDTH 8 0
BBX 12 30 -2 0
BITMAP
C030
E070
F0F0
7FE0
3FC0
0000
0000
0000
0700
0700
0700
0700
0700
0700
0700
0700
0700
0700
0700
0700
0700
0700
0700
0700
0700
0700
0700
0700
0700
0700
ENDCHAR
STARTCHAR 012E
ENCODING 302
SWIDTH 219 0
DWIDTH 9 0
BBX 7 40 0 -10
BITMAP
1C
1C
1C
1C
1C
1C
1C
1C
1C
1C
1C
1C
1C
1C
1C
1C
1C
1C
1C
1C
1C
1C
1C
1C
1C
1C
1C
1C
1C
1C
38
70
E0
E0
E0
E0
E0
FE
7E
3E
ENDCHAR
STARTCHAR 012F
ENCODING 303
SWIDTH 195 0
DWIDTH 8 0
BBX 7 40 -1 -10
BITMAP
0E
0E
0E
0E
0E
00
00
00
0E
0E
0E
0E
0E
0E
0E
0E
0E
0E
0E
0E
0E
0E
0E
0E
0E
0E
0E
0E
0E
0E
1C
38
70
E0
E0
E0
F0
7E
3E
1E
ENDCHAR
STARTCHAR 0130
ENCODING 304
SWIDTH 219 0
DWIDTH 9 0
BBX 3 37 3 0
BITMAP
E0
E0
E0
E0
E0
00
00
E0
E0
E0
E0
E0
E0
E0
E0
E0
E0
E0
E0
E0
E0
E0
E0
E0
E0
E0
E0
E0
E0
E0
E0
E0
E0
E0
E0
E0
E0
ENDCHAR
STARTCHAR 0131
ENCODING 305
SWIDTH 195 0
DWIDTH 8 0
BBX 3 22 3 0
BITMAP
E0
E0
E0
E0
E0
E0
E0
E0
E0
E0
E0
E0
E0
E0
E0
E0
E0
E0
E0
E0
E0
E0
ENDCHAR
STARTCHAR 0132
ENCODING 306
SWIDTH 658 0
DWIDTH 27 0
BBX 22 31 3 -1
BITMAP
E0001C
E0001C
E0001C
E0001C
E0001C
E0001C
E0001C
E0001C
E0001C
E0001C
E0001C
E0001C
E0001C
E0001C
E0001C
E0001C
E0001C
E0001C
E0001C
E0001C
E0001C
E0001C
E0001C
E3801C
E3803C
E38038
E3C078
E1E0F0
E0FFF0
E07FE0
001F80
ENDCHAR
STARTCHAR 0133
ENCODING 307
SWIDTH 414 0
DWIDTH 17 0
BBX 11 38 3 -8
BITMAP
E0E0
E0E0
E0E0
E0E0
E0E0
0000
0000
0000
E0E0
E0E0
E0E0
E0E0
E0E0
E0E0
E0E0
E0E0
E0E0
E0E0
E0E0
E0E0
E0E0
E0E0
E0E0
E0E0
E0E0
E0E0
E0E0
E0E0
E0E0
E0E0
00E0
00E0
01E0
01C0
03C0
1F80
1F00
1C00
ENDCHAR
STARTCHAR 0134
ENCODING 308
SWIDTH 487 0
DWIDTH 20 0
BBX 22 38 0 -1
BITMAP
000780
000FC0
001EF0
003878
00F03C
000000
000000
000380
000380
000380
000380
000380
000380
000380
000380
000380
000380
000380
000380
000380
000380
000380
000380
000380
000380
000380
000380
000380
000380
000380
F00780
700700
700700
780F00
3C1E00
3FFE00
1FFC00
07F000
ENDCHAR
STARTCHAR 0135
ENCODING 309
SWIDTH 195 0
DWIDTH 8 0
BBX 14 38 -3 -8
BITMAP
0380
07C0
1FE0
3CF0
7838
F01C
0000
0000
0380
0380
0380
0380
0380
0380
0380
0380
0380
0380
0380
0380
0380
0380
0380
0380
0380
0380
0380
0380
0380
0380
0380
0380
0700
0700
0F00
7E00
7C00
7000
ENDCHAR
STARTCHAR 0136
ENCODING 310
SWIDTH 585 0
DWIDTH 24 0
BBX 21 39 3 -9
BITMAP
E00078
E000F0
E001E0
E003C0
E00380
E00700
E00F00
E01E00
E03C00
E07800
E07000
E0F000
E1E000
E3C000
E78000
E7C000
EFC000
FFE000
FCF000
F87800
F03C00
E01C00
E01E00
E00F00
E00780
E00380
E003C0
E001E0
E000F0
E00078
000000
000000
007000
007000
00E000
00E000
00E000
00E000
01C000
ENDCHAR
STARTCHAR 0137
ENCODING 311
SWIDTH 512 0
DWIDTH 21 0
BBX 17 39 3 -9
BITMAP
E00000
E00000
E00000
E00000
E00000
E00000
E00000
E00000
E00700
E00F00
E01E00
E03C00
E03800
E07000
E0F000
E1E000
E3C000
E38000
E78000
EF0000
FF8000
FFC000
F9E000
F0F000
E07800
E03C00
E01C00
E01E00
E00F00
E00780
000000
000000
01C000
01C000
038000
038000
038000
038000
070000
ENDCHAR
STARTCHAR 0139
ENCODING 313
SWIDTH 463 0
DWIDTH 19 0
BBX 17 38 2 1
BITMAP
030000
0F8000
1F0000
7C0000
F00000
E00000
000000
000000
700000
700000
700000
700000
700000
700000
700000
700000
700000
700000
700000
700000
700000
700000
700000
700000
700000
700000
700000
700000
700000
700000
700000
700000
700000
700000
700000
7FFF80
7FFF80
7FFF80
ENDCHAR
STARTCHAR 013A
ENCODING 314
SWIDTH 195 0
DWIDTH 8 0
BBX 9 38 1 1
BITMAP
0380
0780
1F00
7E00
F800
6000
0000
0000
3800
3800
3800
3800
3800
3800
3800
3800
3800
3800
3800
3800
3800
3800
3800
3800
3800
3800
3800
3800
3800
3800
3800
3800
3800
3800
3800
3800
3800
3800
ENDCHAR
STARTCHAR 013B
ENCODING 315
SWIDTH 463 0
DWIDTH 19 0
BBX 16 39 3 -9
BITMAP
E000
E000
E000
E000
E000
E000
E000
E000
E000
E000
E000
E000
E000
E000
E000
E000
E000
E000
E000
E000
E000
E000
E000
E000
E000
E000
E000
FFFF
FFFF
FFFF
0000
0000
01C0
0380
0380
0380
0380
0700
0700
ENDCHAR
STARTCHAR 013C
ENCODING 316
SWIDTH 195 0
DWIDTH 8 0
BBX 5 39 1 -9
BITMAP
38
38
38
38
38
38
38
38
38
38
38
38
38
38
38
38
38
38
38
38
38
38
38
38
38
38
38
38
38
38
00
00
38
38
70
70
70
70
E0
ENDCHAR
STARTCHAR 013D
ENCODING 317
SWIDTH 463 0
DWIDTH 19 0
BBX 16 30 3 0
BITMAP
E0E0
E1C0
E1C0
E1C0
E380
E380
E380
E000
E000
E000
E000
E000
E000
E000
E000
E000
E000
E000
E000
E000
E000
E000
E000
E000
E000
E000
E000
FFFF
FFFF
FFFF
ENDCHAR
STARTCHAR 013E
ENCODING 318
SWIDTH 195 0
DWIDTH 8 0
BBX 10 30 3 0
BITMAP
E1C0
E1C0
E380
E380
E380
E380
E700
E000
E000
E000
E000
E000
E000
E000
E000
E000
E000
E000
E000
E000
E000
E000
E000
E000
E000
E000
E000
E000
E000
E000
ENDCHAR
STARTCHAR 013F
ENCODING 319
SWIDTH 463 0
DWIDTH 19 0
BBX 16 30 3 0
BITMAP
E000
E000
E000
E000
E000
E000
E000
E000
E000
E000
E000
E000
E038
E038
E038
E038
E038
E000
E000
E000
E000
E000
E000
E000
E000
E000
E000
FFFF
FFFF
FFFF
ENDCHAR
STARTCHAR 0140
ENCODING 320
SWIDTH 268 0
DWIDTH 11 0
BBX 8 30 3 0
BITMAP
E0
E0
E0
E0
E0
E0
E0
E0
E0
E0
E0
E0
E7
E7
E7
E7
E7
E0
E0
E0
E0
E0
E0
E0
E0
E0
E0
E0
E0
E0
ENDCHAR
STARTCHAR 0141
ENCODING 321
SWIDTH 512 0
DWIDTH 21 0
BBX 20 30 1 0
BITMAP
0E0000
0E0000
0E0000
0E0000
0E0000
0E0000
0E0000
0E0400
0E0C00
0E3C00
0E7800
0EF000
0FE000
0FC000
0F0000
1E0000
7E0000
FE0000
EE0000
CE0000
8E0000
0E0000
0E0000
0E0000
0E0000
0E0000
0E0000
0FFFF0
0FFFF0
0FFFF0
ENDCHAR
STARTCHAR 0142
ENCODING 322
SWIDTH 292 0
DWIDTH 12 0
BBX 10 30 1 0
BITMAP
0E00
0E00
0E00
0E00
0E00
0E00
0E00
0E00
0E00
0E00
0E40
0FC0
0FC0
1F00
3E00
FE00
EE00
8E00
0E00
0E00
0E00
0E00
0E00
0E00
0E00
0E00
0E00
0E00
0E00
0E00
ENDCHAR
STARTCHAR 0143
ENCODING 323
SWIDTH 731 0
DWIDTH 30 0
BBX 24 38 3 1
BITMAP
0001C0
0003C0
000F80
003F00
007C00
003000
000000
000000
F80007
F80007
FC0007
FE0007
EE0007
EF0007
E78007
E38007
E3C007
E1E007
E0E007
E07007
E07807
E03807
E01C07
E01E07
E00E07
E00707
E00787
E003C7
E001C7
E001E7
E000F7
E00077
E0007F
E0003F
E0001F
E0001F
E0000F
E00007
ENDCHAR
STARTCHAR 0144
ENCODING 324
SWIDTH 609 0
DWIDTH 25 0
BBX 19 31 3 0
BITMAP
000200
000E00
003F00
007C00
01F000
01C000
018000
000000
01F800
E7FE00
EFFF80
FC0780
F803C0
F001E0
E000E0
E000E0
E000E0
E000E0
E000E0
E000E0
E000E0
E000E0
E000E0
E000E0
E000E0
E000E0
E000E0
E000E0
E000E0
E000E0
E000E0
ENDCHAR
STARTCHAR 0145
ENCODING 325
SWIDTH 731 0
DWIDTH 30 0
BBX 24 39 3 -9
BITMAP
F80007
F80007
FC0007
FE0007
EE0007
EF0007
E78007
E38007
E3C007
E1E007
E0E007
E07007
E07807
E03807
E01C07
E01E07
E00E07
E00707
E00787
E003C7
E001C7
E001E7
E000F7
E00077
E0007F
E0003F
E0001F
E0001F
E0000F
E00007
000000
000000
001C00
001C00
003800
003800
003800
003800
007000
ENDCHAR
STARTCHAR 0146
ENCODING 326
SWIDTH 609 0
DWIDTH 25 0
BBX 19 32 3 -9
BITMAP
01F800
E7FE00
EFFF80
FC0780
F803C0
F001E0
E000E0
E000E0
E000E0
E000E0
E000E0
E000E0
E000E0
E000E0
E000E0
E000E0
E000E0
E000E0
E000E0
E000E0
E000E0
E000E0
E000E0
000000
000000
00E000
00E000
00E000
00E000
01C000
01C000
01C000
ENDCHAR
STARTCHAR 0147
ENCODING 327
SWIDTH 731 0
DWIDTH 30 0
BBX 24 37 3 0
BITMAP
0781E0
01E380
00FF00
007E00
003C00
000000
000000
F80007
F80007
FC0007
FE0007
EE0007
EF0007
E78007
E38007
E3C007
E1E007
E0E007
E07007
E07807
E03807
E01C07
E01E07
E00E07
E00707
E00787
E003C7
E001C7
E001E7
E000F7
E00077
E0007F
E0003F
E0001F
E0001F
E0000F
E00007
ENDCHAR
STARTCHAR 0148
ENCODING 328
SWIDTH 609 0
DWIDTH 25 0
BBX 19 30 3 0
BITMAP
3C0780
1E0E00
071C00
03F800
01F000
00E000
000000
01F800
E7FE00
EFFF80
FC0780
F803C0
F001E0
E000E0
E000E0
E000E0
E000E0
E000E0
E000E0
E000E0
E000E0
E000E0
E000E0
E000E0
E000E0
E000E0
E000E0
E000E0
E000E0
E000E0
ENDCHAR
STARTCHAR 014A
ENCODING 330
SWIDTH 731 0
DWIDTH 30 0
BBX 24 40 3 -10
BITMAP
F80007
F80007
FC0007
FE0007
EE0007
EF0007
E78007
E38007
E3C007
E1E007
E0E007
E07007
E07807
E03807
E01C07
E01E07
E00E07
E00707
E00787
E003C7
E001C7
E001E7
E000F7
E00077
E0007F
E0003F
E0001F
E0001F
E0000F
E00007
000007
000007
00E007
00E007
00F00F
00700E
00781E
003FFC
001FF8
0007E0
ENDCHAR
STARTCHAR 014B
ENCODING 331
SWIDTH 609 0
DWIDTH 25 0
BBX 19 31 3 -8
BITMAP
01F800
E7FE00
EFFF80
FC0780
F803C0
F001E0
E000E0
E000E0
E000E0
E000E0
E000E0
E000E0
E000E0
E000E0
E000E0
E000E0
E000E0
E000E0
E000E0
E000E0
E000E0
E000E0
E000E0
0000E0
0000E0
0000E0
0001E0
0003C0
000FC0
000F80
000E00
ENDCHAR
STARTCHAR 014C
ENCODING 332
SWIDTH 878 0
DWIDTH 36 0
BBX 32 38 2 -1
BITMAP
007FFE00
007FFE00
007FFE00
00000000
00000000
00000000
000FF000
007FFE00
01FFFF00
03F00FC0
07C003E0
0F0000F0
1E000078
3C000038
3800003C
7800001C
7000000E
F000000E
E000000E
E000000F
E0000007
E0000007
E0000007
E0000007
E0000007
E000000E
F000000E
7000000E
7800001C
3800003C
3C000038
1E000078
0F0000F0
07C003E0
03F00FC0
01FFFF00
007FFE00
000FF000
ENDCHAR
STARTCHAR 014D
ENCODING 333
SWIDTH 658 0
DWIDTH 27 0
BBX 23 30 2 -1
BITMAP
07FFC0
07FFC0
07FFC0
000000
000000
000000
00FE00
03FF80
0FFFE0
1F01F0
3C0078
380038
70003C
70001C
E0001E
E0000E
E0000E
E0000E
E0000E
E0000E
E0000E
E0000E
70001C
70001C
380038
3C0078
1F01F0
0FFFE0
03FF80
00FE00
ENDCHAR
STARTCHAR 014E
ENCODING 334
SWIDTH 878 0
DWIDTH 36 0
BBX 32 39 2 -1
BITMAP
00301C00
00381C00
003C3800
001FF800
000FF000
00000000
00000000
000FF000
007FFE00
01FFFF00
03F00FC0
07C003E0
0F0000F0
1E000078
3C000038
3800003C
7800001C
7000000E
F000000E
E000000E
E000000F
E0000007
E0000007
E0000007
E0000007
E0000007
E000000E
F000000E
7000000E
7800001C
3800003C
3C000038
1E000078
0F0000F0
07C003E0
03F00FC0
01FFFF00
007FFE00
000FF000
ENDCHAR
STARTCHAR 014F
ENCODING 335
SWIDTH 658 0
DWIDTH 27 0
BBX 23 31 2 -1
BITMAP
0701C0
030380
03CF80
01FF00
00FC00
000000
000000
00FE00
03FF80
0FFFE0
1F01F0
3C0078
380038
70003C
70001C
E0001E
E0000E
E0000E
E0000E
E0000E
E0000E
E0000E
E0000E
70001C
70001C
380038
3C0078
1F01F0
0FFFE0
03FF80
00FE00
ENDCHAR
STARTCHAR 0150
ENCODING 336
SWIDTH 878 0
DWIDTH 36 0
BBX 32 40 2 -1
BITMAP
00004040
0001E1E0
0003C3C0
00078780
001E1E00
001C1C00
00180800
00000000
000FF000
007FFE00
01FFFF00
03F00FC0
07C003E0
0F0000F0
1E000078
3C000038
3800003C
7800001C
7000000E
F000000E
E000000E
E000000F
E0000007
E0000007
E0000007
E0000007
E0000007
E000000E
F000000E
7000000E
7800001C
3800003C
3C000038
1E000078
0F0000F0
07C003E0
03F00FC0
01FFFF00
007FFE00
000FF000
ENDCHAR
STARTCHAR 0151
ENCODING 337
SWIDTH 658 0
DWIDTH 27 0
BBX 23 32 2 -1
BITMAP
000808
001C1C
003C3C
00F8F8
01E1E0
03C3C0
010100
000000
00FE00
03FF80
0FFFE0
1F01F0
3C0078
380038
70003C
70001C
E0001E
E0000E
E0000E
E0000E
E0000E
E0000E
E0000E
E0000E
70001C
70001C
380038
3C0078
1F01F0
0FFFE0
03FF80
00FE00
ENDCHAR
STARTCHAR 0152
ENCODING 338
SWIDTH 1195 0
DWIDTH 49 0
BBX 45 32 2 -1
BITMAP
000FF0000000
007FFE07FFF8
01FFFF87FFF8
03E00FC7FFF8
078003E70000
0F0000F70000
1E0000770000
3C00003F0000
3800003F0000
7800001F0000
7000001F0000
7000000F0000
E000000F0000
E000000F0000
E000000F0000
E0000007FFF0
E0000007FFF0
E0000007FFF0
E000000F0000
E000000F0000
F000000F0000
7000000F0000
7000001F0000
7800001F0000
3C00003F0000
1E0000770000
1F0000F70000
0F8001E70000
03F00FC7FFF8
01FFFF87FFF8
007FFE07FFF8
000FF0000000
ENDCHAR
STARTCHAR 0153
ENCODING 339
SWIDTH 1146 0
DWIDTH 47 0
BBX 43 24 2 -1
BITMAP
00FE000FE000
03FF803FF800
0FFFE0FFFE00
1F01F1F01F00
3C00F3C00780
38003B800380
70003F8001C0
70001F0001C0
E0001E0000E0
E0000E0000E0
E0000FFFFFE0
E0000FFFFFE0
E0000FFFFFE0
E0000E000000
E0000E000000
E0001E000000
70001F0001C0
78003F8001C0
38003B800380
3C0071E00780
1F01E1F01F00
0FFFC0FFFE00
03FF803FF800
00FE000FE000
ENDCHAR
STARTCHAR 0154
ENCODING 340
SWIDTH 609 0
DWIDTH 25 0
BBX 21 38 3 1
BITMAP
000E00
001E00
007C00
01F800
01E000
018000
000000
000000
FFF800
FFFF00
FFFFC0
E007E0
E001F0
E000F0
E00070
E00078
E00038
E00038
E00038
E00078
E00070
E00070
E000F0
E003E0
E3FFC0
E1FF00
E0F800
E07000
E07800
E03C00
E01E00
E00E00
E00F00
E00780
E003C0
E001C0
E001E0
E000F0
ENDCHAR
STARTCHAR 0155
ENCODING 341
SWIDTH 292 0
DWIDTH 12 0
BBX 9 31 3 0
BITMAP
0300
0F80
1F00
7C00
F800
E000
0000
0000
0380
EF80
FF80
FE00
F800
F000
E000
E000
E000
E000
E000
E000
E000
E000
E000
E000
E000
E000
E000
E000
E000
E000
E000
ENDCHAR
STARTCHAR 0156
ENCODING 342
SWIDTH 609 0
DWIDTH 25 0
BBX 21 39 3 -9
BITMAP
FFF800
FFFF00
FFFFC0
E007E0
E001F0
E000F0
E00070
E00078
E00038
E00038
E00038
E00078
E00070
E00070
E000F0
E003E0
E3FFC0
E1FF00
E0F800
E07000
E07800
E03C00
E01E00
E00E00
E00F00
E00780
E003C0
E001C0
E001E0
E000F0
000000
000000
00E000
00E000
00E000
01C000
01C000
01C000
01C000
ENDCHAR
STARTCHAR 0157
ENCODING 343
SWIDTH 292 0
DWIDTH 12 0
BBX 11 32 1 -9
BITMAP
00E0
3BE0
3FE0
3F80
3E00
3C00
3800
3800
3800
3800
3800
3800
3800
3800
3800
3800
3800
3800
3800
3800
3800
3800
3800
0000
0000
3800
3800
7000
7000
7000
7000
E000
ENDCHAR
STARTCHAR 0158
ENCODING 344
SWIDTH 609 0
DWIDTH 25 0
BBX 21 37 3 0
BITMAP
1E0F00
0F1E00
07BC00
03F000
00E000
000000
000000
FFF800
FFFF00
FFFFC0
E007E0
E001F0
E000F0
E00070
E00078
E00038
E00038
E00038
E00078
E00070
E00070
E000F0
E003E0
E3FFC0
E1FF00
E0F800
E07000
E07800
E03C00
E01E00
E00E00
E00F00
E00780
E003C0
E001C0
E001E0
E000F0
ENDCHAR
STARTCHAR 0159
ENCODING 345
SWIDTH 292 0
DWIDTH 12 0
BBX 13 30 -1 0
BITMAP
F078
78F0
3DE0
1FC0
0780
0000
0000
0038
0EF8
0FF8
0FE0
0F80
0F00
0E00
0E00
0E00
0E00
0E00
0E00
0E00
0E00
0E00
0E00
0E00
0E00
0E00
0E00
0E00
0E00
0E00
ENDCHAR
STARTCHAR 015A
ENCODING 346
SWIDTH 487 0
DWIDTH 20 0
BBX 19 40 1 -1
BITMAP
000400
000E00
003E00
00FC00
01F000
01C000
010000
000000
03F000
0FFE00
1FFF00
3C0F80
380780
780380
7003C0
7001C0
700000
700000
780000
380000
3E0000
1FC000
0FF800
03FE00
007F00
000F80
0007C0
0003C0
0001C0
0001C0
0001E0
E001E0
F001C0
F001C0
7001C0
780380
3E0F80
1FFF00
0FFE00
03F000
ENDCHAR
STARTCHAR 015B
ENCODING 347
SWIDTH 390 0
DWIDTH 16 0
BBX 14 32 1 -1
BITMAP
0030
00F8
01F0
07C0
0F80
0E00
0000
0000
0FC0
1FE0
3FF0
7878
7038
7038
7000
7000
7800
7C00
3F80
1FE0
03F0
00F8
0038
003C
001C
E01C
E01C
F038
7878
7FF0
3FE0
0FC0
ENDCHAR
STARTCHAR 015C
ENCODING 348
SWIDTH 487 0
DWIDTH 20 0
BBX 19 39 1 -1
BITMAP
00E000
01F000
07F800
0F1C00
1E0E00
000100
000000
03F000
0FFE00
1FFF00
3C0F80
380780
780380
7003C0
7001C0
700000
700000
780000
380000
3E0000
1FC000
0FF800
03FE00
007F00
000F80
0007C0
0003C0
0001C0
0001C0
0001E0
E001E0
F001C0
F001C0
7001C0
780380
3E0F80
1FFF00
0FFE00
03F000
ENDCHAR
STARTCHAR 015D
ENCODING 349
SWIDTH 390 0
DWIDTH 16 0
BBX 14 31 1 -1
BITMAP
0780
0FC0
1CE0
7870
F03C
0000
0000
0FC0
1FE0
3FF0
7878
7038
7038
7000
7000
7800
7C00
3F80
1FE0
03F0
00F8
0038
003C
001C
E01C
E01C
F038
7878
7FF0
3FE0
0FC0
ENDCHAR
STARTCHAR 015E
ENCODING 350
SWIDTH 487 0
DWIDTH 20 0
BBX 19 41 1 -10
BITMAP
03F000
0FFE00
1FFF00
3C0F80
380780
780380
7003C0
7001C0
700000
700000
780000
380000
3E0000
1FC000
0FF800
01FE00
003F00
000F80
0003C0
0001C0
0001C0
0001E0
E001E0
E001C0
F001C0
F001C0
7803C0
7C0780
3F1F00
1FFE00
07FC00
00E000
00C000
01F800
01FC00
009C00
000C00
000C00
039C00
01FC00
00F800
ENDCHAR
STARTCHAR 015F
ENCODING 351
SWIDTH 390 0
DWIDTH 16 0
BBX 14 33 1 -10
BITMAP
0FC0
1FE0
3FF0
7878
7038
7038
7000
7000
7800
7E00
3F80
0FE0
03F0
00F8
003C
001C
E01C
E01C
E03C
F038
7CF8
3FF0
1FE0
0300
0300
07C0
0FE0
0670
0030
0030
0E70
0FE0
07C0
ENDCHAR
STARTCHAR 0160
ENCODING 352
SWIDTH 487 0
DWIDTH 20 0
BBX 19 39 1 -1
BITMAP
3C0700
1E1E00
0F3C00
03F800
01F000
000000
000000
03F000
0FFE00
1FFF00
3C0F80
380780
780380
7003C0
7001C0
700000
700000
780000
380000
3E0000
1FC000
0FF800
03FE00
007F00
000F80
0007C0
0003C0
0001C0
0001C0
0001E0
E001E0
F001C0
F001C0
7001C0
780380
3E0F80
1FFF00
0FFE00
03F000
ENDCHAR
STARTCHAR 0161
ENCODING 353
SWIDTH 390 0
DWIDTH 16 0
BBX 14 31 1 -1
BITMAP
F03C
7870
1DE0
0FC0
0780
0000
0000
0FC0
1FE0
3FF0
7878
7038
7038
7000
7000
7800
7C00
3F80
1FE0
03F0
00F8
0038
003C
001C
E01C
E01C
F038
7878
7FF0
3FE0
0FC0
ENDCHAR
STARTCHAR 0162
ENCODING 354
SWIDTH 414 0
DWIDTH 17 0
BBX 17 40 0 -10
BITMAP
FFFF80
FFFF80
FFFF80
01C000
01C000
01C000
01C000
01C000
01C000
01C000
01C000
01C000
01C000
01C000
01C000
01C000
01C000
01C000
01C000
01C000
01C000
01C000
01C000
01C000
01C000
01C000
01C000
01C000
01C000
01C000
018000
018000
03F000
03F800
033800
001800
001800
073800
03F800
01F000
ENDCHAR
STARTCHAR 0163
ENCODING 355
SWIDTH 341 0
DWIDTH 14 0
BBX 13 40 0 -10
BITMAP
0700
0700
0700
0700
0700
0700
0700
0700
FFF8
FFF8
FFF8
0700
0700
0700
0700
0700
0700
0700
0700
0700
0700
0700
0700
0700
0700
0700
0700
0700
0700
0700
0300
0600
0FC0
0FE0
04E0
0060
0060
1C60
0FE0
07C0
ENDCHAR
STARTCHAR 0164
ENCODING 356
SWIDTH 414 0
DWIDTH 17 0
BBX 17 37 0 0
BITMAP
3C1E00
1E3C00
077800
03F000
01E000
000000
000000
FFFF80
FFFF80
FFFF80
01C000
01C000
01C000
01C000
01C000
01C000
01C000
01C000
01C000
01C000
01C000
01C000
01C000
01C000
01C000
01C000
01C000
01C000
01C000
01C000
01C000
01C000
01C000
01C000
01C000
01C000
01C000
ENDCHAR
STARTCHAR 0165
ENCODING 357
SWIDTH 341 0
DWIDTH 14 0
BBX 14 30 0 0
BITMAP
071C
071C
071C
071C
0738
0738
0738
0700
FFF8
FFF8
FFF8
0700
0700
0700
0700
0700
0700
0700
0700
0700
0700
0700
0700
0700
0700
0700
0700
0700
0700
0700
ENDCHAR
STARTCHAR 0168
ENCODING 360
SWIDTH 658 0
DWIDTH 27 0
BBX 21 38 3 -1
BITMAP
03C000
07F300
07FF00
043F00
000400
000000
000000
E00038
E00038
E00038
E00038
E00038
E00038
E00038
E00038
E00038
E00038
E00038
E00038
E00038
E00038
E00038
E00038
E00038
E00038
E00038
E00038
E00038
E00038
F00070
700070
700070
7800F0
3C01E0
3E03C0
1FFF80
07FF00
01FC00
ENDCHAR
STARTCHAR 0169
ENCODING 361
SWIDTH 609 0
DWIDTH 25 0
BBX 19 30 3 0
BITMAP
0FC200
0FFE00
0CFE00
083C00
000000
000000
000000
E000E0
E000E0
E000E0
E000E0
E000E0
E000E0
E000E0
E000E0
E000E0
E000E0
E000E0
E000E0
E000E0
E000E0
E000E0
E000E0
E001E0
F001E0
7803E0
7C07E0
3FFEE0
1FFCE0
03F000
ENDCHAR
STARTCHAR 016A
ENCODING 362
SWIDTH 658 0
DWIDTH 27 0
BBX 21 37 3 -1
BITMAP
0FFF80
0FFF80
0FFF80
000000
000000
000000
E00038
E00038
E00038
E00038
E00038
E00038
E00038
E00038
E00038
E00038
E00038
E00038
E00038
E00038
E00038
E00038
E00038
E00038
E00038
E00038
E00038
E00038
F00070
700070
700070
7800F0
3C01E0
3E03C0
1FFF80
07FF00
01FC00
ENDCHAR
STARTCHAR 016B
ENCODING 363
SWIDTH 609 0
DWIDTH 25 0
BBX 19 30 3 -1
BITMAP
1FFF00
1FFF00
1FFF00
000000
000000
000000
000000
E000E0
E000E0
E000E0
E000E0
E000E0
E000E0
E000E0
E000E0
E000E0
E000E0
E000E0
E000E0
E000E0
E000E0
E000E0
E000E0
E001E0
F001E0
7803E0
7C07E0
3FFEE0
1FFCE0
03F000
ENDCHAR
STARTCHAR 016C
ENCODING 364
SWIDTH 658 0
DWIDTH 27 0
BBX 21 38 3 -1
BITMAP
0E0380
060700
079F00
03FE00
01F800
000000
000000
E00038
E00038
E00038
E00038
E00038
E00038
E00038
E00038
E00038
E00038
E00038
E00038
E00038
E00038
E00038
E00038
E00038
E00038
E00038
E00038
E00038
E00038
F00070
700070
700070
7800F0
3C01E0
3E03C0
1FFF80
07FF00
01FC00
ENDCHAR
STARTCHAR 016D
ENCODING 365
SWIDTH 609 0
DWIDTH 25 0
BBX 19 31 3 -1
BITMAP
1C0700
1C0600
0E0E00
0FFC00
03F800
000000
000000
000000
E000E0
E000E0
E000E0
E000E0
E000E0
E000E0
E000E0
E000E0
E000E0
E000E0
E000E0
E000E0
E000E0
E000E0
E000E0
E000E0
E001E0
F001E0
7803E0
7C07E0
3FFEE0
1FFCE0
03F000
ENDCHAR
STARTCHAR 016E
ENCODING 366
SWIDTH 658 0
DWIDTH 27 0
BBX 21 41 3 -1
BITMAP
007000
01FC00
018C00
030600
030600
018C00
01FC00
007000
000000
000000
E00038
E00038
E00038
E00038
E00038
E00038
E00038
E00038
E00038
E00038
E00038
E00038
E00038
E00038
E00038
E00038
E00038
E00038
E00038
E00038
E00038
E00038
F00070
700070
700070
7800F0
3C01E0
3E03C0
1FFF80
07FF00
01FC00
ENDCHAR
STARTCHAR 016F
ENCODING 367
SWIDTH 609 0
DWIDTH 25 0
BBX 19 34 3 -1
BITMAP
00E000
03F800
031800
060C00
060C00
060C00
031800
03F000
00E000
000000
000000
E000E0
E000E0
E000E0
E000E0
E000E0
E000E0
E000E0
E000E0
E000E0
E000E0
E000E0
E000E0
E000E0
E000E0
E000E0
E000E0
E001E0
F001E0
7803E0
7C07E0
3FFEE0
1FFCE0
03F000
ENDCHAR
STARTCHAR 0170
ENCODING 368
SWIDTH 658 0
DWIDTH 27 0
BBX 22 39 3 0
BITMAP
001818
007C7C
00F0F0
03E3E0
078780
030300
000000
000000
E00038
E00038
E00038
E00038
E00038
E00038
E00038
E00038
E00038
E00038
E00038
E00038
E00038
E00038
E00038
E00038
E00038
E00038
E00038
E00038
E00038
E00038
F00070
700070
700070
7800F0
3C01E0
3E03C0
1FFF80
07FF00
01FC00
ENDCHAR
STARTCHAR 0171
ENCODING 369
SWIDTH 609 0
DWIDTH 25 0
BBX 21 31 3 0
BITMAP
003030
00F8F8
01E1E0
07C3C0
0F0F00
060600
000000
000000
E000E0
E000E0
E000E0
E000E0
E000E0
E000E0
E000E0
E000E0
E000E0
E000E0
E000E0
E000E0
E000E0
E000E0
E000E0
E000E0
E001E0
F001E0
7803E0
7C07E0
3FFEE0
1FFCE0
03F000
ENDCHAR
STARTCHAR 0172
ENCODING 370
SWIDTH 658 0
DWIDTH 27 0
BBX 21 41 3 -11
BITMAP
E00038
E00038
E00038
E00038
E00038
E00038
E00038
E00038
E00038
E00038
E00038
E00038
E00038
E00038
E00038
E00038
E00038
E00038
E00038
E00038
E00038
E00038
F00070
700070
700070
7800F0
3C01E0
3E03C0
1FFFC0
07FF00
01FC00
003800
007000
007000
00E000
00E000
00E000
00F000
007E00
003E00
001E00
ENDCHAR
STARTCHAR 0173
ENCODING 371
SWIDTH 609 0
DWIDTH 25 0
BBX 20 33 3 -11
BITMAP
E000E0
E000E0
E000E0
E000E0
E000E0
E000E0
E000E0
E000E0
E000E0
E000E0
E000E0
E000E0
E000E0
E000E0
E000E0
E000E0
E001E0
F001E0
7803E0
7C07E0
3FFEE0
1FFCE0
03F0E0
0001C0
000380
000700
000700
000700
000700
000780
0003F0
0003F0
0000F0
ENDCHAR
STARTCHAR 0174
ENCODING 372
SWIDTH 951 0
DWIDTH 39 0
BBX 38 37 1 0
BITMAP
0000780000
0001FC0000
0003DE0000
0007870000
000F038000
0000000000
0000000000
E00070001C
E000780038
E000780038
F000F80038
7000F80038
7000FC0070
7001DC0070
3801DC0070
3801DC00E0
3801CE00E0
3C038E00E0
1C038E00E0
1C038701C0
1C070701C0
0E070701C0
0E07070380
0E07038380
0F0E038380
070E038380
070E03C700
070E01C700
039C01C700
039C01CE00
039C00EE00
03F800EE00
01F800EE00
01F800FC00
01F8007C00
00F0007C00
00F0007800
ENDCHAR
STARTCHAR 0175
ENCODING 373
SWIDTH 829 0
DWIDTH 34 0
BBX 34 30 0 0
BITMAP
0000E00000
0003F00000
0007F80000
000F3C0000
001E1E0000
003C070000
0000000000
0000000000
F0000001C0
7000000380
7000000380
3801E00700
3801E00700
3801E00700
1C03F00E00
1C03F00E00
0E03F01C00
0E07381C00
0E07381C00
0707383800
070E1C3800
038E1C7000
038E1C7000
039C0E7000
01DC0EE000
01DC0EE000
01F807C000
00F807C000
00F807C000
0070038000
ENDCHAR
STARTCHAR 0176
ENCODING 374
SWIDTH 585 0
DWIDTH 24 0
BBX 24 37 0 0
BITMAP
003C00
007E00
00E780
01C3C0
0781E0
000000
000000
F00007
70000E
78000E
38001C
3C003C
1C0038
1E0078
0E0070
0700F0
0700E0
0381E0
0381C0
01C3C0
01C380
00E780
00E700
007E00
007E00
003C00
003C00
001C00
001C00
001C00
001C00
001C00
001C00
001C00
001C00
001C00
001C00
ENDCHAR
STARTCHAR 0177
ENCODING 375
SWIDTH 536 0
DWIDTH 22 0
BBX 20 38 1 -8
BITMAP
007000
01F800
03FC00
079E00
0F0F00
1E0380
000000
000000
E00070
E00070
F000F0
7000E0
7801E0
3801C0
3801C0
3C0380
1C0380
1E0700
0E0700
0E0F00
0F0E00
070E00
079C00
039C00
03B800
03F800
01F800
01F000
00F000
00E000
00E000
01C000
01C000
03C000
038000
078000
070000
070000
ENDCHAR
STARTCHAR 0178
ENCODING 376
SWIDTH 585 0
DWIDTH 24 0
BBX 24 37 0 0
BITMAP
00E380
00E380
00E380
00E380
00E380
000000
000000
F00007
70000E
78000E
38001C
3C003C
1C0038
1E0078
0E0070
0700F0
0700E0
0381E0
0381C0
01C3C0
01C380
00E780
00E700
007E00
007E00
003C00
003C00
001C00
001C00
001C00
001C00
001C00
001C00
001C00
001C00
001C00
001C00
ENDCHAR
STARTCHAR 0179
ENCODING 377
SWIDTH 487 0
DWIDTH 20 0
BBX 18 38 1 1
BITMAP
000E00
003E00
007C00
01F000
03E000
018000
000000
000000
FFFFC0
FFFFC0
FFFFC0
0003C0
000380
000700
000F00
000E00
001C00
003C00
003800
007800
007000
00E000
01E000
01C000
03C000
038000
070000
0F0000
0E0000
1E0000
1C0000
380000
780000
700000
F00000
FFFFC0
FFFFC0
FFFFC0
ENDCHAR
STARTCHAR 017A
ENCODING 378
SWIDTH 414 0
DWIDTH 17 0
BBX 17 31 0 0
BITMAP
000400
001C00
007E00
00F800
03E000
038000
030000
000000
000000
7FFF00
7FFF00
7FFF00
000F00
001E00
001C00
003800
007800
00F000
00E000
01C000
03C000
078000
070000
0E0000
1E0000
3C0000
380000
780000
FFFF80
FFFF80
FFFF80
ENDCHAR
STARTCHAR 017B
ENCODING 379
SWIDTH 487 0
DWIDTH 20 0
BBX 18 37 1 0
BITMAP
00E000
00E000
00E000
00E000
00E000
000000
000000
FFFFC0
FFFFC0
FFFFC0
0003C0
000380
000700
000F00
000E00
001C00
003C00
003800
007800
007000
00E000
01E000
01C000
03C000
038000
070000
0F0000
0E0000
1E0000
1C0000
380000
780000
700000
F00000
FFFFC0
FFFFC0
FFFFC0
ENDCHAR
STARTCHAR 017C
ENCODING 380
SWIDTH 414 0
DWIDTH 17 0
BBX 17 30 0 0
BITMAP
01C000
01C000
01C000
01C000
01C000
000000
000000
000000
7FFF00
7FFF00
7FFF00
000F00
001E00
001C00
003800
007800
00F000
00E000
01C000
03C000
078000
070000
0E0000
1E0000
3C0000
380000
780000
FFFF80
FFFF80
FFFF80
ENDCHAR
STARTCHAR 017D
ENCODING 381
SWIDTH 487 0
DWIDTH 20 0
BBX 18 37 1 0
BITMAP
3C0F00
0E1C00
07F800
03F000
01E000
000000
000000
FFFFC0
FFFFC0
FFFFC0
0003C0
000380
000700
000F00
000E00
001C00
003C00
003800
007800
007000
00E000
01E000
01C000
03C000
038000
070000
0F0000
0E0000
1E0000
1C0000
380000
780000
700000
F00000
FFFFC0
FFFFC0
FFFFC0
ENDCHAR
STARTCHAR 017E
ENCODING 382
SWIDTH 414 0
DWIDTH 17 0
BBX 17 30 0 0
BITMAP
780F00
1C1C00
0E3800
07F000
03E000
01C000
000000
000000
7FFF00
7FFF00
7FFF00
000F00
001E00
001C00
003800
007800
00F000
00E000
01C000
03C000
078000
070000
0E0000
1E0000
3C0000
380000
780000
FFFF80
FFFF80
FFFF80
ENDCHAR
STARTCHAR 017F
ENCODING 383
SWIDTH 317 0
DWIDTH 13 0
BBX 12 30 1 0
BITMAP
00F0
03F0
07F0
0F00
0E00
1C00
1C00
1C00
FC00
FC00
FC00
1C00
1C00
1C00
1C00
1C00
1C00
1C00
1C00
1C00
1C00
1C00
1C00
1C00
1C00
1C00
1C00
1C00
1C00
1C00
ENDCHAR
STARTCHAR 018E
ENCODING 398
SWIDTH 536 0
DWIDTH 22 0
BBX 17 30 3 0
BITMAP
FFFF80
FFFF80
FFFF80
000380
000380
000380
000380
000380
000380
000380
000380
000380
000380
7FFF80
7FFF80
7FFF80
000380
000380
000380
000380
000380
000380
000380
000380
000380
000380
000380
FFFF80
FFFF80
FFFF80
ENDCHAR
STARTCHAR 0192
ENCODING 402
SWIDTH 560 0
DWIDTH 23 0
BBX 21 40 1 -6
BITMAP
000018
0000F8
0001F8
0003C0
000380
000700
000700
000700
000600
000E00
00FFF0
01FFE0
01FFE0
000C00
001C00
001C00
001C00
001C00
001800
003800
003800
003800
003800
003800
003000
007000
007000
007000
007000
006000
00E000
00E000
00E000
00E000
01C000
01C000
038000
FF8000
FE0000
F80000
ENDCHAR
STARTCHAR 01A0
ENCODING 416
SWIDTH 878 0
DWIDTH 36 0
BBX 32 32 2 -1
BITMAP
000FF000
007FFC07
01FFFF07
03F00FC6
07C003EE
0F0000FE
1E00007C
3C000038
3800003C
7800001C
7000000E
F000000E
E000000E
E000000F
E0000007
E0000007
E0000007
E0000007
E0000007
E000000E
F000000E
7000000E
7800001C
3800003C
3C000038
1E000078
0F0000F0
07C003E0
03F00FC0
01FFFF00
007FFE00
000FF000
ENDCHAR
STARTCHAR 01A1
ENCODING 417
SWIDTH 682 0
DWIDTH 28 0
BBX 25 24 2 -1
BITMAP
00FE0000
03FF8380
0FFFE380
1F01F380
3C007700
38003F00
70003E00
70001C00
E0001E00
E0000E00
E0000E00
E0000E00
E0000E00
E0000E00
E0000E00
E0000E00
F0001C00
70001C00
78003C00
3C007800
1F01F000
0FFFE000
03FF8000
00FE0000
ENDCHAR
STARTCHAR 01AF
ENCODING 431
SWIDTH 707 0
DWIDTH 29 0
BBX 25 31 3 -1
BITMAP
E0003980
E0003B80
E0003B80
E0003F80
E0003F00
E0003E00
E0003C00
E0003800
E0003800
E0003800
E0003800
E0003800
E0003800
E0003800
E0003800
E0003800
E0003800
E0003800
E0003800
E0003800
E0003800
E0003800
E0007800
70007000
70007000
7800F000
3C01E000
3E03C000
1FFF8000
07FF0000
01FC0000
ENDCHAR
STARTCHAR 01B0
ENCODING 432
SWIDTH 682 0
DWIDTH 28 0
BBX 24 23 3 -1
BITMAP
E000E7
E000E7
E000E7
E000EE
E000FE
E000FC
E000F8
E000E0
E000E0
E000E0
E000E0
E000E0
E000E0
E000E0
E000E0
E000E0
E001E0
F001E0
7803E0
7C0FE0
3FFEE0
1FFCE0
03F000
ENDCHAR
STARTCHAR 01CD
ENCODING 461
SWIDTH 731 0
DWIDTH 30 0
BBX 29 37 1 0
BITMAP
01E07800
0078E000
003FC000
001F8000
000F0000
00000000
00000000
000F0000
000F8000
001F8000
001F8000
003DC000
0039C000
0039E000
0070E000
0070F000
00F07000
00E07000
01E03800
01C03800
01C03C00
03801C00
03801E00
07800E00
07FFFE00
0FFFFF00
0FFFFF00
0E000780
1C000380
1C0003C0
3C0001C0
380001C0
780000E0
700000E0
700000F0
E0000070
E0000078
ENDCHAR
STARTCHAR 01CE
ENCODING 462
SWIDTH 682 0
DWIDTH 28 0
BBX 23 31 2 -1
BITMAP
0783C0
03C780
01EF00
00FE00
007C00
000000
000000
00FE00
03FF8E
0FFFCE
1F01EE
3C007E
38003E
70001E
70001E
E0000E
E0000E
E0000E
E0000E
E0000E
E0000E
E0000E
F0000E
F0001E
78001E
78003E
3E007E
1F01FE
0FFFEE
03FF8E
00FE00
ENDCHAR
STARTCHAR 01CF
ENCODING 463
SWIDTH 219 0
DWIDTH 9 0
BBX 13 37 -2 0
BITMAP
F078
78F0
3DE0
0FC0
0700
0000
0000
0700
0700
0700
0700
0700
0700
0700
0700
0700
0700
0700
0700
0700
0700
0700
0700
0700
0700
0700
0700
0700
0700
0700
0700
0700
0700
0700
0700
0700
0700
ENDCHAR
STARTCHAR 01D0
ENCODING 464
SWIDTH 195 0
DWIDTH 8 0
BBX 14 30 -3 0
BITMAP
F03C
7878
3CF0
1FE0
0FC0
0300
0000
0000
0380
0380
0380
0380
0380
0380
0380
0380
0380
0380
0380
0380
0380
0380
0380
0380
0380
0380
0380
0380
0380
0380
ENDCHAR
STARTCHAR 01D1
ENCODING 465
SWIDTH 878 0
DWIDTH 36 0
BBX 32 39 2 -1
BITMAP
00701E00
003C3C00
001E7800
000FE000
0007C000
00000000
00000000
000FF000
007FFE00
01FFFF00
03F00FC0
07C003E0
0F0000F0
1E000078
3C000038
3800003C
7800001C
7000000E
F000000E
E000000E
E000000F
E0000007
E0000007
E0000007
E0000007
E0000007
E000000E
F000000E
7000000E
7800001C
3800003C
3C000038
1E000078
0F0000F0
07C003E0
03F00FC0
01FFFF00
007FFE00
000FF000
ENDCHAR
STARTCHAR 01D2
ENCODING 466
SWIDTH 658 0
DWIDTH 27 0
BBX 23 31 2 -1
BITMAP
0783C0
03C780
01EF00
00FE00
007800
000000
000000
00FE00
03FF80
0FFFE0
1F01F0
3C0078
380038
70003C
70001C
E0001E
E0000E
E0000E
E0000E
E0000E
E0000E
E0000E
E0000E
70001C
70001C
380038
3C0078
1F01F0
0FFFE0
03FF80
00FE00
ENDCHAR
STARTCHAR 01D3
ENCODING 467
SWIDTH 658 0
DWIDTH 27 0
BBX 21 38 3 -1
BITMAP
0F0780
078F00
03DE00
01F800
007000
000000
000000
E00038
E00038
E00038
E00038
E00038
E00038
E00038
E00038
E00038
E00038
E00038
E00038
E00038
E00038
E00038
E00038
E00038
E00038
E00038
E00038
E00038
E00038
F00070
700070
700070
7800F0
3C01E0
3E03C0
1FFF80
07FF00
01FC00
ENDCHAR
STARTCHAR 01D4
ENCODING 468
SWIDTH 609 0
DWIDTH 25 0
BBX 19 31 3 -1
BITMAP
3C0780
1E0E00
073C00
03F800
01F000
00E000
000000
000000
E000E0
E000E0
E000E0
E000E0
E000E0
E000E0
E000E0
E000E0
E000E0
E000E0
E000E0
E000E0
E000E0
E000E0
E000E0
E000E0
E001E0
F001E0
7803E0
7C07E0
3FFEE0
1FFCE0
03F000
ENDCHAR
STARTCHAR 01D7
ENCODING 471
SWIDTH 658 0
DWIDTH 27 0
BBX 21 46 3 0
BITMAP
000700
000F80
003E00
00FC00
00F000
00C000
000000
000000
038E00
038E00
038E00
038E00
038E00
000000
000000
E00038
E00038
E00038
E00038
E00038
E00038
E00038
E00038
E00038
E00038
E00038
E00038
E00038
E00038
E00038
E00038
E00038
E00038
E00038
E00038
E00038
E00038
F00070
700070
700070
7800F0
3C01E0
3E03C0
1FFF80
07FF00
01FC00
ENDCHAR
STARTCHAR 01D8
ENCODING 472
SWIDTH 609 0
DWIDTH 25 0
BBX 19 40 3 -1
BITMAP
000600
001E00
003E00
00F800
03F000
01C000
000000
000000
000000
071C00
071C00
071C00
071C00
071C00
000000
000000
000000
E000E0
E000E0
E000E0
E000E0
E000E0
E000E0
E000E0
E000E0
E000E0
E000E0
E000E0
E000E0
E000E0
E000E0
E000E0
E000E0
E001E0
F001E0
7803E0
7C07E0
3FFEE0
1FFCE0
03F000
ENDCHAR
STARTCHAR 01D9
ENCODING 473
SWIDTH 658 0
DWIDTH 27 0
BBX 21 45 3 -1
BITMAP
0F0780
078F00
03DC00
00F800
007000
000000
000000
038E00
038E00
038E00
038E00
038E00
000000
000000
E00038
E00038
E00038
E00038
E00038
E00038
E00038
E00038
E00038
E00038
E00038
E00038
E00038
E00038
E00038
E00038
E00038
E00038
E00038
E00038
E00038
E00038
F00070
700070
700070
7800F0
3C01E0
3E03C0
1FFF80
07FF00
01FC00
ENDCHAR
STARTCHAR 01DA
ENCODING 474
SWIDTH 609 0
DWIDTH 25 0
BBX 19 39 3 -1
BITMAP
1C0700
0E1E00
07BC00
03F800
01F000
000000
000000
000000
071C00
071C00
071C00
071C00
071C00
000000
000000
000000
E000E0
E000E0
E000E0
E000E0
E000E0
E000E0
E000E0
E000E0
E000E0
E000E0
E000E0
E000E0
E000E0
E000E0
E000E0
E000E0
E001E0
F001E0
7803E0
7C07E0
3FFEE0
1FFCE0
03F000
ENDCHAR
STARTCHAR 01DB
ENCODING 475
SWIDTH 658 0
DWIDTH 27 0
BBX 21 47 3 -1
BITMAP
040000
070000
0F8000
03E000
01F800
007800
001800
000000
000000
038E00
038E00
038E00
038E00
038E00
000000
000000
E00038
E00038
E00038
E00038
E00038
E00038
E00038
E00038
E00038
E00038
E00038
E00038
E00038
E00038
E00038
E00038
E00038
E00038
E00038
E00038
E00038
E00038
F00070
700070
700070
7800F0
3C01E0
3E03C0
1FFF80
07FF00
01FC00
ENDCHAR
STARTCHAR 01DC
ENCODING 476
SWIDTH 609 0
DWIDTH 25 0
BBX 19 40 3 -1
BITMAP
0C0000
0F0000
0F8000
07E000
01F000
007000
000000
000000
000000
071C00
071C00
071C00
071C00
071C00
000000
000000
000000
E000E0
E000E0
E000E0
E000E0
E000E0
E000E0
E000E0
E000E0
E000E0
E000E0
E000E0
E000E0
E000E0
E000E0
E000E0
E000E0
E001E0
F001E0
7803E0
7C07E0
3FFEE0
1FFCE0
03F000
ENDCHAR
STARTCHAR 01DD
ENCODING 477
SWIDTH 658 0
DWIDTH 27 0
BBX 23 24 2 -1
BITMAP
00FE00
03FF80
0FFFE0
1F01F0
3C00F8
380038
70003C
F0001C
00001E
00000E
00000E
FFFFFE
FFFFFE
FFFFFE
E0000E
E0001E
70001C
70003C
380038
3C0078
1F01F0
0FFFE0
07FF80
00FE00
ENDCHAR
STARTCHAR 01E6
ENCODING 486
SWIDTH 878 0
DWIDTH 36 0
BBX 32 39 2 -1
BITMAP
00701E00
003C3C00
001E7800
000FE000
0007C000
00000000
00000000
000FF000
007FFE00
01FFFF80
03F00FC0
078001F0
0F0000F0
1E000078
3C00003C
3800001C
78000000
70000000
F0000000
E0000000
E0000000
E0000000
E0000000
E0000000
E01FFFFF
E01FFFFF
E01FFFFF
F000000F
7000000E
7800000E
3800001C
3C00003C
1E000078
0F0000F0
07C001E0
03F00FC0
01FFFF80
007FFE00
000FF000
ENDCHAR
STARTCHAR 01E7
ENCODING 487
SWIDTH 682 0
DWIDTH 28 0
BBX 23 39 2 -9
BITMAP
0F03C0
038780
01EE00
00FC00
007800
000000
000000
00FE00
03FF8E
0FFFCE
1F01EE
3C00FE
38003E
70003E
70001E
E0001E
E0000E
E0000E
E0000E
E0000E
E0000E
E0000E
E0001E
F0001E
78003E
78003E
3C007E
1F01EE
0FFFCE
03FF8E
00FE0E
70001E
70001C
38003C
3C0078
1F00F8
0FFFE0
07FFC0
00FE00
ENDCHAR
STARTCHAR 01EA
ENCODING 490
SWIDTH 878 0
DWIDTH 36 0
BBX 32 42 2 -11
BITMAP
000FF000
007FFE00
01FFFF00
03F00FC0
07C003E0
0F0000F0
1E000078
3C000038
3800003C
7800001C
7000000E
F000000E
E000000E
E000000F
E0000007
E0000007
E0000007
E0000007
E0000007
E000000E
F000000E
7000000E
7800001C
3800003C
3C000038
1E000078
0F0000F0
07C003E0
03F00FC0
01FFFF00
007FFE00
000FF800
0000E000
0001C000
00038000
00038000
00038000
00038000
0003C000
0003F800
0001F800
00007800
ENDCHAR
STARTCHAR 01EB
ENCODING 491
SWIDTH 658 0
DWIDTH 27 0
BBX 23 34 2 -11
BITMAP
00FE00
03FF80
0FFFE0
1F01F0
3C0078
380038
70003C
70001C
E0001E
E0000E
E0000E
E0000E
E0000E
E0000E
E0000E
E0000E
70001C
70001C
38003C
3C0078
1F01F0
0FFFE0
03FFC0
00FF00
000E00
001C00
003800
003800
003800
003800
003C00
003F80
001F80
000F80
ENDCHAR
STARTCHAR 01F0
ENCODING 496
SWIDTH 195 0
DWIDTH 8 0
BBX 14 38 -3 -8
BITMAP
F01C
7878
3CF0
1FE0
07C0
0380
0000
0000
0380
0380
0380
0380
0380
0380
0380
0380
0380
0380
0380
0380
0380
0380
0380
0380
0380
0380
0380
0380
0380
0380
0380
0380
0700
0700
0F00
7E00
7C00
7000
ENDCHAR
STARTCHAR 01F4
ENCODING 500
SWIDTH 878 0
DWIDTH 36 0
BBX 32 40 2 -1
BITMAP
00000800
00003C00
0000FC00
0001F000
0007C000
00078000
00020000
00000000
000FF000
007FFE00
01FFFF80
03F00FC0
078001F0
0F0000F0
1E000078
3C00003C
3800001C
78000000
70000000
F0000000
E0000000
E0000000
E0000000
E0000000
E0000000
E01FFFFF
E01FFFFF
E01FFFFF
F000000F
7000000E
7800000E
3800001C
3C00003C
1E000078
0F0000F0
07C001E0
03F00FC0
01FFFF80
007FFE00
000FF000
ENDCHAR
STARTCHAR 01F5
ENCODING 501
SWIDTH 682 0
DWIDTH 28 0
BBX 23 40 2 -9
BITMAP
000380
000780
001F00
007E00
00F800
006000
004000
000000
00FE00
03FF8E
0FFFCE
1F01EE
3C00FE
38003E
70003E
70001E
E0001E
E0000E
E0000E
E0000E
E0000E
E0000E
E0000E
E0001E
F0001E
78003E
78003E
3C007E
1F01EE
0FFFCE
03FF8E
00FE0E
70001E
70001C
38003C
3C0078
1F00F8
0FFFE0
07FFC0
00FE00
ENDCHAR
STARTCHAR 01FA
ENCODING 506
SWIDTH 731 0
DWIDTH 30 0
BBX 29 48 1 0
BITMAP
00002000
00007000
0001F000
0007E000
000F8000
001E0000
000C0000
00000000
000F0000
001F8000
0038C000
0030C000
0030C000
0038C000
001F8000
000F0000
00000000
00000000
000F0000
000F8000
001F8000
001F8000
003DC000
0039C000
0039E000
0070E000
0070F000
00F07000
00E07000
01E03800
01C03800
01C03C00
03801C00
03801E00
07800E00
07FFFE00
0FFFFF00
0FFFFF00
0E000780
1C000380
1C0003C0
3C0001C0
380001C0
780000E0
700000E0
700000F0
E0000070
E0000078
ENDCHAR
STARTCHAR 01FB
ENCODING 507
SWIDTH 682 0
DWIDTH 28 0
BBX 23 41 2 0
BITMAP
000380
0007C0
001F00
007E00
007800
006000
000000
003800
007E00
00C600
008300
018300
018300
00C600
00FE00
003800
000000
00FE00
03FF8E
0FFFCE
1F01EE
3C007E
38003E
70001E
70001E
E0000E
E0000E
E0000E
E0000E
E0000E
E0000E
E0000E
F0000E
F0001E
78001E
78003E
3E007E
1F01FE
0FFFEE
03FF8E
00FE00
ENDCHAR
STARTCHAR 01FC
ENCODING 508
SWIDTH 1000 0
DWIDTH 41 0
BBX 37 39 1 0
BITMAP
0000001000
0000003000
000000F800
000003F000
000007C000
00000F0000
00000E0000
0000000000
0000000000
00000FFFF8
00001FFFF8
00001FFFF8
00003F0000
00007F0000
0000770000
0000E70000
0001E70000
0003C70000
0003870000
0007870000
000F070000
000E070000
001E07FFF8
003C07FFF8
003807FFF8
0070070000
00FFFF0000
01FFFF0000
01FFFF0000
03C0070000
0780070000
0700070000
0F00070000
1E00070000
1C00070000
3800070000
780007FFF8
F00007FFF8
E00007FFF8
ENDCHAR
STARTCHAR 01FD
ENCODING 509
SWIDTH 1146 0
DWIDTH 47 0
BBX 44 32 2 -1
BITMAP
000000600000
000001F00000
000003E00000
00000F800000
00001F000000
00001C000000
000000000000
000000000000
00FE0007F000
03FF8E1FFC00
0FFFEE7FFF00
1F01FEF80F80
3C007FE007C0
38003FC001C0
70001F8001E0
70000F8000E0
E0000F0000E0
E0000F000070
E0000FFFFFF0
E00007FFFFF0
E00007FFFFF0
E0000F000000
E0000F000000
F0000F000000
70001F8000E0
78001F8001E0
78003FC001C0
3E007EE00380
1F01FEF80F80
0FFFEE7FFF00
03FF8E1FFC00
00FE0007F000
ENDCHAR
STARTCHAR 01FE
ENCODING 510
SWIDTH 878 0
DWIDTH 36 0
BBX 32 43 2 -4
BITMAP
00000800
00003800
0000FC00
0001F000
0007C000
00078000
0002001C
0000003C
000FF078
007FFE70
01FFFFE0
03E00FE0
078003E0
0F0003F0
1E0007F8
3C000F3C
38000E3C
78001C1E
70003C0E
F000780E
E000700E
E000E00F
E001E007
E003C007
E0038007
E0070007
E00F0007
E00E000E
F01C000E
703C000E
7878001C
3870001C
3CE00038
1FE00078
0FC000F0
078003E0
07F00FC0
0FFFFF00
1E7FFE00
1C0FF000
38000000
38000000
10000000
ENDCHAR
STARTCHAR 01FF
ENCODING 511
SWIDTH 658 0
DWIDTH 27 0
BBX 23 33 2 -2
BITMAP
000180
000780
001F80
003E00
00F800
007000
000000
000018
00FE3C
03FFB8
0FFFF0
1F01F0
3C01F8
3801F8
78039C
70079C
E00F0E
E00E0E
E01C0E
E0380E
E0780E
E0700E
E0E00E
E1C01E
F3C01C
73803C
7F0038
3E0078
1F01F0
3FFFE0
3BFF80
70FE00
300000
ENDCHAR
STARTCHAR 0200
ENCODING 512
SWIDTH 731 0
DWIDTH 30 0
BBX 29 38 1 1
BITMAP
0C0C0000
1E1E0000
0F8F8000
03C3C000
01F1F000
00606000
00000000
00000000
000F0000
000F8000
001F8000
001F8000
003DC000
0039C000
0039E000
0070E000
0070F000
00F07000
00E07000
01E03800
01C03800
01C03C00
03801C00
03801E00
07800E00
07FFFE00
0FFFFF00
0FFFFF00
0E000780
1C000380
1C0003C0
3C0001C0
380001C0
780000E0
700000E0
700000F0
E0000070
E0000078
ENDCHAR
STARTCHAR 0201
ENCODING 513
SWIDTH 682 0
DWIDTH 28 0
BBX 23 32 2 -1
BITMAP
202000
707000
787800
3E3E00
0F0F00
078780
010100
000000
00FE00
03FF8E
0FFFCE
1F01EE
3C007E
38003E
70001E
70001E
E0000E
E0000E
E0000E
E0000E
E0000E
E0000E
E0000E
F0000E
F0001E
78001E
78003E
3E007E
1F01FE
0FFFEE
03FF8E
00FE00
ENDCHAR
STARTCHAR 0204
ENCODING 516
SWIDTH 536 0
DWIDTH 22 0
BBX 20 38 0 1
BITMAP
606000
F8F800
3C3C00
1E1E00
078780
030300
000000
000000
1FFFF0
1FFFF0
1FFFF0
1C0000
1C0000
1C0000
1C0000
1C0000
1C0000
1C0000
1C0000
1C0000
1C0000
1FFFE0
1FFFE0
1FFFE0
1C0000
1C0000
1C0000
1C0000
1C0000
1C0000
1C0000
1C0000
1C0000
1C0000
1C0000
1FFFF0
1FFFF0
1FFFF0
ENDCHAR
STARTCHAR 0205
ENCODING 517
SWIDTH 658 0
DWIDTH 27 0
BBX 23 32 2 -1
BITMAP
404000
707000
787800
3E3E00
0F0F00
070700
010100
000000
00FE00
03FF80
0FFFE0
1F01F0
3C0078
380038
70003C
70001C
E0001E
E0000E
FFFFFE
FFFFFE
FFFFFE
E00000
E00000
E00000
70001C
70001C
380038
3C0078
1F01F0
0FFFE0
03FF80
00FE00
ENDCHAR
STARTCHAR 0208
ENCODING 520
SWIDTH 219 0
DWIDTH 9 0
BBX 17 38 -7 1
BITMAP
606000
F8F800
3C3C00
1F1F00
078780
030300
000000
000000
003800
003800
003800
003800
003800
003800
003800
003800
003800
003800
003800
003800
003800
003800
003800
003800
003800
003800
003800
003800
003800
003800
003800
003800
003800
003800
003800
003800
003800
003800
ENDCHAR
STARTCHAR 0209
ENCODING 521
SWIDTH 195 0
DWIDTH 8 0
BBX 16 31 -7 0
BITMAP
0040
6060
F0F0
7C7C
1E1E
0F0F
0303
0000
0000
0038
0038
0038
0038
0038
0038
0038
0038
0038
0038
0038
0038
0038
0038
0038
0038
0038
0038
0038
0038
0038
0038
ENDCHAR
STARTCHAR 020C
ENCODING 524
SWIDTH 878 0
DWIDTH 36 0
BBX 32 40 2 -1
BITMAP
02020000
07070000
07C7C000
01E1E000
00F0F000
00383800
00101000
00000000
000FF000
007FFE00
01FFFF00
03F00FC0
07C003E0
0F0000F0
1E000078
3C000038
3800003C
7800001C
7000000E
F000000E
E000000E
E000000F
E0000007
E0000007
E0000007
E0000007
E0000007
E000000E
F000000E
7000000E
7800001C
3800003C
3C000038
1E000078
0F0000F0
07C003E0
03F00FC0
01FFFF00
007FFE00
000FF000
ENDCHAR
STARTCHAR 020D
ENCODING 525
SWIDTH 658 0
DWIDTH 27 0
BBX 23 32 2 -1
BITMAP
606000
707000
787800
3E3E00
0F0F00
078780
010100
000000
00FE00
03FF80
0FFFE0
1F01F0
3C0078
380038
70003C
70001C
E0001E
E0000E
E0000E
E0000E
E0000E
E0000E
E0000E
E0000E
70001C
70001C
380038
3C0078
1F01F0
0FFFE0
03FF80
00FE00
ENDCHAR
STARTCHAR 0210
ENCODING 528
SWIDTH 609 0
DWIDTH 25 0
BBX 23 38 1 1
BITMAP
606000
F8F800
3C3C00
1E1E00
078780
030300
000000
000000
3FFE00
3FFFC0
3FFFF0
3801F8
38007C
38003C
38001C
38001E
38000E
38000E
38000E
38001E
38001C
38001C
38003C
3800F8
38FFF0
387FC0
383E00
381C00
381E00
380F00
380780
380380
3803C0
3801E0
3800F0
380070
380078
38003C
ENDCHAR
STARTCHAR 0211
ENCODING 529
SWIDTH 292 0
DWIDTH 12 0
BBX 17 31 -5 0
BITMAP
404000
E0E000
F0F000
7C3C00
1E1E00
0F0F00
020200
000000
000380
00EF80
00FF80
00FE00
00F800
00F000
00E000
00E000
00E000
00E000
00E000
00E000
00E000
00E000
00E000
00E000
00E000
00E000
00E000
00E000
00E000
00E000
00E000
ENDCHAR
STARTCHAR 0214
ENCODING 532
SWIDTH 658 0
DWIDTH 27 0
BBX 22 39 2 0
BITMAP
606000
F8F800
3C3C00
1E1E00
078780
030300
000000
000000
70001C
70001C
70001C
70001C
70001C
70001C
70001C
70001C
70001C
70001C
70001C
70001C
70001C
70001C
70001C
70001C
70001C
70001C
70001C
70001C
70001C
70001C
780038
380038
380038
3C0078
1E00F0
1F01E0
0FFFC0
03FF80
00FE00
ENDCHAR
STARTCHAR 0215
ENCODING 533
SWIDTH 609 0
DWIDTH 25 0
BBX 21 31 1 0
BITMAP
606000
F8F800
3C3C00
1E1E00
078780
030300
000000
000000
380038
380038
380038
380038
380038
380038
380038
380038
380038
380038
380038
380038
380038
380038
380038
380038
380078
3C0078
1E00F8
1F01F8
0FFFB8
07FF38
00FC00
ENDCHAR
STARTCHAR 0218
ENCODING 536
SWIDTH 487 0
DWIDTH 20 0
BBX 19 41 1 -10
BITMAP
03F000
0FFE00
1FFF00
3C0F80
380780
780380
7003C0
7001C0
700000
700000
780000
380000
3E0000
1FC000
0FF800
03FE00
007F00
000F80
0007C0
0003C0
0001C0
0001C0
0001E0
E001E0
F001C0
F001C0
7001C0
780380
3E0F80
1FFF00
0FFE00
03F000
000000
000000
00E000
00E000
01C000
01C000
01C000
01C000
038000
ENDCHAR
STARTCHAR 0219
ENCODING 537
SWIDTH 390 0
DWIDTH 16 0
BBX 14 33 1 -10
BITMAP
0FC0
1FE0
3FF0
7878
7038
7038
7000
7000
7800
7C00
3F80
1FE0
03F0
00F8
0038
003C
001C
E01C
E01C
F038
7878
7FF0
3FE0
0FC0
0000
0000
0380
0700
0700
0700
0F00
0E00
0E00
ENDCHAR
STARTCHAR 021A
ENCODING 538
SWIDTH 414 0
DWIDTH 17 0
BBX 17 39 0 -9
BITMAP
FFFF80
FFFF80
FFFF80
01C000
01C000
01C000
01C000
01C000
01C000
01C000
01C000
01C000
01C000
01C000
01C000
01C000
01C000
01C000
01C000
01C000
01C000
01C000
01C000
01C000
01C000
01C000
01C000
01C000
01C000
01C000
000000
000000
00E000
01C000
01C000
01C000
038000
038000
038000
ENDCHAR
STARTCHAR 021B
ENCODING 539
SWIDTH 341 0
DWIDTH 14 0
BBX 13 39 0 -9
BITMAP
0700
0700
0700
0700
0700
0700
0700
0700
FFF8
FFF8
FFF8
0700
0700
0700
0700
0700
0700
0700
0700
0700
0700
0700
0700
0700
0700
0700
0700
0700
0700
0700
0000
0000
0380
0700
0700
0700
0700
0E00
0E00
ENDCHAR
STARTCHAR 0237
ENCODING 567
SWIDTH 195 0
DWIDTH 8 0
BBX 8 30 -2 -8
BITMAP
07
07
07
07
07
07
07
07
07
07
07
07
07
07
07
07
07
07
07
07
07
07
07
07
0E
0E
1E
FC
F8
E0
ENDCHAR
STARTCHAR 0258
ENCODING 600
SWIDTH 658 0
DWIDTH 27 0
BBX 23 24 2 -1
BITMAP
00FE00
03FF80
0FFFE0
1F01F0
3C0078
380038
70003C
70001C
E0001E
E0000E
FFFFFE
FFFFFE
FFFFFE
00000E
00000E
00000E
F0001C
70003C
380038
3C0070
1F01F0
0FFFC0
03FF80
00FC00
ENDCHAR
STARTCHAR 0259
ENCODING 601
SWIDTH 658 0
DWIDTH 27 0
BBX 23 24 2 -1
BITMAP
00FE00
03FF80
0FFFE0
1F01F0
3C00F8
380038
70003C
F0001C
00001E
00000E
00000E
FFFFFE
FFFFFE
FFFFFE
E0000E
E0001E
70001C
70003C
380038
3C0078
1F01F0
0FFFE0
07FF80
00FE00
ENDCHAR
STARTCHAR 02BE
ENCODING 702
SWIDTH 512 0
DWIDTH 21 0
BBX 16 17 3 13
BITMAP
0100
1FE0
3FF8
783C
F01E
E00E
0006
0007
0007
0007
0007
C00E
E00E
F01C
7FF8
3FF0
0FC0
ENDCHAR
STARTCHAR 02BF
ENCODING 703
SWIDTH 512 0
DWIDTH 21 0
BBX 16 16 3 14
BITMAP
0FF0
3FFC
7C3C
700E
E007
E000
C000
C000
C000
E000
E000
F00E
781E
3FFC
1FF8
07E0
ENDCHAR
STARTCHAR 02C6
ENCODING 710
SWIDTH 512 0
DWIDTH 21 0
BBX 13 5 4 25
BITMAP
0F00
1F80
3DE0
78F0
F078
ENDCHAR
STARTCHAR 02C7
ENCODING 711
SWIDTH 512 0
DWIDTH 21 0
BBX 13 5 4 25
BITMAP
E078
70F0
3DE0
1FC0
0F00
ENDCHAR
STARTCHAR 02D8
ENCODING 728
SWIDTH 463 0
DWIDTH 19 0
BBX 12 5 3 25
BITMAP
E030
E070
79F0
3FE0
1F80
ENDCHAR
STARTCHAR 02D9
ENCODING 729
SWIDTH 219 0
DWIDTH 9 0
BBX 3 5 3 25
BITMAP
E0
E0
E0
E0
E0
ENDCHAR
STARTCHAR 02DA
ENCODING 730
SWIDTH 341 0
DWIDTH 14 0
BBX 8 8 3 24
BITMAP
3C
7E
C7
C3
C3
C7
7E
3C
ENDCHAR
STARTCHAR 02DB
ENCODING 731
SWIDTH 292 0
DWIDTH 12 0
BBX 7 10 3 -10
BITMAP
38
70
E0
E0
E0
E0
E0
FE
7E
3E
ENDCHAR
STARTCHAR 02DC
ENCODING 732
SWIDTH 439 0
DWIDTH 18 0
BBX 12 4 3 26
BITMAP
7C20
FFF0
47F0
41C0
ENDCHAR
STARTCHAR 02DD
ENCODING 733
SWIDTH 560 0
DWIDTH 23 0
BBX 16 7 6 24
BITMAP
0202
0707
1F0F
3C3C
7878
E0F0
4040
ENDCHAR
STARTCHAR 0300
ENCODING 768
SWIDTH 0 0
DWIDTH 0 0
BBX 9 7 -20 24
BITMAP
4000
F000
F800
3E00
1F80
0780
0100
ENDCHAR
STARTCHAR 0301
ENCODING 769
SWIDTH 0 0
DWIDTH 0 0
BBX 9 7 -17 24
BITMAP
0100
0780
0F80
3E00
FC00
F000
4000
ENDCHAR
STARTCHAR 0302
ENCODING 770
SWIDTH 0 0
DWIDTH 0 0
BBX 14 5 -21 25
BITMAP
0780
0FC0
1EE0
3870
F03C
ENDCHAR
STARTCHAR 0303
ENCODING 771
SWIDTH 0 0
DWIDTH 0 0
BBX 12 4 -20 26
BITMAP
7C20
FFF0
47F0
41C0
ENDCHAR
STARTCHAR 0304
ENCODING 772
SWIDTH 0 0
DWIDTH 0 0
BBX 14 3 -21 26
BITMAP
FFFC
FFFC
FFFC
ENDCHAR
STARTCHAR 0305
ENCODING 773
SWIDTH 0 0
DWIDTH 0 0
BBX 12 3 -15 27
BITMAP
FFF0
FFF0
FFF0
ENDCHAR
STARTCHAR 0306
ENCODING 774
SWIDTH 0 0
DWIDTH 0 0
BBX 12 5 -20 25
BITMAP
E030
E070
79E0
7FE0
1F80
ENDCHAR
STARTCHAR 0307
ENCODING 775
SWIDTH 0 0
DWIDTH 0 0
BBX 3 5 -15 25
BITMAP
E0
E0
E0
E0
E0
ENDCHAR
STARTCHAR 0308
ENCODING 776
SWIDTH 0 0
DWIDTH 0 0
BBX 10 5 -19 25
BITMAP
F3C0
F3C0
F3C0
F3C0
F3C0
ENDCHAR
STARTCHAR 0309
ENCODING 777
SWIDTH 0 0
DWIDTH 0 0
BBX 8 8 -18 24
BITMAP
3E
7F
E3
C3
07
0E
1C
18
ENDCHAR
STARTCHAR 030A
ENCODING 778
SWIDTH 0 0
DWIDTH 0 0
BBX 8 8 -18 24
BITMAP
3C
7E
C3
C3
C3
C3
7E
3C
ENDCHAR
STARTCHAR 030B
ENCODING 779
SWIDTH 0 0
DWIDTH 0 0
BBX 16 7 -19 24
BITMAP
0202
0707
1F1F
3C3C
F8F8
E0E0
4040
ENDCHAR
STARTCHAR 030C
ENCODING 780
SWIDTH 0 0
DWIDTH 0 0
BBX 14 5 -21 25
BITMAP
F03C
7878
1CE0
0FC0
0780
ENDCHAR
STARTCHAR 030F
ENCODING 783
SWIDTH 0 0
DWIDTH 0 0
BBX 16 7 -25 24
BITMAP
4040
E0E0
F878
3C3C
1F1F
0707
0202
ENDCHAR
STARTCHAR 0311
ENCODING 785
SWIDTH 0 0
DWIDTH 0 0
BBX 12 5 -20 25
BITMAP
1F80
7FE0
79E0
E070
C070
ENDCHAR
STARTCHAR 0323
ENCODING 803
SWIDTH 0 0
DWIDTH 0 0
BBX 3 5 -15 -8
BITMAP
E0
E0
E0
E0
E0
ENDCHAR
STARTCHAR 0326
ENCODING 806
SWIDTH 0 0
DWIDTH 0 0
BBX 5 7 -17 -9
BITMAP
38
78
70
70
70
E0
E0
ENDCHAR
STARTCHAR 0327
ENCODING 807
SWIDTH 0 0
DWIDTH 0 0
BBX 8 10 -17 -10
BITMAP
30
30
7C
FE
67
03
03
E7
FE
7C
ENDCHAR
STARTCHAR 0328
ENCODING 808
SWIDTH 0 0
DWIDTH 0 0
BBX 7 10 -18 -10
BITMAP
1C
38
70
70
E0
E0
70
7E
3E
1E
ENDCHAR
STARTCHAR 032C
ENCODING 812
SWIDTH 0 0
DWIDTH 0 0
BBX 14 5 -21 -8
BITMAP
F03C
3870
1DE0
0FC0
0780
ENDCHAR
STARTCHAR 032D
ENCODING 813
SWIDTH 0 0
DWIDTH 0 0
BBX 14 5 -21 -8
BITMAP
0780
0FC0
1CE0
7878
F03C
ENDCHAR
STARTCHAR 032E
ENCODING 814
SWIDTH 0 0
DWIDTH 0 0
BBX 12 5 -20 -7
BITMAP
C030
E070
F0F0
7FE0
3FC0
ENDCHAR
STARTCHAR 032F
ENCODING 815
SWIDTH 0 0
DWIDTH 0 0
BBX 12 5 -20 -8
BITMAP
3FC0
7FE0
F0F0
E070
C030
ENDCHAR
STARTCHAR 0330
ENCODING 816
SWIDTH 0 0
DWIDTH 0 0
BBX 12 4 -20 -8
BITMAP
3820
7E20
FFF0
43E0
ENDCHAR
STARTCHAR 0331
ENCODING 817
SWIDTH 0 0
DWIDTH 0 0
BBX 14 3 -21 -7
BITMAP
FFFC
FFFC
FFFC
ENDCHAR
STARTCHAR 0332
ENCODING 818
SWIDTH 0 0
DWIDTH 0 0
BBX 12 3 -15 -6
BITMAP
FFF0
FFF0
FFF0
ENDCHAR
STARTCHAR 0333
ENCODING 819
SWIDTH 0 0
DWIDTH 0 0
BBX 12 10 -15 -13
BITMAP
FFF0
FFF0
FFF0
0000
0000
0000
0000
FFF0
FFF0
FFF0
ENDCHAR
STARTCHAR 0338
ENCODING 824
SWIDTH 0 0
DWIDTH 0 0
BBX 14 33 -16 -6
BITMAP
001C
001C
001C
0038
0038
0038
0070
0070
00F0
00E0
00E0
01E0
01C0
01C0
03C0
0380
0380
0780
0700
0700
0F00
0E00
0E00
1E00
1C00
1C00
3C00
3800
3800
7000
7000
7000
E000
ENDCHAR
STARTCHAR 033F
ENCODING 831
SWIDTH 0 0
DWIDTH 0 0
BBX 12 10 -15 27
BITMAP
FFF0
FFF0
FFF0
0000
0000
0000
0000
FFF0
FFF0
FFF0
ENDCHAR
STARTCHAR 034D
ENCODING 845
SWIDTH 0 0
DWIDTH 0 0
BBX 24 13 -21 -15
BITMAP
004200
01C380
03C3E0
0F81F8
3E007C
FFFFFF
FFFFFF
FFFFFF
3E003E
1F00F8
07C3F0
01C3C0
00C300
ENDCHAR
STARTCHAR 0361
ENCODING 865
SWIDTH 268 0
DWIDTH 11 0
BBX 13 4 4 27
BITMAP
1FC0
3FF0
7FF8
E038
ENDCHAR
STARTCHAR 0391
ENCODING 913
SWIDTH 731 0
DWIDTH 30 0
BBX 29 30 1 0
BITMAP
000F0000
000F8000
001F8000
001F8000
003DC000
0039C000
0039E000
0070E000
0070F000
00F07000
00E07000
01E03800
01C03800
01C03C00
03801C00
03801E00
07800E00
07FFFE00
0FFFFF00
0FFFFF00
0E000780
1C000380
1C0003C0
3C0001C0
380001C0
780000E0
700000E0
700000F0
E0000070
E0000078
ENDCHAR
STARTCHAR 0392
ENCODING 914
SWIDTH 585 0
DWIDTH 24 0
BBX 19 30 3 0
BITMAP
FFF000
FFFE00
FFFF00
E00F80
E00380
E00380
E003C0
E003C0
E003C0
E00380
E00380
E00780
E01F00
FFFE00
FFFE00
FFFF80
E007C0
E001C0
E000E0
E000E0
E000E0
E000E0
E000E0
E000E0
E000E0
E001E0
E007C0
FFFF80
FFFF00
FFF800
ENDCHAR
STARTCHAR 0393
ENCODING 915
SWIDTH 487 0
DWIDTH 20 0
BBX 15 30 3 0
BITMAP
FFFE
FFFE
FFFE
E000
E000
E000
E000
E000
E000
E000
E000
E000
E000
E000
E000
E000
E000
E000
E000
E000
E000
E000
E000
E000
E000
E000
E000
E000
E000
E000
ENDCHAR
STARTCHAR 0394
ENCODING 916
SWIDTH 634 0
DWIDTH 26 0
BBX 26 28 0 0
BITMAP
000E0000
001E0000
001F0000
003F0000
003F8000
007B8000
00738000
0073C000
00F1C000
00E1E000
01E0E000
01C0F000
03C0F000
03C07000
03807800
07803800
07003C00
0F001C00
0E001E00
0E001E00
1E000E00
1C000F00
3C000700
38000780
78000780
7FFFFF80
7FFFFFC0
FFFFFFC0
ENDCHAR
STARTCHAR 0395
ENCODING 917
SWIDTH 536 0
DWIDTH 22 0
BBX 17 30 3 0
BITMAP
FFFF80
FFFF80
FFFF80
E00000
E00000
E00000
E00000
E00000
E00000
E00000
E00000
E00000
E00000
FFFF00
FFFF00
FFFF00
E00000
E00000
E00000
E00000
E00000
E00000
E00000
E00000
E00000
E00000
E00000
FFFF80
FFFF80
FFFF80
ENDCHAR
STARTCHAR 0396
ENCODING 918
SWIDTH 487 0
DWIDTH 20 0
BBX 18 30 1 0
BITMAP
FFFFC0
FFFFC0
FFFFC0
0003C0
000380
000700
000F00
000E00
001C00
003C00
003800
007800
007000
00E000
01E000
01C000
03C000
038000
070000
0F0000
0E0000
1E0000
1C0000
380000
780000
700000
F00000
FFFFC0
FFFFC0
FFFFC0
ENDCHAR
STARTCHAR 0397
ENCODING 919
SWIDTH 682 0
DWIDTH 28 0
BBX 22 30 3 0
BITMAP
E0001C
E0001C
E0001C
E0001C
E0001C
E0001C
E0001C
E0001C
E0001C
E0001C
E0001C
E0001C
E0001C
FFFFFC
FFFFFC
FFFFFC
E0001C
E0001C
E0001C
E0001C
E0001C
E0001C
E0001C
E0001C
E0001C
E0001C
E0001C
E0001C
E0001C
E0001C
ENDCHAR
STARTCHAR 0398
ENCODING 920
SWIDTH 878 0
DWIDTH 36 0
BBX 32 32 2 -1
BITMAP
000FF000
007FFE00
01FFFF80
03F00FC0
078003E0
0F0000F0
1E000078
3C00003C
3800001C
7000001E
7000000E
F000000E
E000000F
E0000007
E03FFC07
E03FFC07
E03FFC07
E0000007
E000000F
F000000E
7000000E
7000001E
7800001C
3800003C
3C000038
1E000078
0F0000F0
07C003E0
03F00FC0
01FFFF00
007FFC00
000FF000
ENDCHAR
STARTCHAR 0399
ENCODING 921
SWIDTH 219 0
DWIDTH 9 0
BBX 3 30 3 0
BITMAP
E0
E0
E0
E0
E0
E0
E0
E0
E0
E0
E0
E0
E0
E0
E0
E0
E0
E0
E0
E0
E0
E0
E0
E0
E0
E0
E0
E0
E0
E0
ENDCHAR
STARTCHAR 039A
ENCODING 922
SWIDTH 585 0
DWIDTH 24 0
BBX 21 30 3 0
BITMAP
E00078
E000F0
E001E0
E003C0
E00380
E00700
E00F00
E01E00
E03C00
E07800
E07000
E0F000
E1E000
E3C000
E78000
E7C000
EFC000
FFE000
FCF000
F87800
F03C00
E01C00
E01E00
E00F00
E00780
E00380
E003C0
E001E0
E000F0
E00078
ENDCHAR
STARTCHAR 039B
ENCODING 923
SWIDTH 731 0
DWIDTH 30 0
BBX 29 30 1 0
BITMAP
000F0000
000F8000
001F8000
001F8000
003DC000
0039C000
0039E000
0070E000
0070F000
00F07000
00E07000
01E03800
01C03800
01C03C00
03801C00
03801E00
07000E00
07000E00
0F000700
0E000700
0E000780
1C000380
1C0003C0
380001C0
380001C0
780000E0
700000E0
700000F0
E0000070
E0000078
ENDCHAR
STARTCHAR 039C
ENCODING 924
SWIDTH 926 0
DWIDTH 38 0
BBX 32 30 3 0
BITMAP
F800001F
F800003F
FC00003F
FC000077
EE000077
EE0000F7
EF0000E7
E70000E7
E78001C7
E38001C7
E3800387
E1C00387
E1C00787
E1E00707
E0E00707
E0F00E07
E0700E07
E0701C07
E0381C07
E0383C07
E03C3807
E01C3807
E01E7007
E00E7007
E00EE007
E007E007
E007E007
E007C007
E003C007
E0038007
ENDCHAR
STARTCHAR 039D
ENCODING 925
SWIDTH 731 0
DWIDTH 30 0
BBX 24 30 3 0
BITMAP
F80007
F80007
FC0007
FE0007
EE0007
EF0007
E78007
E38007
E3C007
E1E007
E0E007
E07007
E07807
E03807
E01C07
E01E07
E00E07
E00707
E00787
E003C7
E001C7
E001E7
E000F7
E00077
E0007F
E0003F
E0001F
E0001F
E0000F
E00007
ENDCHAR
STARTCHAR 039E
ENCODING 926
SWIDTH 682 0
DWIDTH 28 0
BBX 24 30 2 0
BITMAP
FFFFFF
FFFFFF
FFFFFF
000000
000000
000000
000000
000000
000000
000000
000000
000000
000000
1FFFF8
1FFFF8
1FFFF8
000000
000000
000000
000000
000000
000000
000000
000000
000000
000000
000000
FFFFFF
FFFFFF
FFFFFF
ENDCHAR
STARTCHAR 039F
ENCODING 927
SWIDTH 878 0
DWIDTH 36 0
BBX 32 32 2 -1
BITMAP
000FF000
007FFE00
01FFFF00
03F00FC0
07C003E0
0F0000F0
1E000078
3C000038
3800003C
7800001C
7000000E
F000000E
E000000E
E000000F
E0000007
E0000007
E0000007
E0000007
E0000007
E000000E
F000000E
7000000E
7800001C
3800003C
3C000038
1E000078
0F0000F0
07C003E0
03F00FC0
01FFFF00
007FFE00
000FF000
ENDCHAR
STARTCHAR 03A0
ENCODING 928
SWIDTH 634 0
DWIDTH 26 0
BBX 22 28 3 0
BITMAP
FFFFFC
FFFFFC
FFFFFC
E0001C
E0001C
E0001C
E0001C
E0001C
E0001C
E0001C
E0001C
E0001C
E0001C
E0001C
E0001C
E0001C
E0001C
E0001C
E0001C
E0001C
E0001C
E0001C
E0001C
E0001C
E0001C
E0001C
E0001C
E0001C
ENDCHAR
STARTCHAR 03A1
ENCODING 929
SWIDTH 585 0
DWIDTH 24 0
BBX 20 30 3 0
BITMAP
FFFC00
FFFF00
FFFFC0
E003E0
E000E0
E000F0
E00070
E00070
E00070
E00070
E00070
E00070
E000F0
E000E0
E003E0
FFFFC0
FFFF80
FFFC00
E00000
E00000
E00000
E00000
E00000
E00000
E00000
E00000
E00000
E00000
E00000
E00000
ENDCHAR
STARTCHAR 03A3
ENCODING 931
SWIDTH 463 0
DWIDTH 19 0
BBX 18 28 0 0
BITMAP
7FFFC0
7FFFC0
7FFFC0
780000
380000
3C0000
1E0000
1E0000
0F0000
078000
078000
03C000
01C000
01E000
01E000
03C000
038000
078000
0F0000
0F0000
1E0000
1C0000
3C0000
780000
780000
FFFFC0
FFFFC0
FFFFC0
ENDCHAR
STARTCHAR 03A4
ENCODING 932
SWIDTH 414 0
DWIDTH 17 0
BBX 17 30 0 0
BITMAP
FFFF80
FFFF80
FFFF80
01C000
01C000
01C000
01C000
01C000
01C000
01C000
01C000
01C000
01C000
01C000
01C000
01C000
01C000
01C000
01C000
01C000
01C000
01C000
01C000
01C000
01C000
01C000
01C000
01C000
01C000
01C000
ENDCHAR
STARTCHAR 03A5
ENCODING 933
SWIDTH 585 0
DWIDTH 24 0
BBX 24 30 0 0
BITMAP
F00007
70000E
78000E
38001C
3C003C
1C0038
1E0078
0E0070
0700F0
0700E0
0381E0
0381C0
01C3C0
01C380
00E780
00E700
007E00
007E00
003C00
003C00
001C00
001C00
001C00
001C00
001C00
001C00
001C00
001C00
001C00
001C00
ENDCHAR
STARTCHAR 03A6
ENCODING 934
SWIDTH 804 0
DWIDTH 33 0
BBX 28 30 3 0
BITMAP
000E0000
000E0000
000E0000
000E0000
000E0000
000E0000
007FE000
07FFFC00
1FFFFF00
3F0E3F80
7C0E07C0
700E01E0
E00E00E0
E00E00E0
E00E0070
E00E0070
E00E00E0
E00E00E0
F00E01E0
7C0E03C0
3F8E1F80
1FFFFF00
07FFFC00
00FFE000
000E0000
000E0000
000E0000
000E0000
000E0000
000E0000
ENDCHAR
STARTCHAR 03A7
ENCODING 935
SWIDTH 609 0
DWIDTH 25 0
BBX 23 30 1 0
BITMAP
F0001E
70001C
380038
3C0078
1C0070
0E00E0
0F01E0
0701C0
038380
03C780
01C700
01EE00
00FE00
007C00
007800
007C00
00FE00
00EE00
01EF00
03C780
038380
0783C0
0F01E0
0E00E0
1E00F0
3C0078
380038
78003C
F0001E
E0000E
ENDCHAR
STARTCHAR 03A8
ENCODING 936
SWIDTH 804 0
DWIDTH 33 0
BBX 27 30 3 0
BITMAP
E00E00E0
E00E00E0
E00E00E0
E00E00E0
E00E00E0
E00E00E0
E00E00E0
E00E00E0
E00E00E0
E00E00E0
E00E00E0
F00E01C0
700E01C0
780E0380
3C0E0780
1E0E1F00
0FCE7E00
07FFFC00
03FFF000
007FC000
000E0000
000E0000
000E0000
000E0000
000E0000
000E0000
000E0000
000E0000
000E0000
000E0000
ENDCHAR
STARTCHAR 03A9
ENCODING 937
SWIDTH 804 0
DWIDTH 33 0
BBX 30 28 1 0
BITMAP
001FF000
007FFC00
01FFFF00
03F01F80
0FC007C0
0F0001E0
1E0000F0
3C000078
38000078
7800003C
7000003C
7000001C
7000001C
F000001C
F000001C
F000001C
7000001C
7000003C
7800003C
38000038
3C000078
1E0000F0
1F0001F0
0F8003E0
07E00FC0
3FF01FF0
3FF01FF0
3FF01FF0
ENDCHAR
STARTCHAR 03B1
ENCODING 945
SWIDTH 707 0
DWIDTH 29 0
BBX 23 24 3 -1
BITMAP
01F800
07FE0E
0FFF0E
1F0F9C
3C039C
7801FC
7001F8
7000F8
E000F8
E000F8
E000F0
E00070
E00070
E000F0
E000F0
E000F0
F000F0
7001F0
7801F8
3C03B8
1F0FBC
0FFF1E
07FE0E
01F806
ENDCHAR
STARTCHAR 03B2
ENCODING 946
SWIDTH 487 0
DWIDTH 20 0
BBX 15 40 2 -9
BITMAP
03E0
0FF0
1FF8
3C3C
381C
701C
701E
700E
700E
700E
701C
701C
703C
70F8
77F0
77E0
77F0
70F8
703C
701E
700E
700E
700E
700E
700E
700E
700E
701C
7C3C
7FF8
7FF0
77E0
7000
7000
F000
E000
E000
E000
E000
E000
ENDCHAR
STARTCHAR 03B3
ENCODING 947
SWIDTH 487 0
DWIDTH 20 0
BBX 22 29 0 -7
BITMAP
F0001C
780038
3C0038
3E0078
1E0070
0F00F0
0780E0
0780E0
03C1E0
03C1C0
01C3C0
01E380
00E380
00E700
00F700
007F00
007E00
007E00
007C00
007C00
007800
007800
007800
007800
007800
007800
007800
007800
007800
ENDCHAR
STARTCHAR 03B4
ENCODING 948
SWIDTH 707 0
DWIDTH 29 0
BBX 23 31 3 -1
BITMAP
1FFFE0
1FFFE0
3FFFE0
0F8000
07E000
01F000
00FC00
003E00
01FF80
07FFC0
1F87E0
3E00F0
380078
78003C
70001C
E0001C
E0000E
E0000E
E0000E
E0000E
E0000E
E0000E
E0001E
F0001C
70001C
780038
3C0078
1F01F0
0FFFE0
07FF80
00FE00
ENDCHAR
STARTCHAR 03B5
ENCODING 949
SWIDTH 487 0
DWIDTH 20 0
BBX 16 25 3 -1
BITMAP
07E0
1FFC
3FFE
781E
7000
E000
E000
E000
F000
7800
3FE0
1FE0
3FE0
7800
E000
E000
E000
E000
E000
F000
7002
7C0E
3FFF
1FFE
07F0
ENDCHAR
STARTCHAR 03B6
ENCODING 950
SWIDTH 414 0
DWIDTH 17 0
BBX 12 37 3 -7
BITMAP
FFF0
FFF0
FFF0
03C0
0780
0F00
1E00
1C00
3800
3800
7000
7000
7000
E000
E000
E000
E000
E000
E000
E000
E000
E000
E000
E000
E000
7000
7800
3F80
3FC0
0FE0
00E0
0070
0070
0070
0070
0070
0070
ENDCHAR
STARTCHAR 03B7
ENCODING 951
SWIDTH 609 0
DWIDTH 25 0
BBX 19 31 3 -8
BITMAP
01F800
E7FE00
EFFF80
FC0780
F803C0
F001E0
E000E0
E000E0
E000E0
E000E0
E000E0
E000E0
E000E0
E000E0
E000E0
E000E0
E000E0
E000E0
E000E0
E000E0
E000E0
E000E0
E000E0
0000E0
0000E0
0000E0
0000E0
0000E0
0000E0
0000E0
0000E0
ENDCHAR
STARTCHAR 03B8
ENCODING 952
SWIDTH 536 0
DWIDTH 22 0
BBX 17 32 3 -1
BITMAP
03E000
0FF000
1FF800
3C3C00
381E00
700E00
700600
600700
E00700
E00700
E00700
E00380
E00380
E00380
E00380
FFFF80
FFFF80
FFFF80
E00380
E00380
E00380
E00700
E00700
E00700
600700
700600
700E00
380E00
3C3C00
1FF800
0FF000
03E000
ENDCHAR
STARTCHAR 03B9
ENCODING 953
SWIDTH 317 0
DWIDTH 13 0
BBX 6 23 5 -1
BITMAP
E0
E0
E0
E0
E0
E0
E0
E0
E0
E0
E0
E0
E0
E0
E0
E0
E0
60
70
78
3C
3C
0C
ENDCHAR
STARTCHAR 03BA
ENCODING 954
SWIDTH 512 0
DWIDTH 21 0
BBX 17 22 3 0
BITMAP
E00700
E00F00
E01E00
E03C00
E03800
E07000
E0F000
E1E000
E3C000
E38000
E78000
EF0000
FF8000
FFC000
F9E000
F0F000
E07800
E03C00
E01C00
E01E00
E00F00
E00780
ENDCHAR
STARTCHAR 03BB
ENCODING 955
SWIDTH 609 0
DWIDTH 25 0
BBX 19 31 3 0
BITMAP
0C0000
0F0000
0F8000
07C000
01E000
00E000
00F000
007000
007000
007800
003800
007800
007C00
00FC00
00FC00
01FC00
01CE00
03CE00
038E00
078700
070700
0F0700
0E0780
1E0380
1C0380
3C03C0
3801C0
7801C0
7001E0
F000E0
E000E0
ENDCHAR
STARTCHAR 03BC
ENCODING 956
SWIDTH 609 0
DWIDTH 25 0
BBX 19 30 3 -8
BITMAP
E000E0
E000E0
E000E0
E000E0
E000E0
E000E0
E000E0
E000E0
E000E0
E000E0
E000E0
E000E0
E000E0
E000E0
E000E0
E000E0
E001E0
F001E0
F803E0
FE07E0
EFFEE0
E7FCE0
E1F800
E00000
E00000
E00000
E00000
E00000
E00000
E00000
ENDCHAR
STARTCHAR 03BD
ENCODING 957
SWIDTH 487 0
DWIDTH 20 0
BBX 17 23 1 -1
BITMAP
F00700
700700
700700
700780
780380
380380
380380
380380
1C0380
1C0780
1C0700
1E0700
0E0700
0E0F00
0E0E00
071E00
071C00
073C00
07F800
03F000
03E000
03C000
008000
ENDCHAR
STARTCHAR 03BE
ENCODING 958
SWIDTH 390 0
DWIDTH 16 0
BBX 11 37 3 -7
BITMAP
FFE0
FFE0
FFE0
7800
7000
E000
E000
E000
E000
F000
7800
3E00
1F80
0F80
1F80
3C00
7800
F000
E000
E000
E000
E000
E000
E000
E000
E000
7000
7F00
3F80
1FC0
01C0
00C0
00C0
00C0
00C0
00C0
00C0
ENDCHAR
STARTCHAR 03BF
ENCODING 959
SWIDTH 658 0
DWIDTH 27 0
BBX 23 24 2 -1
BITMAP
00FE00
03FF80
0FFFE0
1F01F0
3C0078
380038
70003C
70001C
E0001E
E0000E
E0000E
E0000E
E0000E
E0000E
E0000E
E0000E
70001C
70001C
380038
3C0078
1F01F0
0FFFE0
03FF80
00FE00
ENDCHAR
STARTCHAR 03C0
ENCODING 960
SWIDTH 658 0
DWIDTH 27 0
BBX 21 23 3 -1
BITMAP
FFFFF8
FFFFF8
FFFFF8
3801C0
3801C0
3801C0
3801C0
3801C0
3801C0
3801C0
3801C0
3801C0
3801C0
3801C0
3801C0
3801C0
3801C0
3801C0
3801E0
3800E0
3800F0
380070
000030
ENDCHAR
STARTCHAR 03C1
ENCODING 961
SWIDTH 609 0
DWIDTH 25 0
BBX 19 30 3 -7
BITMAP
01F000
07FC00
1FFF00
3E0F00
3C0780
7803C0
7001C0
F001E0
E000E0
E000E0
E000E0
E000E0
E000E0
E000E0
E000E0
E000E0
E001E0
E001C0
E003C0
F80780
FE0F00
FFFF00
EFFC00
E3F000
E00000
E00000
E00000
E00000
E00000
E00000
ENDCHAR
STARTCHAR 03C2
ENCODING 962
SWIDTH 536 0
DWIDTH 22 0
BBX 16 30 3 -7
BITMAP
03F0
0FF8
1FFC
3E1E
780F
7007
7003
E000
E000
E000
E000
E000
E000
E000
E000
E000
F000
7000
7800
3E00
1FF8
0FFE
03FE
000F
0007
0003
0003
0003
0003
0003
ENDCHAR
STARTCHAR 03C3
ENCODING 963
SWIDTH 731 0
DWIDTH 30 0
BBX 25 26 3 -1
BITMAP
00000180
00007F80
00FFFF80
03FFFE00
0FFFE000
1F01F000
3C00F800
78003C00
70003C00
F0001C00
E0001E00
E0000E00
E0000E00
E0000E00
E0000E00
E0000E00
E0000E00
E0001E00
F0001C00
70003C00
78003800
3C007800
1F01F000
0FFFE000
07FF8000
00FE0000
ENDCHAR
STARTCHAR 03C4
ENCODING 964
SWIDTH 487 0
DWIDTH 20 0
BBX 14 23 3 -1
BITMAP
FFFC
FFFC
FFFC
0700
0700
0700
0700
0700
0700
0700
0700
0700
0700
0700
0700
0780
0380
03C0
01C0
01F0
00FC
007C
001C
ENDCHAR
STARTCHAR 03C5
ENCODING 965
SWIDTH 536 0
DWIDTH 22 0
BBX 17 23 3 -1
BITMAP
E00700
E00700
E00700
E00700
E00700
E00700
E00700
E00700
E00780
E00380
E00380
E00380
E00380
E00780
E00700
E00700
E00700
E00E00
F01E00
7C3C00
3FF800
1FF000
07C000
ENDCHAR
STARTCHAR 03C6
ENCODING 966
SWIDTH 707 0
DWIDTH 29 0
BBX 23 31 3 -8
BITMAP
0403E0
0C07F0
1E0FF8
3C0E3C
381C1C
781C0C
70180E
E0380E
E0380E
E0380E
E0380E
E0380E
E0380E
E0380E
E0380E
E0380E
F0381C
70383C
783838
3E38F8
1F39F0
0FFFE0
07FF80
00FE00
003800
003800
003800
003800
003800
003800
003800
ENDCHAR
STARTCHAR 03C7
ENCODING 967
SWIDTH 560 0
DWIDTH 23 0
BBX 17 29 3 -7
BITMAP
E00380
F00780
700700
780F00
380E00
3C1E00
1C1C00
1E3C00
0E3800
0F7800
077000
07F000
03E000
03E000
01C000
03E000
03E000
07F000
077000
0F7800
0E3800
1E3C00
1C1C00
3C1E00
380E00
380E00
700700
700700
E00380
ENDCHAR
STARTCHAR 03C8
ENCODING 968
SWIDTH 707 0
DWIDTH 29 0
BBX 23 38 3 -8
BITMAP
003800
003800
003800
003800
003800
003800
003800
003800
E0380E
E0380E
E0380E
E0380E
E0380E
E0380E
E0380E
E0380E
E0380E
E0380E
E0380E
E0380E
E0380E
E0380E
E0380E
E0380E
E0380E
F0381E
78383C
7E38F8
3FFFF0
0FFFE0
01FF00
003800
003800
003800
003800
003800
003800
003800
ENDCHAR
STARTCHAR 03C9
ENCODING 969
SWIDTH 707 0
DWIDTH 29 0
BBX 24 23 3 -1
BITMAP
60000E
E0000E
E0000E
E00006
E00007
E00007
E00007
E03807
E03807
E03807
E03807
E03807
E03807
E03807
E03C07
E03C07
E03C0E
E03C0E
707E0E
78EF1C
3FEFFC
1FC7F8
0F81E0
ENDCHAR
STARTCHAR 03D1
ENCODING 977
SWIDTH 585 0
DWIDTH 24 0
BBX 18 32 3 -1
BITMAP
07E000
1FF800
3FFC00
381E00
700E00
600700
E00700
E00700
E00380
700380
780380
3E0380
1FFFC0
07FFC0
007FC0
000380
000380
E00380
E00380
E00380
E00380
E00380
E00380
E00380
E00700
E00700
F00F00
780E00
7C3E00
3FFC00
1FF800
07E000
ENDCHAR
STARTCHAR 03D5
ENCODING 981
SWIDTH 658 0
DWIDTH 27 0
BBX 23 38 2 -8
BITMAP
003800
003800
003800
003800
003800
003800
003800
00FE00
03FFC0
0FFFE0
1F39F0
3C3878
78383C
70383C
F0381C
E0381E
E0380E
E0380E
E0380E
E0380E
E0380E
E0380E
E0380E
F0381C
70381C
78383C
3C3878
1F39F0
0FFFE0
07FFC0
00FF00
003800
003800
003800
003800
003800
003800
003800
ENDCHAR
STARTCHAR 03D6
ENCODING 982
SWIDTH 707 0
DWIDTH 29 0
BBX 24 30 3 -1
BITMAP
003C00
0FFF80
1FFFE0
0F01F0
000078
000038
00001C
60001C
E0000E
E0000E
E0000E
E0000E
E00007
E00007
E03807
E03807
E03807
E03807
E03807
E03807
E03807
E03C07
E03C07
E03C0E
E03C0E
707E0E
78EF1C
3FEFFC
1FC7F8
0F81E0
ENDCHAR
STARTCHAR 03F0
ENCODING 1008
SWIDTH 609 0
DWIDTH 25 0
BBX 21 24 2 -1
BITMAP
600020
700078
7800F8
3C00F8
1C00F0
1E01F0
0E01E0
0E01E0
0E03C0
0E0F80
0E3F80
0EFF80
0FFB80
0FE380
0F8380
1F0380
3C0380
3C0380
7C03C0
7801C0
F801E0
F800F0
F00070
200030
ENDCHAR
STARTCHAR 03F1
ENCODING 1009
SWIDTH 707 0
DWIDTH 29 0
BBX 23 34 3 -11
BITMAP
00FE00
03FF80
0FFFE0
1F01F0
3C00F8
780038
70003C
F0001C
E0001E
E0000E
E0000E
E0000E
E0000E
E0000E
E0000E
E0001E
F0001C
F0003C
F80038
7C0078
7F01F0
7FFFE0
3FFF80
3CFE00
1E0000
0F0000
0FC000
03F800
01FFC0
007FF0
0001FC
00001C
00000E
00000E
ENDCHAR
STARTCHAR 03F4
ENCODING 1012
SWIDTH 804 0
DWIDTH 33 0
BBX 32 32 2 -1
BITMAP
000FF000
007FFE00
01FFFF80
03F00FC0
078003E0
0F0000F0
1E000078
3C00003C
3800001C
7000001E
7000000E
F000000E
E000000F
E0000007
FFFFFFFF
FFFFFFFF
FFFFFFFF
E0000007
E000000F
E000000E
7000000E
7000001E
7800001C
3800003C
3C000038
1E000078
0F0000F0
07C003E0
03F00FC0
01FFFF00
007FFC00
000FF000
ENDCHAR
STARTCHAR 03F5
ENCODING 1013
SWIDTH 658 0
DWIDTH 27 0
BBX 22 24 2 -1
BITMAP
00FE00
03FFC0
0FFFE0
1F01F0
3C0078
38003C
700000
700000
E00000
E00000
FFFF00
FFFF00
FFFF00
E00000
E00000
F00000
700000
780000
3C003C
3E0078
1F01F0
0FFFE0
03FFC0
00FE00
ENDCHAR
STARTCHAR 0E3F
ENCODING 3647
SWIDTH 585 0
DWIDTH 24 0
BBX 19 36 3 -3
BITMAP
00C000
00C000
00C000
FFF000
FFFE00
FFFF00
E00F80
E00380
E00380
E003C0
E003C0
E003C0
E00380
E00380
E00780
E01F00
FFFE00
FFFE00
FFFF80
E007C0
E001C0
E000E0
E000E0
E000E0
E000E0
E000E0
E000E0
E000E0
E001E0
E007C0
FFFF80
FFFF00
FFF800
00C000
00C000
00C000
ENDCHAR
STARTCHAR 1E0C
ENCODING 7692
SWIDTH 756 0
DWIDTH 31 0
BBX 26 38 3 -8
BITMAP
FFFC0000
FFFF8000
FFFFE000
E003F800
E0007C00
E0003E00
E0001E00
E0000F00
E0000700
E0000780
E0000380
E0000380
E00003C0
E00001C0
E00001C0
E00001C0
E00001C0
E00003C0
E0000380
E0000380
E0000780
E0000700
E0000F00
E0001E00
E0003E00
E0007C00
E003F800
FFFFE000
FFFF8000
FFF80000
00000000
00000000
00000000
00E00000
00E00000
00E00000
00E00000
00E00000
ENDCHAR
STARTCHAR 1E0D
ENCODING 7693
SWIDTH 682 0
DWIDTH 28 0
BBX 24 38 2 -8
BITMAP
00000F
00000F
00000F
00000F
00000F
00000F
00000F
00FE0F
03FF8F
0FFFEF
1F01FF
3C007F
38003F
70001F
70000F
E0000F
E0000F
E0000F
E00007
E00007
E0000F
E0000F
E0000F
70001F
78001F
38003F
3E007F
1F01FF
0FFFEF
03FF8F
00FE00
000000
000000
001C00
001C00
001C00
001C00
001C00
ENDCHAR
STARTCHAR 1E0E
ENCODING 7694
SWIDTH 756 0
DWIDTH 31 0
BBX 26 37 3 -7
BITMAP
FFFC0000
FFFF8000
FFFFE000
E003F800
E0007C00
E0003E00
E0001E00
E0000F00
E0000700
E0000780
E0000380
E0000380
E00003C0
E00001C0
E00001C0
E00001C0
E00001C0
E00003C0
E0000380
E0000380
E0000780
E0000700
E0000F00
E0001E00
E0003E00
E0007C00
E003F800
FFFFE000
FFFF8000
FFF80000
00000000
00000000
00000000
00000000
3FFF0000
3FFF0000
3FFF0000
ENDCHAR
STARTCHAR 1E0F
ENCODING 7695
SWIDTH 682 0
DWIDTH 28 0
BBX 24 37 2 -7
BITMAP
00000F
00000F
00000F
00000F
00000F
00000F
00000F
00FE0F
03FF8F
0FFFEF
1F01FF
3C007F
38003F
70001F
70000F
E0000F
E0000F
E0000F
E00007
E00007
E0000F
E0000F
E0000F
70001F
78001F
38003F
3E007F
1F01FF
0FFFEF
03FF8F
00FE00
000000
000000
000000
07FFE0
07FFE0
07FFE0
ENDCHAR
STARTCHAR 1E24
ENCODING 7716
SWIDTH 682 0
DWIDTH 28 0
BBX 22 38 3 -8
BITMAP
E0001C
E0001C
E0001C
E0001C
E0001C
E0001C
E0001C
E0001C
E0001C
E0001C
E0001C
E0001C
E0001C
FFFFFC
FFFFFC
FFFFFC
E0001C
E0001C
E0001C
E0001C
E0001C
E0001C
E0001C
E0001C
E0001C
E0001C
E0001C
E0001C
E0001C
E0001C
000000
000000
000000
007800
007800
007800
007800
007800
ENDCHAR
STARTCHAR 1E25
ENCODING 7717
SWIDTH 609 0
DWIDTH 25 0
BBX 19 38 3 -8
BITMAP
E00000
E00000
E00000
E00000
E00000
E00000
E00000
E1F800
E7FE00
FFFF80
FC07C0
F803C0
F001E0
E000E0
E000E0
E000E0
E000E0
E000E0
E000E0
E000E0
E000E0
E000E0
E000E0
E000E0
E000E0
E000E0
E000E0
E000E0
E000E0
E000E0
000000
000000
000000
00E000
00E000
00E000
00E000
00E000
ENDCHAR
STARTCHAR 1E26
ENCODING 7718
SWIDTH 682 0
DWIDTH 28 0
BBX 22 37 3 0
BITMAP
03CF00
03CF00
03CF00
03CF00
03CF00
000000
000000
E0001C
E0001C
E0001C
E0001C
E0001C
E0001C
E0001C
E0001C
E0001C
E0001C
E0001C
E0001C
E0001C
FFFFFC
FFFFFC
FFFFFC
E0001C
E0001C
E0001C
E0001C
E0001C
E0001C
E0001C
E0001C
E0001C
E0001C
E0001C
E0001C
E0001C
E0001C
ENDCHAR
STARTCHAR 1E27
ENCODING 7719
SWIDTH 609 0
DWIDTH 25 0
BBX 19 37 3 0
BITMAP
071C00
071C00
071C00
071C00
071C00
000000
000000
E00000
E00000
E00000
E00000
E00000
E00000
E00000
E1F800
E7FE00
FFFF80
FC07C0
F803C0
F001E0
E000E0
E000E0
E000E0
E000E0
E000E0
E000E0
E000E0
E000E0
E000E0
E000E0
E000E0
E000E0
E000E0
E000E0
E000E0
E000E0
E000E0
ENDCHAR
STARTCHAR 1E2A
ENCODING 7722
SWIDTH 682 0
DWIDTH 28 0
BBX 22 37 3 -7
BITMAP
E0001C
E0001C
E0001C
E0001C
E0001C
E0001C
E0001C
E0001C
E0001C
E0001C
E0001C
E0001C
E0001C
FFFFFC
FFFFFC
FFFFFC
E0001C
E0001C
E0001C
E0001C
E0001C
E0001C
E0001C
E0001C
E0001C
E0001C
E0001C
E0001C
E0001C
E0001C
000000
000000
000000
070380
078780
03FF00
01FE00
ENDCHAR
STARTCHAR 1E2B
ENCODING 7723
SWIDTH 609 0
DWIDTH 25 0
BBX 19 37 3 -7
BITMAP
E00000
E00000
E00000
E00000
E00000
E00000
E00000
E1F800
E7FE00
FFFF80
FC07C0
F803C0
F001E0
E000E0
E000E0
E000E0
E000E0
E000E0
E000E0
E000E0
E000E0
E000E0
E000E0
E000E0
E000E0
E000E0
E000E0
E000E0
E000E0
E000E0
000000
000000
000000
0C0700
0E0E00
07FC00
03F800
ENDCHAR
STARTCHAR 1E2E
ENCODING 7726
SWIDTH 219 0
DWIDTH 9 0
BBX 11 46 0 0
BITMAP
0040
01C0
03E0
0F80
3F00
3C00
3000
0000
0000
E380
E380
E380
E380
E380
0000
0000
1C00
1C00
1C00
1C00
1C00
1C00
1C00
1C00
1C00
1C00
1C00
1C00
1C00
1C00
1C00
1C00
1C00
1C00
1C00
1C00
1C00
1C00
1C00
1C00
1C00
1C00
1C00
1C00
1C00
1C00
ENDCHAR
STARTCHAR 1E2F
ENCODING 7727
SWIDTH 195 0
DWIDTH 8 0
BBX 10 39 0 0
BITMAP
0080
03C0
0FC0
1F00
7C00
3800
2000
0000
0000
E380
E380
E380
E380
E380
0000
0000
0000
1C00
1C00
1C00
1C00
1C00
1C00
1C00
1C00
1C00
1C00
1C00
1C00
1C00
1C00
1C00
1C00
1C00
1C00
1C00
1C00
1C00
1C00
ENDCHAR
STARTCHAR 1E36
ENCODING 7734
SWIDTH 463 0
DWIDTH 19 0
BBX 16 38 3 -8
BITMAP
E000
E000
E000
E000
E000
E000
E000
E000
E000
E000
E000
E000
E000
E000
E000
E000
E000
E000
E000
E000
E000
E000
E000
E000
E000
E000
E000
FFFF
FFFF
FFFF
0000
0000
0000
0380
0380
0380
0380
0380
ENDCHAR
STARTCHAR 1E37
ENCODING 7735
SWIDTH 195 0
DWIDTH 8 0
BBX 3 38 3 -8
BITMAP
E0
E0
E0
E0
E0
E0
E0
E0
E0
E0
E0
E0
E0
E0
E0
E0
E0
E0
E0
E0
E0
E0
E0
E0
E0
E0
E0
E0
E0
E0
00
00
00
E0
E0
E0
E0
E0
ENDCHAR
STARTCHAR 1E38
ENCODING 7736
SWIDTH 463 0
DWIDTH 19 0
BBX 21 44 -2 -8
BITMAP
FFFC00
FFFC00
FFFC00
000000
000000
000000
070000
070000
070000
070000
070000
070000
070000
070000
070000
070000
070000
070000
070000
070000
070000
070000
070000
070000
070000
070000
070000
070000
070000
070000
070000
070000
070000
07FFF8
07FFF8
07FFF8
000000
000000
000000
001C00
001C00
001C00
001C00
001C00
ENDCHAR
STARTCHAR 1E39
ENCODING 7737
SWIDTH 195 0
DWIDTH 8 0
BBX 14 44 -3 -8
BITMAP
FFFC
FFFC
FFFC
0000
0000
0000
0380
0380
0380
0380
0380
0380
0380
0380
0380
0380
0380
0380
0380
0380
0380
0380
0380
0380
0380
0380
0380
0380
0380
0380
0380
0380
0380
0380
0380
0380
0000
0000
0000
0380
0380
0380
0380
0380
ENDCHAR
STARTCHAR 1E42
ENCODING 7746
SWIDTH 926 0
DWIDTH 38 0
BBX 32 38 3 -8
BITMAP
F800001F
F800003F
FC00003F
FC000077
EE000077
EE0000F7
EF0000E7
E70000E7
E78001C7
E38001C7
E3800387
E1C00387
E1C00787
E1E00707
E0E00707
E0F00E07
E0700E07
E0701C07
E0381C07
E0383C07
E03C3807
E01C3807
E01E7007
E00E7007
E00EE007
E007E007
E007E007
E007C007
E003C007
E0038007
00000000
00000000
00000000
00038000
00038000
00038000
00038000
00038000
ENDCHAR
STARTCHAR 1E43
ENCODING 7747
SWIDTH 926 0
DWIDTH 38 0
BBX 33 31 3 -8
BITMAP
03F007E000
EFFC1FF800
FFFE3FFE00
FC0F781E00
F007E00F00
F003E00700
E003C00780
E003C00380
E001C00380
E001C00380
E001C00380
E001C00380
E001C00380
E001C00380
E001C00380
E001C00380
E001C00380
E001C00380
E001C00380
E001C00380
E001C00380
E001C00380
E001C00380
0000000000
0000000000
0000000000
0001C00000
0001C00000
0001C00000
0001C00000
0001C00000
ENDCHAR
STARTCHAR 1E44
ENCODING 7748
SWIDTH 731 0
DWIDTH 30 0
BBX 24 37 3 0
BITMAP
001C00
001C00
001C00
001C00
001C00
000000
000000
F80007
F80007
FC0007
FE0007
EE0007
EF0007
E78007
E38007
E3C007
E1E007
E0E007
E07007
E07807
E03807
E01C07
E01E07
E00E07
E00707
E00787
E003C7
E001C7
E001E7
E000F7
E00077
E0007F
E0003F
E0001F
E0001F
E0000F
E00007
ENDCHAR
STARTCHAR 1E45
ENCODING 7749
SWIDTH 609 0
DWIDTH 25 0
BBX 19 30 3 0
BITMAP
00E000
00E000
00E000
00E000
00E000
000000
000000
01F800
E7FE00
EFFF80
FC0780
F803C0
F001E0
E000E0
E000E0
E000E0
E000E0
E000E0
E000E0
E000E0
E000E0
E000E0
E000E0
E000E0
E000E0
E000E0
E000E0
E000E0
E000E0
E000E0
ENDCHAR
STARTCHAR 1E46
ENCODING 7750
SWIDTH 731 0
DWIDTH 30 0
BBX 24 38 3 -8
BITMAP
F80007
F80007
FC0007
FE0007
EE0007
EF0007
E78007
E38007
E3C007
E1E007
E0E007
E07007
E07807
E03807
E01C07
E01E07
E00E07
E00707
E00787
E003C7
E001C7
E001E7
E000F7
E00077
E0007F
E0003F
E0001F
E0001F
E0000F
E00007
000000
000000
000000
001C00
001C00
001C00
001C00
001C00
ENDCHAR
STARTCHAR 1E47
ENCODING 7751
SWIDTH 609 0
DWIDTH 25 0
BBX 19 31 3 -8
BITMAP
01F800
E7FE00
EFFF80
FC0780
F803C0
F001E0
E000E0
E000E0
E000E0
E000E0
E000E0
E000E0
E000E0
E000E0
E000E0
E000E0
E000E0
E000E0
E000E0
E000E0
E000E0
E000E0
E000E0
000000
000000
000000
00E000
00E000
00E000
00E000
00E000
ENDCHAR
STARTCHAR 1E58
ENCODING 7768
SWIDTH 609 0
DWIDTH 25 0
BBX 21 37 3 0
BITMAP
00E000
00E000
00E000
00E000
00E000
000000
000000
FFF800
FFFF00
FFFFC0
E007E0
E001F0
E000F0
E00070
E00078
E00038
E00038
E00038
E00078
E00070
E00070
E000F0
E003E0
E3FFC0
E1FF00
E0F800
E07000
E07800
E03C00
E01E00
E00E00
E00F00
E00780
E003C0
E001C0
E001E0
E000F0
ENDCHAR
STARTCHAR 1E59
ENCODING 7769
SWIDTH 292 0
DWIDTH 12 0
BBX 9 30 3 0
BITMAP
7000
7000
7000
7000
7000
0000
0000
0380
EF80
FF80
FE00
F800
F000
E000
E000
E000
E000
E000
E000
E000
E000
E000
E000
E000
E000
E000
E000
E000
E000
E000
ENDCHAR
STARTCHAR 1E5A
ENCODING 7770
SWIDTH 609 0
DWIDTH 25 0
BBX 21 38 3 -8
BITMAP
FFF800
FFFF00
FFFFC0
E007E0
E001F0
E000F0
E00070
E00078
E00038
E00038
E00038
E00078
E00070
E00070
E000F0
E003E0
E3FFC0
E1FF00
E0F800
E07000
E07800
E03C00
E01E00
E00E00
E00F00
E00780
E003C0
E001C0
E001E0
E000F0
000000
000000
000000
00E000
00E000
00E000
00E000
00E000
ENDCHAR
STARTCHAR 1E5B
ENCODING 7771
SWIDTH 292 0
DWIDTH 12 0
BBX 9 31 3 -8
BITMAP
0380
EF80
FF80
FE00
F800
F000
E000
E000
E000
E000
E000
E000
E000
E000
E000
E000
E000
E000
E000
E000
E000
E000
E000
0000
0000
0000
E000
E000
E000
E000
E000
ENDCHAR
STARTCHAR 1E5C
ENCODING 7772
SWIDTH 609 0
DWIDTH 25 0
BBX 21 44 3 -8
BITMAP
1FFF00
1FFF00
1FFF00
000000
000000
000000
FFF800
FFFF00
FFFFC0
E007E0
E001F0
E000F0
E00070
E00078
E00038
E00038
E00038
E00078
E00070
E00070
E000F0
E003E0
E3FFC0
E1FF00
E0F800
E07000
E07800
E03C00
E01E00
E00E00
E00F00
E00780
E003C0
E001C0
E001E0
E000F0
000000
000000
000000
00E000
00E000
00E000
00E000
00E000
ENDCHAR
STARTCHAR 1E5D
ENCODING 7773
SWIDTH 292 0
DWIDTH 12 0
BBX 14 38 -1 -8
BITMAP
FFFC
FFFC
FFFC
0000
0000
0000
0000
0038
0EF8
0FF8
0FE0
0F80
0F00
0E00
0E00
0E00
0E00
0E00
0E00
0E00
0E00
0E00
0E00
0E00
0E00
0E00
0E00
0E00
0E00
0E00
0000
0000
0000
0E00
0E00
0E00
0E00
0E00
ENDCHAR
STARTCHAR 1E62
ENCODING 7778
SWIDTH 487 0
DWIDTH 20 0
BBX 19 39 1 -8
BITMAP
03F000
0FFE00
1FFF00
3C0F80
380780
780380
7003C0
7001C0
700000
700000
780000
380000
3E0000
1FC000
0FF800
03FE00
007F00
000F80
0007C0
0003C0
0001C0
0001C0
0001E0
E001E0
F001C0
F001C0
7001C0
780380
3E0F80
1FFF00
0FFE00
03F000
000000
000000
00E000
00E000
00E000
00E000
00E000
ENDCHAR
STARTCHAR 1E63
ENCODING 7779
SWIDTH 390 0
DWIDTH 16 0
BBX 14 31 1 -8
BITMAP
0FC0
1FE0
3FF0
7878
7038
7038
7000
7000
7800
7C00
3F80
1FE0
03F0
00F8
0038
003C
001C
E01C
E01C
F038
7878
7FF0
3FE0
0FC0
0000
0000
0700
0700
0700
0700
0700
ENDCHAR
STARTCHAR 1E6C
ENCODING 7788
SWIDTH 414 0
DWIDTH 17 0
BBX 17 38 0 -8
BITMAP
FFFF80
FFFF80
FFFF80
01C000
01C000
01C000
01C000
01C000
01C000
01C000
01C000
01C000
01C000
01C000
01C000
01C000
01C000
01C000
01C000
01C000
01C000
01C000
01C000
01C000
01C000
01C000
01C000
01C000
01C000
01C000
000000
000000
000000
01C000
01C000
01C000
01C000
01C000
ENDCHAR
STARTCHAR 1E6D
ENCODING 7789
SWIDTH 341 0
DWIDTH 14 0
BBX 13 38 0 -8
BITMAP
0700
0700
0700
0700
0700
0700
0700
0700
FFF8
FFF8
FFF8
0700
0700
0700
0700
0700
0700
0700
0700
0700
0700
0700
0700
0700
0700
0700
0700
0700
0700
0700
0000
0000
0000
0700
0700
0700
0700
0700
ENDCHAR
STARTCHAR 1E6E
ENCODING 7790
SWIDTH 414 0
DWIDTH 17 0
BBX 17 37 0 -7
BITMAP
FFFF80
FFFF80
FFFF80
01C000
01C000
01C000
01C000
01C000
01C000
01C000
01C000
01C000
01C000
01C000
01C000
01C000
01C000
01C000
01C000
01C000
01C000
01C000
01C000
01C000
01C000
01C000
01C000
01C000
01C000
01C000
000000
000000
000000
000000
3FFF00
3FFF00
3FFF00
ENDCHAR
STARTCHAR 1E6F
ENCODING 7791
SWIDTH 341 0
DWIDTH 14 0
BBX 14 37 0 -7
BITMAP
0700
0700
0700
0700
0700
0700
0700
0700
FFF8
FFF8
FFF8
0700
0700
0700
0700
0700
0700
0700
0700
0700
0700
0700
0700
0700
0700
0700
0700
0700
0700
0700
0000
0000
0000
0000
FFFC
FFFC
FFFC
ENDCHAR
STARTCHAR 1E80
ENCODING 7808
SWIDTH 951 0
DWIDTH 39 0
BBX 38 38 1 1
BITMAP
0007000000
0007800000
0003E00000
0001F80000
00007C0000
0000180000
0000000000
0000000000
E00070001C
E000780038
E000780038
F000F80038
7000F80038
7000FC0070
7001DC0070
3801DC0070
3801DC00E0
3801CE00E0
3C038E00E0
1C038E00E0
1C038701C0
1C070701C0
0E070701C0
0E07070380
0E07038380
0F0E038380
070E038380
070E03C700
070E01C700
039C01C700
039C01CE00
039C00EE00
03F800EE00
01F800EE00
01F800FC00
01F8007C00
00F0007C00
00F0007800
ENDCHAR
STARTCHAR 1E81
ENCODING 7809
SWIDTH 829 0
DWIDTH 34 0
BBX 34 31 0 0
BITMAP
0008000000
001E000000
001F000000
0007C00000
0003F00000
0000F00000
0000200000
0000000000
0000000000
F0000001C0
7000000380
7000000380
3801E00700
3801E00700
3801E00700
1C03F00E00
1C03F00E00
0E03F01C00
0E07381C00
0E07381C00
0707383800
070E1C3800
038E1C7000
038E1C7000
039C0E7000
01DC0EE000
01DC0EE000
01F807C000
00F807C000
00F807C000
0070038000
ENDCHAR
STARTCHAR 1E82
ENCODING 7810
SWIDTH 951 0
DWIDTH 39 0
BBX 38 39 1 0
BITMAP
0000010000
0000030000
00000F8000
00003F0000
00007C0000
0000F00000
0000E00000
0000000000
0000000000
E00070001C
E000780038
E000780038
F000F80038
7000F80038
7000FC0070
7001DC0070
3801DC0070
3801DC00E0
3801CE00E0
3C038E00E0
1C038E00E0
1C038701C0
1C070701C0
0E070701C0
0E07070380
0E07038380
0F0E038380
070E038380
070E03C700
070E01C700
039C01C700
039C01CE00
039C00EE00
03F800EE00
01F800EE00
01F800FC00
01F8007C00
00F0007C00
00F0007800
ENDCHAR
STARTCHAR 1E83
ENCODING 7811
SWIDTH 829 0
DWIDTH 34 0
BBX 34 31 0 0
BITMAP
0000040000
00001E0000
00003E0000
0000F80000
0003F00000
0003C00000
0001000000
0000000000
0000000000
F0000001C0
7000000380
7000000380
3801E00700
3801E00700
3801E00700
1C03F00E00
1C03F00E00
0E03F01C00
0E07381C00
0E07381C00
0707383800
070E1C3800
038E1C7000
038E1C7000
039C0E7000
01DC0EE000
01DC0EE000
01F807C000
00F807C000
00F807C000
0070038000
ENDCHAR
STARTCHAR 1E84
ENCODING 7812
SWIDTH 951 0
DWIDTH 39 0
BBX 38 37 1 0
BITMAP
00038E0000
00038E0000
00038E0000
00038E0000
00038E0000
0000000000
0000000000
E00070001C
E000780038
E000780038
F000F80038
7000F80038
7000FC0070
7001DC0070
3801DC0070
3801DC00E0
3801CE00E0
3C038E00E0
1C038E00E0
1C038701C0
1C070701C0
0E070701C0
0E07070380
0E07038380
0F0E038380
070E038380
070E03C700
070E01C700
039C01C700
039C01CE00
039C00EE00
03F800EE00
01F800EE00
01F800FC00
01F8007C00
00F0007C00
00F0007800
ENDCHAR
STARTCHAR 1E85
ENCODING 7813
SWIDTH 829 0
DWIDTH 34 0
BBX 34 30 0 0
BITMAP
000E3C0000
000E3C0000
000E3C0000
000E3C0000
000E3C0000
0000000000
0000000000
0000000000
F0000001C0
7000000380
7000000380
3801E00700
3801E00700
3801E00700
1C03F00E00
1C03F00E00
0E03F01C00
0E07381C00
0E07381C00
0707383800
070E1C3800
038E1C7000
038E1C7000
039C0E7000
01DC0EE000
01DC0EE000
01F807C000
00F807C000
00F807C000
0070038000
ENDCHAR
STARTCHAR 1E92
ENCODING 7826
SWIDTH 487 0
DWIDTH 20 0
BBX 18 38 1 -8
BITMAP
FFFFC0
FFFFC0
FFFFC0
0003C0
000380
000700
000F00
000E00
001C00
003C00
003800
007800
007000
00E000
01E000
01C000
03C000
038000
070000
0F0000
0E0000
1E0000
1C0000
380000
780000
700000
F00000
FFFFC0
FFFFC0
FFFFC0
000000
000000
000000
00E000
00E000
00E000
00E000
00E000
ENDCHAR
STARTCHAR 1E93
ENCODING 7827
SWIDTH 414 0
DWIDTH 17 0
BBX 17 30 0 -8
BITMAP
7FFF00
7FFF00
7FFF00
000F00
001E00
001C00
003800
007800
00F000
00E000
01C000
03C000
078000
070000
0E0000
1E0000
3C0000
380000
780000
FFFF80
FFFF80
FFFF80
000000
000000
000000
01C000
01C000
01C000
01C000
01C000
ENDCHAR
STARTCHAR 1E97
ENCODING 7831
SWIDTH 341 0
DWIDTH 14 0
BBX 13 37 0 0
BITMAP
38E0
38E0
38E0
38E0
38E0
0000
0000
0700
0700
0700
0700
0700
0700
0700
0700
FFF8
FFF8
FFF8
0700
0700
0700
0700
0700
0700
0700
0700
0700
0700
0700
0700
0700
0700
0700
0700
0700
0700
0700
ENDCHAR
STARTCHAR 1EA0
ENCODING 7840
SWIDTH 731 0
DWIDTH 30 0
BBX 29 38 1 -8
BITMAP
000F0000
000F8000
001F8000
001F8000
003DC000
0039C000
0039E000
0070E000
0070F000
00F07000
00E07000
01E03800
01C03800
01C03C00
03801C00
03801E00
07800E00
07FFFE00
0FFFFF00
0FFFFF00
0E000780
1C000380
1C0003C0
3C0001C0
380001C0
780000E0
700000E0
700000F0
E0000070
E0000078
00000000
00000000
00000000
00070000
00070000
00070000
00070000
00070000
ENDCHAR
STARTCHAR 1EA1
ENCODING 7841
SWIDTH 682 0
DWIDTH 28 0
BBX 23 31 2 -8
BITMAP
00FE00
03FF8E
0FFFCE
1F01EE
3C007E
38003E
70001E
70001E
E0000E
E0000E
E0000E
E0000E
E0000E
E0000E
E0000E
F0000E
F0001E
78001E
78003E
3E007E
1F01FE
0FFFEE
03FF8E
00FE00
000000
000000
003800
003800
003800
003800
003800
ENDCHAR
STARTCHAR 1EA2
ENCODING 7842
SWIDTH 731 0
DWIDTH 30 0
BBX 29 40 1 0
BITMAP
000F8000
001FC000
0038C000
0030C000
0001C000
00038000
00070000
00060000
00000000
00000000
000F0000
000F8000
001F8000
001F8000
003DC000
0039C000
0039E000
0070E000
0070F000
00F07000
00E07000
01E03800
01C03800
01C03C00
03801C00
03801E00
07800E00
07FFFE00
0FFFFF00
0FFFFF00
0E000780
1C000380
1C0003C0
3C0001C0
380001C0
780000E0
700000E0
700000F0
E0000070
E0000078
ENDCHAR
STARTCHAR 1EA3
ENCODING 7843
SWIDTH 682 0
DWIDTH 28 0
BBX 23 33 2 -1
BITMAP
007C00
00FE00
00C700
01C700
000E00
001C00
001800
001800
000000
00FE00
03FF8E
0FFFCE
1F01EE
3C007E
38003E
70001E
70001E
E0000E
E0000E
E0000E
E0000E
E0000E
E0000E
E0000E
F0000E
F0001E
78001E
78003E
3E007E
1F01FE
0FFFEE
03FF8E
00FE00
ENDCHAR
STARTCHAR 1EA4
ENCODING 7844
SWIDTH 731 0
DWIDTH 30 0
BBX 29 45 1 0
BITMAP
00002000
0000F000
0001F000
0007C000
001F8000
000E0000
00080000
00000000
000F0000
001FC000
003DE000
0070F000
01E07800
00000000
00000000
000F0000
000F8000
001F8000
001F8000
003DC000
0039C000
0039E000
0070E000
0070F000
00F07000
00E07000
01E03800
01C03800
01C03C00
03801C00
03801E00
07800E00
07FFFE00
0FFFFF00
0FFFFF00
0E000780
1C000380
1C0003C0
3C0001C0
380001C0
780000E0
700000E0
700000F0
E0000070
E0000078
ENDCHAR
STARTCHAR 1EA5
ENCODING 7845
SWIDTH 682 0
DWIDTH 28 0
BBX 23 39 2 -1
BITMAP
000180
000380
000F80
003F00
007C00
007000
006000
000000
003C00
00FE00
01EF00
03C780
0783C0
000000
000000
00FE00
03FF8E
0FFFCE
1F01EE
3C007E
38003E
70001E
70001E
E0000E
E0000E
E0000E
E0000E
E0000E
E0000E
E0000E
F0000E
70001E
78001E
78003E
3E007E
1F01FE
0FFFEE
03FF8E
00FE00
ENDCHAR
STARTCHAR 1EA6
ENCODING 7846
SWIDTH 731 0
DWIDTH 30 0
BBX 29 45 1 0
BITMAP
00400000
00F00000
00FC0000
003E0000
000F8000
00078000
00010000
00000000
000F0000
001FC000
003DE000
0070F000
01E07800
00000000
00000000
000F0000
000F8000
001F8000
001F8000
003DC000
0039C000
0039E000
0070E000
0070F000
00F07000
00E07000
01E03800
01C03800
01C03C00
03801C00
03801E00
07800E00
07FFFE00
0FFFFF00
0FFFFF00
0E000780
1C000380
1C0003C0
3C0001C0
380001C0
780000E0
700000E0
700000F0
E0000070
E0000078
ENDCHAR
STARTCHAR 1EA7
ENCODING 7847
SWIDTH 682 0
DWIDTH 28 0
BBX 23 39 2 -1
BITMAP
030000
038000
03E000
01F800
007C00
001C00
000C00
000000
003C00
00FE00
01EF00
03C780
0783C0
000000
000000
00FE00
03FF8E
0FFFCE
1F01EE
3C007E
38003E
70001E
70001E
E0000E
E0000E
E0000E
E0000E
E0000E
E0000E
E0000E
F0000E
70001E
78001E
78003E
3E007E
1F01FE
0FFFEE
03FF8E
00FE00
ENDCHAR
STARTCHAR 1EA8
ENCODING 7848
SWIDTH 731 0
DWIDTH 30 0
BBX 29 47 1 0
BITMAP
0001F000
0003F800
00071800
00061800
00003800
00007000
00006000
0000E000
00000000
00000000
000F8000
001FC000
0039E000
0070F000
01E07800
00000000
00000000
000F0000
000F8000
001F8000
001F8000
003DC000
0039C000
0039E000
0070E000
0070F000
00F07000
00E07000
01E03800
01C03800
01C03C00
03801C00
03801E00
07800E00
07FFFE00
0FFFFF00
0FFFFF00
0E000780
1C000380
1C0003C0
3C0001C0
380001C0
780000E0
700000E0
700000F0
E0000070
E0000078
ENDCHAR
STARTCHAR 1EA9
ENCODING 7849
SWIDTH 682 0
DWIDTH 28 0
BBX 23 40 2 -1
BITMAP
000F80
001FC0
0018E0
001860
0001C0
0003C0
000300
000300
000000
003800
007C00
00FE00
01C780
0783C0
0F01E0
000000
00FE00
03FF8E
0FFFCE
1F01EE
3C007E
38003E
70001E
70001E
E0000E
E0000E
E0000E
E0000E
E0000E
E0000E
E0000E
F0000E
F0001E
78001E
78003E
3E007E
1F01FE
0FFFEE
03FF8E
00FE00
ENDCHAR
STARTCHAR 1EAA
ENCODING 7850
SWIDTH 731 0
DWIDTH 30 0
BBX 29 43 1 0
BITMAP
00380000
007E3000
00FFF000
0043E000
00000000
00000000
000F0000
001FC000
003DE000
0070F000
01E07800
00000000
00000000
000F0000
000F8000
001F8000
001F8000
003DC000
0039C000
0039E000
0070E000
0070F000
00F07000
00E07000
01E03800
01C03800
01C03C00
03801C00
03801E00
07800E00
07FFFE00
0FFFFF00
0FFFFF00
0E000780
1C000380
1C0003C0
3C0001C0
380001C0
780000E0
700000E0
700000F0
E0000070
E0000078
ENDCHAR
STARTCHAR 1EAB
ENCODING 7851
SWIDTH 682 0
DWIDTH 28 0
BBX 23 37 2 -1
BITMAP
008000
01F080
03FF80
033F80
000F00
000000
003800
007C00
00FE00
01C780
0783C0
000000
000000
00FE00
03FF8E
0FFFCE
1F01EE
3C007E
38003E
70001E
70001E
E0000E
E0000E
E0000E
E0000E
E0000E
E0000E
E0000E
F0000E
F0001E
78001E
78003E
3E007E
1F01FE
0FFFEE
03FF8E
00FE00
ENDCHAR
STARTCHAR 1EAC
ENCODING 7852
SWIDTH 731 0
DWIDTH 30 0
BBX 29 45 1 -8
BITMAP
000F0000
001FC000
003DE000
0070F000
01E07800
00000000
00000000
000F0000
000F8000
001F8000
001F8000
003DC000
0039C000
0039E000
0070E000
0070F000
00F07000
00E07000
01E03800
01C03800
01C03C00
03801C00
03801E00
07800E00
07FFFE00
0FFFFF00
0FFFFF00
0E000780
1C000380
1C0003C0
3C0001C0
380001C0
780000E0
700000E0
700000F0
E0000070
E0000078
00000000
00000000
00000000
00070000
00070000
00070000
00070000
00070000
ENDCHAR
STARTCHAR 1EAD
ENCODING 7853
SWIDTH 682 0
DWIDTH 28 0
BBX 23 38 2 -8
BITMAP
003C00
00FE00
01EF00
03C780
0783C0
000000
000000
00FE00
03FF8E
0FFFCE
1F01EE
3C007E
38003E
70001E
70001E
E0000E
E0000E
E0000E
E0000E
E0000E
E0000E
E0000E
F0000E
F0001E
78001E
78003E
3E007E
1F01FE
0FFFEE
03FF8E
00FE00
000000
000000
003800
003800
003800
003800
003800
ENDCHAR
STARTCHAR 1EAE
ENCODING 7854
SWIDTH 731 0
DWIDTH 30 0
BBX 29 45 1 0
BITMAP
00003000
00007800
0001F000
0007E000
000F8000
000E0000
00040000
00000000
00E03000
00E07000
0079F000
003FE000
001F8000
00000000
00000000
000F0000
000F8000
001F8000
001F8000
003DC000
0039C000
0039E000
0070E000
0070F000
00F07000
00E07000
01E03800
01C03800
01C03C00
03801C00
03801E00
07800E00
07FFFE00
0FFFFF00
0FFFFF00
0E000780
1C000380
1C0003C0
3C0001C0
380001C0
780000E0
700000E0
700000F0
E0000070
E0000078
ENDCHAR
STARTCHAR 1EAF
ENCODING 7855
SWIDTH 682 0
DWIDTH 28 0
BBX 23 39 2 -1
BITMAP
000080
0001C0
0007C0
001F80
003E00
003800
002000
000000
0701C0
030180
038380
01FF00
00FE00
000000
000000
00FE00
03FF8E
0FFFCE
1F01EE
3C007E
38003E
70001E
70001E
E0000E
E0000E
E0000E
E0000E
E0000E
E0000E
E0000E
F0000E
F0001E
78001E
78003E
3E007E
1F01FE
0FFFEE
03FF8E
00FE00
ENDCHAR
STARTCHAR 1EB0
ENCODING 7856
SWIDTH 731 0
DWIDTH 30 0
BBX 29 45 1 0
BITMAP
00C00000
01E00000
00F80000
007E0000
001F0000
00070000
00000000
00000000
00E03000
00E07000
0079F000
003FE000
001F8000
00000000
00000000
000F0000
000F8000
001F8000
001F8000
003DC000
0039C000
0039E000
0070E000
0070F000
00F07000
00E07000
01E03800
01C03800
01C03C00
03801C00
03801E00
07800E00
07FFFE00
0FFFFF00
0FFFFF00
0E000780
1C000380
1C0003C0
3C0001C0
380001C0
780000E0
700000E0
700000F0
E0000070
E0000078
ENDCHAR
STARTCHAR 1EB1
ENCODING 7857
SWIDTH 682 0
DWIDTH 28 0
BBX 23 39 2 -1
BITMAP
020000
070000
07C000
03F000
00F800
003800
000800
000000
0701C0
030180
038380
01FF00
00FE00
000000
000000
00FE00
03FF8E
0FFFCE
1F01EE
3C007E
38003E
70001E
70001E
E0000E
E0000E
E0000E
E0000E
E0000E
E0000E
E0000E
F0000E
F0001E
78001E
78003E
3E007E
1F01FE
0FFFEE
03FF8E
00FE00
ENDCHAR
STARTCHAR 1EB2
ENCODING 7858
SWIDTH 731 0
DWIDTH 30 0
BBX 29 45 1 0
BITMAP
000F8000
001FC000
0038C000
0030C000
0001C000
00038000
00030000
00070000
00E63000
00E07000
0079F000
003FE000
001F8000
00000000
00000000
000F0000
000F8000
001F8000
001F8000
003DC000
0039C000
0039E000
0070E000
0070F000
00F07000
00E07000
01E03800
01C03800
01C03C00
03801C00
03801E00
07800E00
07FFFE00
0FFFFF00
0FFFFF00
0E000780
1C000380
1C0003C0
3C0001C0
380001C0
780000E0
700000E0
700000F0
E0000070
E0000078
ENDCHAR
STARTCHAR 1EB3
ENCODING 7859
SWIDTH 682 0
DWIDTH 28 0
BBX 23 38 2 -1
BITMAP
007C00
00FE00
00C700
01C700
000E00
001C00
001800
001800
0301C0
038380
01FF80
00FE00
000000
000000
00FE00
03FF8E
0FFFCE
1F01EE
3C007E
38003E
70001E
70001E
E0000E
E0000E
E0000E
E0000E
E0000E
E0000E
E0000E
F0000E
F0001E
78001E
78003E
3E007E
1F01FE
0FFFEE
03FF8E
00FE00
ENDCHAR
STARTCHAR 1EB4
ENCODING 7860
SWIDTH 731 0
DWIDTH 30 0
BBX 29 43 1 1
BITMAP
007C2000
00FFF000
0067F000
0041E000
00000000
00000000
00E03000
00E07000
0079F000
003FE000
001F8000
00000000
00000000
000F0000
000F8000
001F8000
001F8000
003DC000
0039C000
0039E000
0070E000
0070F000
00F07000
00E07000
01E03800
01C03800
01C03C00
03801C00
03801E00
07800E00
07FFFE00
0FFFFF00
0FFFFF00
0E000780
1C000380
1C0003C0
3C0001C0
380001C0
780000E0
700000E0
700000F0
E0000070
E0000078
ENDCHAR
STARTCHAR 1EB5
ENCODING 7861
SWIDTH 682 0
DWIDTH 28 0
BBX 23 37 2 -1
BITMAP
01E000
03F980
03FF80
031F80
000200
000000
0701C0
0301C0
038380
01FF00
00FE00
000000
000000
00FE00
03FF8E
0FFFCE
1F01EE
3C007E
38003E
70001E
70001E
E0000E
E0000E
E0000E
E0000E
E0000E
E0000E
E0000E
F0000E
F0001E
78001E
78003E
3E007E
1F01FE
0FFFEE
03FF8E
00FE00
ENDCHAR
STARTCHAR 1EB6
ENCODING 7862
SWIDTH 731 0
DWIDTH 30 0
BBX 29 45 1 -8
BITMAP
00E03000
00E07000
0079F000
003FE000
001F8000
00000000
00000000
000F0000
000F8000
001F8000
001F8000
003DC000
0039C000
0039E000
0070E000
0070F000
00F07000
00E07000
01E03800
01C03800
01C03C00
03801C00
03801E00
07800E00
07FFFE00
0FFFFF00
0FFFFF00
0E000780
1C000380
1C0003C0
3C0001C0
380001C0
780000E0
700000E0
700000F0
E0000070
E0000078
00000000
00000000
00000000
00070000
00070000
00070000
00070000
00070000
ENDCHAR
STARTCHAR 1EB7
ENCODING 7863
SWIDTH 682 0
DWIDTH 28 0
BBX 23 38 2 -8
BITMAP
0701C0
038180
03CF80
01FF00
00FC00
000000
000000
00FE00
03FF8E
0FFFCE
1F01EE
3C007E
38003E
70001E
70001E
E0000E
E0000E
E0000E
E0000E
E0000E
E0000E
E0000E
F0000E
F0001E
78001E
78003E
3E007E
1F01FE
0FFFEE
03FF8E
00FE00
000000
000000
003800
003800
003800
003800
003800
ENDCHAR
STARTCHAR 1EB8
ENCODING 7864
SWIDTH 536 0
DWIDTH 22 0
BBX 17 38 3 -8
BITMAP
FFFF80
FFFF80
FFFF80
E00000
E00000
E00000
E00000
E00000
E00000
E00000
E00000
E00000
E00000
FFFF00
FFFF00
FFFF00
E00000
E00000
E00000
E00000
E00000
E00000
E00000
E00000
E00000
E00000
E00000
FFFF80
FFFF80
FFFF80
000000
000000
000000
03C000
03C000
03C000
03C000
03C000
ENDCHAR
STARTCHAR 1EB9
ENCODING 7865
SWIDTH 658 0
DWIDTH 27 0
BBX 23 31 2 -8
BITMAP
00FE00
03FF80
0FFFE0
1F01F0
3C0078
380038
70003C
70001C
E0001E
E0000E
FFFFFE
FFFFFE
FFFFFE
E00000
E00000
E00000
70001C
70001C
380038
3C0078
1F01F0
0FFFE0
03FF80
00FE00
000000
000000
003800
003800
003800
003800
003800
ENDCHAR
STARTCHAR 1EBA
ENCODING 7866
SWIDTH 536 0
DWIDTH 22 0
BBX 17 40 3 0
BITMAP
03E000
07F000
063000
0C3800
007000
00F000
00C000
01C000
000000
000000
FFFF80
FFFF80
FFFF80
E00000
E00000
E00000
E00000
E00000
E00000
E00000
E00000
E00000
E00000
FFFF00
FFFF00
FFFF00
E00000
E00000
E00000
E00000
E00000
E00000
E00000
E00000
E00000
E00000
E00000
FFFF80
FFFF80
FFFF80
ENDCHAR
STARTCHAR 1EBB
ENCODING 7867
SWIDTH 658 0
DWIDTH 27 0
BBX 23 33 2 -1
BITMAP
007C00
00FE00
01C600
018700
000E00
001C00
001800
003800
000000
00FE00
03FF80
0FFFE0
1F01F0
3C0078
380038
70003C
70001C
E0001E
E0000E
FFFFFE
FFFFFE
FFFFFE
E00000
E00000
E00000
70001C
70001C
380038
3C0078
1F01F0
0FFFE0
03FF80
00FE00
ENDCHAR
STARTCHAR 1EBC
ENCODING 7868
SWIDTH 536 0
DWIDTH 22 0
BBX 17 37 3 0
BITMAP
0F0000
1F8C00
1FFC00
10F800
000000
000000
000000
FFFF80
FFFF80
FFFF80
E00000
E00000
E00000
E00000
E00000
E00000
E00000
E00000
E00000
E00000
FFFF00
FFFF00
FFFF00
E00000
E00000
E00000
E00000
E00000
E00000
E00000
E00000
E00000
E00000
E00000
FFFF80
FFFF80
FFFF80
ENDCHAR
STARTCHAR 1EBD
ENCODING 7869
SWIDTH 658 0
DWIDTH 27 0
BBX 23 31 2 -1
BITMAP
01E000
03F180
03FF80
021F00
000000
000000
000000
00FE00
03FF80
0FFFE0
1F01F0
3C0078
380038
70003C
70001C
E0001E
E0000E
FFFFFE
FFFFFE
FFFFFE
E00000
E00000
E00000
70001C
70001C
380038
3C0078
1F01F0
0FFFE0
03FF80
00FE00
ENDCHAR
STARTCHAR 1EBE
ENCODING 7870
SWIDTH 536 0
DWIDTH 22 0
BBX 17 45 3 0
BITMAP
000C00
001C00
007C00
01F800
03E000
038000
020000
000000
03E000
07F000
0F7800
1E3C00
381E00
000000
000000
FFFF80
FFFF80
FFFF80
E00000
E00000
E00000
E00000
E00000
E00000
E00000
E00000
E00000
E00000
FFFF00
FFFF00
FFFF00
E00000
E00000
E00000
E00000
E00000
E00000
E00000
E00000
E00000
E00000
E00000
FFFF80
FFFF80
FFFF80
ENDCHAR
STARTCHAR 1EBF
ENCODING 7871
SWIDTH 658 0
DWIDTH 27 0
BBX 23 39 2 -1
BITMAP
000100
000380
000F80
003F00
007C00
007000
004000
000000
007800
00FC00
01EF00
03C780
0783C0
000000
000000
00FE00
03FF80
0FFFE0
1F01F0
3C0078
380038
70003C
70001C
E0001E
E0000E
FFFFFE
FFFFFE
FFFFFE
E00000
E00000
E00000
70001C
70001C
380038
3C0078
1F01F0
0FFFE0
03FF80
00FE00
ENDCHAR
STARTCHAR 1EC0
ENCODING 7872
SWIDTH 536 0
DWIDTH 22 0
BBX 17 45 3 0
BITMAP
180000
1C0000
3F0000
0FC000
03E000
00E000
004000
000000
03E000
07F000
0F7800
1E3C00
381E00
000000
000000
FFFF80
FFFF80
FFFF80
E00000
E00000
E00000
E00000
E00000
E00000
E00000
E00000
E00000
E00000
FFFF00
FFFF00
FFFF00
E00000
E00000
E00000
E00000
E00000
E00000
E00000
E00000
E00000
E00000
E00000
FFFF80
FFFF80
FFFF80
ENDCHAR
STARTCHAR 1EC1
ENCODING 7873
SWIDTH 658 0
DWIDTH 27 0
BBX 23 39 2 -1
BITMAP
020000
038000
07E000
01F000
007C00
003C00
000800
000000
007800
00FC00
01EF00
03C780
0783C0
000000
000000
00FE00
03FF80
0FFFE0
1F01F0
3C0078
380038
70003C
70001C
E0001E
E0000E
FFFFFE
FFFFFE
FFFFFE
E00000
E00000
E00000
70001C
70001C
380038
3C0078
1F01F0
0FFFE0
03FF80
00FE00
ENDCHAR
STARTCHAR 1EC2
ENCODING 7874
SWIDTH 536 0
DWIDTH 22 0
BBX 17 47 3 0
BITMAP
007C00
00FE00
00C700
01C700
000E00
001E00
001800
001800
000000
000000
03E000
07F000
0F7800
1E3C00
380E00
000000
000000
FFFF80
FFFF80
FFFF80
E00000
E00000
E00000
E00000
E00000
E00000
E00000
E00000
E00000
E00000
FFFF00
FFFF00
FFFF00
E00000
E00000
E00000
E00000
E00000
E00000
E00000
E00000
E00000
E00000
E00000
FFFF80
FFFF80
FFFF80
ENDCHAR
STARTCHAR 1EC3
ENCODING 7875
SWIDTH 658 0
DWIDTH 27 0
BBX 23 40 2 -1
BITMAP
000F80
001FC0
0018E0
0038E0
0001C0
000380
000300
000300
000000
003800
007C00
00FE00
03C700
078380
0F01E0
000000
00FE00
03FF80
0FFFE0
1F01F0
3C0078
380038
70003C
70001C
E0001E
E0000E
FFFFFE
FFFFFE
FFFFFE
E00000
E00000
E00000
70001C
70001C
380038
3C0078
1F01F0
0FFFE0
03FF80
00FE00
ENDCHAR
STARTCHAR 1EC4
ENCODING 7876
SWIDTH 536 0
DWIDTH 22 0
BBX 17 43 3 0
BITMAP
0E0000
1F8C00
1FFC00
10FC00
001000
000000
03E000
07F000
0F7800
1E3C00
381E00
000000
000000
FFFF80
FFFF80
FFFF80
E00000
E00000
E00000
E00000
E00000
E00000
E00000
E00000
E00000
E00000
FFFF00
FFFF00
FFFF00
E00000
E00000
E00000
E00000
E00000
E00000
E00000
E00000
E00000
E00000
E00000
FFFF80
FFFF80
FFFF80
ENDCHAR
STARTCHAR 1EC5
ENCODING 7877
SWIDTH 658 0
DWIDTH 27 0
BBX 23 37 2 -1
BITMAP
008000
03E180
07FF80
033F80
020F00
000000
003800
007C00
00FE00
03C700
078380
000040
000000
00FE00
03FF80
0FFFE0
1F01F0
3C0078
380038
70003C
70001C
E0001E
E0000E
FFFFFE
FFFFFE
FFFFFE
E00000
E00000
E00000
70001C
70001C
380038
3C0078
1F01F0
0FFFE0
03FF80
00FE00
ENDCHAR
STARTCHAR 1EC6
ENCODING 7878
SWIDTH 536 0
DWIDTH 22 0
BBX 17 45 3 -8
BITMAP
03E000
07F000
0F7800
1E3C00
381E00
000000
000000
FFFF80
FFFF80
FFFF80
E00000
E00000
E00000
E00000
E00000
E00000
E00000
E00000
E00000
E00000
FFFF00
FFFF00
FFFF00
E00000
E00000
E00000
E00000
E00000
E00000
E00000
E00000
E00000
E00000
E00000
FFFF80
FFFF80
FFFF80
000000
000000
000000
03C000
03C000
03C000
03C000
03C000
ENDCHAR
STARTCHAR 1EC7
ENCODING 7879
SWIDTH 658 0
DWIDTH 27 0
BBX 23 38 2 -8
BITMAP
007800
00FE00
01EF00
03C780
0783C0
000000
000000
00FE00
03FF80
0FFFE0
1F01F0
3C0078
380038
70003C
70001C
E0001E
E0000E
FFFFFE
FFFFFE
FFFFFE
E00000
E00000
E00000
70001C
70001C
380038
3C0078
1F01F0
0FFFE0
03FF80
00FE00
000000
000000
003800
003800
003800
003800
003800
ENDCHAR
STARTCHAR 1EC8
ENCODING 7880
SWIDTH 219 0
DWIDTH 9 0
BBX 8 40 1 0
BITMAP
7C
FE
C7
C3
0F
1E
18
18
00
00
38
38
38
38
38
38
38
38
38
38
38
38
38
38
38
38
38
38
38
38
38
38
38
38
38
38
38
38
38
38
ENDCHAR
STARTCHAR 1EC9
ENCODING 7881
SWIDTH 195 0
DWIDTH 8 0
BBX 8 32 0 0
BITMAP
3E
7F
E3
C3
07
0E
1C
18
00
00
1C
1C
1C
1C
1C
1C
1C
1C
1C
1C
1C
1C
1C
1C
1C
1C
1C
1C
1C
1C
1C
1C
ENDCHAR
STARTCHAR 1ECA
ENCODING 7882
SWIDTH 219 0
DWIDTH 9 0
BBX 3 38 3 -8
BITMAP
E0
E0
E0
E0
E0
E0
E0
E0
E0
E0
E0
E0
E0
E0
E0
E0
E0
E0
E0
E0
E0
E0
E0
E0
E0
E0
E0
E0
E0
E0
00
00
00
E0
E0
E0
E0
E0
ENDCHAR
STARTCHAR 1ECB
ENCODING 7883
SWIDTH 195 0
DWIDTH 8 0
BBX 3 38 3 -8
BITMAP
E0
E0
E0
E0
E0
00
00
00
E0
E0
E0
E0
E0
E0
E0
E0
E0
E0
E0
E0
E0
E0
E0
E0
E0
E0
E0
E0
E0
E0
00
00
00
E0
E0
E0
E0
E0
ENDCHAR
STARTCHAR 1ECC
ENCODING 7884
SWIDTH 878 0
DWIDTH 36 0
BBX 32 39 2 -8
BITMAP
000FF000
007FFE00
01FFFF00
03F00FC0
07C003E0
0F0000F0
1E000078
3C000038
3800003C
7800001C
7000000E
F000000E
E000000E
E000000F
E0000007
E0000007
E0000007
E0000007
E0000007
E000000E
F000000E
7000000E
7800001C
3800003C
3C000038
1E000078
0F0000F0
07C003E0
03F00FC0
01FFFF00
007FFE00
000FF000
00000000
00000000
00038000
00038000
00038000
00038000
00038000
ENDCHAR
STARTCHAR 1ECD
ENCODING 7885
SWIDTH 658 0
DWIDTH 27 0
BBX 23 31 2 -8
BITMAP
00FE00
03FF80
0FFFE0
1F01F0
3C0078
380038
70003C
70001C
E0001E
E0000E
E0000E
E0000E
E0000E
E0000E
E0000E
E0000E
70001C
70001C
380038
3C0078
1F01F0
0FFFE0
03FF80
00FE00
000000
000000
003800
003800
003800
003800
003800
ENDCHAR
STARTCHAR 1ECE
ENCODING 7886
SWIDTH 878 0
DWIDTH 36 0
BBX 32 41 2 -1
BITMAP
0003C000
000FE000
000C7000
000C3000
0000F000
0000E000
00018000
00018000
00000000
000FF000
007FFE00
01FFFF00
03F00FC0
07C003E0
0F0000F0
1E000078
3C000038
3800003C
7800001C
7000000E
F000000E
E000000E
E000000F
E0000007
E0000007
E0000007
E0000007
E0000007
E000000E
F000000E
7000000E
7800001C
3800003C
3C000038
1E000078
0F0000F0
07C003E0
03F00FC0
01FFFF00
007FFE00
000FF000
ENDCHAR
STARTCHAR 1ECF
ENCODING 7887
SWIDTH 658 0
DWIDTH 27 0
BBX 23 33 2 -1
BITMAP
007C00
00FE00
00C700
01C700
000E00
001C00
001800
001800
000000
00FE00
03FF80
0FFFE0
1F01F0
3C0078
380038
70003C
70001C
E0001E
E0000E
E0000E
E0000E
E0000E
E0000E
E0000E
E0000E
70001C
70001C
380038
3C0078
1F01F0
0FFFE0
03FF80
00FE00
ENDCHAR
STARTCHAR 1ED0
ENCODING 7888
SWIDTH 878 0
DWIDTH 36 0
BBX 32 46 2 0
BITMAP
00001800
00007C00
0000F800
0003E000
00078000
00070000
00000000
00038000
0007E000
000FF000
001E7800
00383C00
00400200
00000000
000FF000
007FFE00
01FFFF00
03F00FC0
07C003E0
0F0000F0
1E000078
3C000038
3800003C
7800001C
7000000E
F000000E
E000000E
E000000F
E0000007
E0000007
E0000007
E0000007
E0000007
E000000E
F000000E
7000000E
7800001C
3800003C
3C000038
1E000078
0F0000F0
07C003E0
03F00FC0
01FFFF00
007FFE00
000FF000
ENDCHAR
STARTCHAR 1ED1
ENCODING 7889
SWIDTH 658 0
DWIDTH 27 0
BBX 23 39 2 -1
BITMAP
000180
000380
000F80
003F00
007C00
007000
006000
000000
007C00
00FE00
01EF00
03C780
0783C0
000000
000000
00FE00
03FF80
0FFFE0
1F01F0
3C0078
380038
70003C
70001C
E0001E
E0000E
E0000E
E0000E
E0000E
E0000E
E0000E
E0000E
70001C
70001C
380038
3C0078
1F01F0
0FFFE0
03FF80
00FE00
ENDCHAR
STARTCHAR 1ED2
ENCODING 7890
SWIDTH 878 0
DWIDTH 36 0
BBX 32 46 2 0
BITMAP
00380000
003C0000
001F0000
000FC000
0003E000
0000C000
00000000
00038000
0007E000
000FF000
001E7800
00383C00
00400200
00000000
000FF000
007FFE00
01FFFF00
03F00FC0
07C003E0
0F0000F0
1E000078
3C000038
3800003C
7800001C
7000000E
F000000E
E000000E
E000000F
E0000007
E0000007
E0000007
E0000007
E0000007
E000000E
F000000E
7000000E
7800001C
3800003C
3C000038
1E000078
0F0000F0
07C003E0
03F00FC0
01FFFF00
007FFE00
000FF000
ENDCHAR
STARTCHAR 1ED3
ENCODING 7891
SWIDTH 658 0
DWIDTH 27 0
BBX 23 39 2 -1
BITMAP
030000
038000
03E000
01F800
007C00
001C00
000800
000000
007C00
00FE00
01EF00
03C780
0783C0
000000
000000
00FE00
03FF80
0FFFE0
1F01F0
3C0078
380038
70003C
70001C
E0001E
E0000E
E0000E
E0000E
E0000E
E0000E
E0000E
E0000E
70001C
70001C
380038
3C0078
1F01F0
0FFFE0
03FF80
00FE00
ENDCHAR
STARTCHAR 1ED4
ENCODING 7892
SWIDTH 878 0
DWIDTH 36 0
BBX 32 48 2 -1
BITMAP
00007800
0000FE00
00018E00
00018600
00000E00
00001C00
00003800
00003000
00000000
00038000
0007E000
000FF000
001E7800
003C3C00
00701E00
00000000
000FF000
007FFE00
01FFFF00
03F00FC0
07C003E0
0F0000F0
1E000078
3C000038
3800003C
7800001C
7000000E
F000000E
E000000E
E000000F
E0000007
E0000007
E0000007
E0000007
E0000007
E000000E
F000000E
7000000E
7800001C
3800003C
3C000038
1E000078
0F0000F0
07C003E0
03F00FC0
01FFFF00
007FFE00
000FF000
ENDCHAR
STARTCHAR 1ED5
ENCODING 7893
SWIDTH 658 0
DWIDTH 27 0
BBX 23 40 2 -1
BITMAP
000F80
001FC0
0018E0
0018E0
0001C0
0003C0
000300
000300
000000
003800
007C00
00FE00
01C700
0783C0
0F01E0
000000
00FE00
03FF80
0FFFE0
1F01F0
3C0078
380038
70003C
70001C
E0001E
E0000E
E0000E
E0000E
E0000E
E0000E
E0000E
E0000E
70001C
70001C
380038
3C0078
1F01F0
0FFFE0
03FF80
00FE00
ENDCHAR
STARTCHAR 1ED6
ENCODING 7894
SWIDTH 878 0
DWIDTH 36 0
BBX 32 44 2 0
BITMAP
001F0800
003FFC00
0031F800
00107000
00000000
00038000
0007E000
000FF000
001E7800
00383C00
00400200
00000000
000FF000
007FFE00
01FFFF00
03F00FC0
07C003E0
0F0000F0
1E000078
3C000038
3800003C
7800001C
7000000E
F000000E
E000000E
E000000F
E0000007
E0000007
E0000007
E0000007
E0000007
E000000E
F000000E
7000000E
7800001C
3800003C
3C000038
1E000078
0F0000F0
07C003E0
03F00FC0
01FFFF00
007FFE00
000FF000
ENDCHAR
STARTCHAR 1ED7
ENCODING 7895
SWIDTH 658 0
DWIDTH 27 0
BBX 23 37 2 -1
BITMAP
008000
03F080
03FF80
033F80
000F00
000000
003800
007C00
00FE00
01C700
0783C0
000000
000000
00FE00
03FF80
0FFFE0
1F01F0
3C0078
380038
70003C
70001C
E0001E
E0000E
E0000E
E0000E
E0000E
E0000E
E0000E
E0000E
70001C
70001C
380038
3C0078
1F01F0
0FFFE0
03FF80
00FE00
ENDCHAR
STARTCHAR 1ED8
ENCODING 7896
SWIDTH 878 0
DWIDTH 36 0
BBX 32 46 2 -8
BITMAP
00038000
0007E000
000FF000
001E7800
00383C00
00400200
00000000
000FF000
007FFE00
01FFFF00
03F00FC0
07C003E0
0F0000F0
1E000078
3C000038
3800003C
7800001C
7000000E
F000000E
E000000E
E000000F
E0000007
E0000007
E0000007
E0000007
E0000007
E000000E
F000000E
7000000E
7800001C
3800003C
3C000038
1E000078
0F0000F0
07C003E0
03F00FC0
01FFFF00
007FFE00
000FF000
00000000
00000000
00038000
00038000
00038000
00038000
00038000
ENDCHAR
STARTCHAR 1ED9
ENCODING 7897
SWIDTH 658 0
DWIDTH 27 0
BBX 23 38 2 -8
BITMAP
007C00
00FE00
01EF00
03C780
0783C0
000000
000000
00FE00
03FF80
0FFFE0
1F01F0
3C0078
380038
70003C
70001C
E0001E
E0000E
E0000E
E0000E
E0000E
E0000E
E0000E
E0000E
70001C
70001C
380038
3C0078
1F01F0
0FFFE0
03FF80
00FE00
000000
000000
003800
003800
003800
003800
003800
ENDCHAR
STARTCHAR 1EDA
ENCODING 7898
SWIDTH 878 0
DWIDTH 36 0
BBX 32 40 2 -1
BITMAP
00000800
00003C00
0000FC00
0001F000
0007C000
00078000
00020000
00000000
000FF000
007FFC07
01FFFF07
03F00FC6
07C003EE
0F0000FE
1E00007C
3C000038
3800003C
7800001C
7000000E
F000000E
E000000E
E000000F
E0000007
E0000007
E0000007
E0000007
E0000007
E000000E
F000000E
7000000E
7800001C
3800003C
3C000038
1E000078
0F0000F0
07C003E0
03F00FC0
01FFFF00
007FFE00
000FF000
ENDCHAR
STARTCHAR 1EDB
ENCODING 7899
SWIDTH 682 0
DWIDTH 28 0
BBX 25 32 2 -1
BITMAP
00018000
00078000
001F8000
003E0000
00F80000
00700000
00000000
00000000
00FE0000
03FF8380
0FFFE380
1F01F380
3C007700
38003F00
70003E00
70001C00
E0001E00
E0000E00
E0000E00
E0000E00
E0000E00
E0000E00
E0000E00
E0000E00
F0001C00
70001C00
78003C00
3C007800
1F01F000
0FFFE000
03FF8000
00FE0000
ENDCHAR
STARTCHAR 1EDC
ENCODING 7900
SWIDTH 878 0
DWIDTH 36 0
BBX 32 40 2 -1
BITMAP
00100000
003C0000
003E0000
000F8000
0007E000
0001C000
00004000
00000000
000FF000
007FFC07
01FFFF07
03F00FC6
07C003EE
0F0000FE
1E00007C
3C000038
3800003C
7800001C
7000000E
F000000E
E000000E
E000000F
E0000007
E0000007
E0000007
E0000007
E0000007
E000000E
F000000E
7000000E
7800001C
3800003C
3C000038
1E000078
0F0000F0
07C003E0
03F00FC0
01FFFF00
007FFE00
000FF000
ENDCHAR
STARTCHAR 1EDD
ENCODING 7901
SWIDTH 682 0
DWIDTH 28 0
BBX 25 32 2 -1
BITMAP
03000000
07C00000
03F00000
00F80000
003C0000
001C0000
00000000
00000000
00FE0000
03FF8380
0FFFE380
1F01F380
3C007700
38003F00
70003E00
70001C00
E0001E00
E0000E00
E0000E00
E0000E00
E0000E00
E0000E00
E0000E00
E0000E00
F0001C00
70001C00
78003C00
3C007800
1F01F000
0FFFE000
03FF8000
00FE0000
ENDCHAR
STARTCHAR 1EDE
ENCODING 7902
SWIDTH 878 0
DWIDTH 36 0
BBX 32 41 2 -1
BITMAP
0003C000
000FE000
000C7000
000C3000
0000F000
0000E000
00018000
00018000
00000000
000FF000
007FFC07
01FFFF07
03F00FC6
07C003EE
0F0000FE
1E00007C
3C000038
3800003C
7800001C
7000000E
F000000E
E000000E
E000000F
E0000007
E0000007
E0000007
E0000007
E0000007
E000000E
F000000E
7000000E
7800001C
3800003C
3C000038
1E000078
0F0000F0
07C003E0
03F00FC0
01FFFF00
007FFE00
000FF000
ENDCHAR
STARTCHAR 1EDF
ENCODING 7903
SWIDTH 682 0
DWIDTH 28 0
BBX 25 33 2 -1
BITMAP
007C0000
00FE0000
00C70000
01C70000
000E0000
001C0000
00180000
00180000
00000000
00FE0000
03FF8380
0FFFE380
1F01F380
3C007700
38003F00
70003E00
70001C00
E0001E00
E0000E00
E0000E00
E0000E00
E0000E00
E0000E00
E0000E00
E0000E00
F0001C00
70001C00
78003C00
3C007800
1F01F000
0FFFE000
03FF8000
00FE0000
ENDCHAR
STARTCHAR 1EE0
ENCODING 7904
SWIDTH 878 0
DWIDTH 36 0
BBX 32 38 2 0
BITMAP
001F0800
003FFC00
0031F800
00107000
00000000
00000000
000FF000
007FFC07
01FFFF07
03F00FC6
07C003EE
0F0000FE
1E00007C
3C000038
3800003C
7800001C
7000000E
F000000E
E000000E
E000000F
E0000007
E0000007
E0000007
E0000007
E0000007
E000000E
F000000E
7000000E
7800001C
3800003C
3C000038
1E000078
0F0000F0
07C003E0
03F00FC0
01FFFF00
007FFE00
000FF000
ENDCHAR
STARTCHAR 1EE1
ENCODING 7905
SWIDTH 682 0
DWIDTH 28 0
BBX 25 31 2 -1
BITMAP
01E00000
03F98000
03FF8000
031F8000
00020000
00000000
00000000
00FE0000
03FF8380
0FFFE380
1F01F380
3C007700
38003F00
70003E00
70001C00
E0001E00
E0000E00
E0000E00
E0000E00
E0000E00
E0000E00
E0000E00
E0000E00
F0001C00
70001C00
78003C00
3C007800
1F01F000
0FFFE000
03FF8000
00FE0000
ENDCHAR
STARTCHAR 1EE2
ENCODING 7906
SWIDTH 878 0
DWIDTH 36 0
BBX 32 39 2 -8
BITMAP
000FF000
007FFC07
01FFFF07
03F00FC6
07C003EE
0F0000FE
1E00007C
3C000038
3800003C
7800001C
7000000E
F000000E
E000000E
E000000F
E0000007
E0000007
E0000007
E0000007
E0000007
E000000E
F000000E
7000000E
7800001C
3800003C
3C000038
1E000078
0F0000F0
07C003E0
03F00FC0
01FFFF00
007FFE00
000FF000
00000000
00000000
00038000
00038000
00038000
00038000
00038000
ENDCHAR
STARTCHAR 1EE3
ENCODING 7907
SWIDTH 682 0
DWIDTH 28 0
BBX 25 31 2 -8
BITMAP
00FE0000
03FF8380
0FFFE380
1F01F380
3C007700
38003F00
70003E00
70001C00
E0001E00
E0000E00
E0000E00
E0000E00
E0000E00
E0000E00
E0000E00
E0000E00
F0001C00
70001C00
78003C00
3C007800
1F01F000
0FFFE000
03FF8000
00FE0000
00000000
00000000
00380000
00380000
00380000
00380000
00380000
ENDCHAR
STARTCHAR 1EE4
ENCODING 7908
SWIDTH 658 0
DWIDTH 27 0
BBX 21 38 3 -8
BITMAP
E00038
E00038
E00038
E00038
E00038
E00038
E00038
E00038
E00038
E00038
E00038
E00038
E00038
E00038
E00038
E00038
E00038
E00038
E00038
E00038
E00038
E00038
F00070
700070
700070
7800F0
3C01E0
3E03C0
1FFF80
07FF00
01FC00
000000
000000
007000
007000
007000
007000
007000
ENDCHAR
STARTCHAR 1EE5
ENCODING 7909
SWIDTH 609 0
DWIDTH 25 0
BBX 19 30 3 -8
BITMAP
E000E0
E000E0
E000E0
E000E0
E000E0
E000E0
E000E0
E000E0
E000E0
E000E0
E000E0
E000E0
E000E0
E000E0
E000E0
E000E0
E001E0
F001E0
7803E0
7C07E0
3FFEE0
1FFCE0
03F000
000000
000000
00E000
00E000
00E000
00E000
00E000
ENDCHAR
STARTCHAR 1EE6
ENCODING 7910
SWIDTH 658 0
DWIDTH 27 0
BBX 21 41 3 -1
BITMAP
00F800
01FC00
018E00
038E00
001C00
003C00
003000
003000
000000
000000
E00038
E00038
E00038
E00038
E00038
E00038
E00038
E00038
E00038
E00038
E00038
E00038
E00038
E00038
E00038
E00038
E00038
E00038
E00038
E00038
E00038
E00038
F00070
700070
700070
7800F0
3C01E0
3E03C0
1FFF80
07FF00
01FC00
ENDCHAR
STARTCHAR 1EE7
ENCODING 7911
SWIDTH 609 0
DWIDTH 25 0
BBX 19 33 3 -1
BITMAP
01F000
03F800
031C00
071C00
003800
007800
006000
006000
000000
000000
E000E0
E000E0
E000E0
E000E0
E000E0
E000E0
E000E0
E000E0
E000E0
E000E0
E000E0
E000E0
E000E0
E000E0
E000E0
E000E0
E001E0
F001E0
7803E0
7C07E0
3FFEE0
1FFCE0
03F000
ENDCHAR
STARTCHAR 1EE8
ENCODING 7912
SWIDTH 707 0
DWIDTH 29 0
BBX 25 39 3 0
BITMAP
00070000
000F0000
003E0000
00FC0000
00F00000
00C00000
00000000
00000000
E0003980
E0003B80
E0003B80
E0003F80
E0003F00
E0003E00
E0003C00
E0003800
E0003800
E0003800
E0003800
E0003800
E0003800
E0003800
E0003800
E0003800
E0003800
E0003800
E0003800
E0003800
E0003800
E0003800
E0007800
70007000
70007000
7800F000
3C01E000
3E03C000
1FFF8000
07FF0000
01FC0000
ENDCHAR
STARTCHAR 1EE9
ENCODING 7913
SWIDTH 682 0
DWIDTH 28 0
BBX 24 32 3 -1
BITMAP
000600
000E00
003F00
00FC00
01F000
01C000
018000
000000
000000
E000E7
E000E7
E000E7
E000EE
E000FE
E000FC
E000F8
E000E0
E000E0
E000E0
E000E0
E000E0
E000E0
E000E0
E000E0
E000E0
E001E0
F001E0
7803E0
7C0FE0
3FFEE0
1FFCE0
03F000
ENDCHAR
STARTCHAR 1EEA
ENCODING 7914
SWIDTH 707 0
DWIDTH 29 0
BBX 25 39 3 0
BITMAP
06000000
0F800000
07E00000
01F00000
00780000
00380000
00000000
00000000
E0003980
E0003B80
E0003B80
E0003F80
E0003F00
E0003E00
E0003C00
E0003800
E0003800
E0003800
E0003800
E0003800
E0003800
E0003800
E0003800
E0003800
E0003800
E0003800
E0003800
E0003800
E0003800
E0003800
E0007800
70007000
70007000
7800F000
3C01E000
3E03C000
1FFF8000
07FF0000
01FC0000
ENDCHAR
STARTCHAR 1EEB
ENCODING 7915
SWIDTH 682 0
DWIDTH 28 0
BBX 24 32 3 -1
BITMAP
080000
0E0000
1F8000
07C000
01F000
00F000
002000
000000
000000
E000E7
E000E7
E000E7
E000EE
E000FE
E000FC
E000F8
E000E0
E000E0
E000E0
E000E0
E000E0
E000E0
E000E0
E000E0
E000E0
E001E0
F001E0
7803E0
7C0FE0
3FFEE0
1FFCE0
03F000
ENDCHAR
STARTCHAR 1EEC
ENCODING 7916
SWIDTH 707 0
DWIDTH 29 0
BBX 25 41 3 -1
BITMAP
00F80000
01FC0000
018E0000
038E0000
001C0000
003C0000
00300000
00300000
00000000
00000000
E0003980
E0003B80
E0003B80
E0003F80
E0003F00
E0003E00
E0003C00
E0003800
E0003800
E0003800
E0003800
E0003800
E0003800
E0003800
E0003800
E0003800
E0003800
E0003800
E0003800
E0003800
E0003800
E0003800
E0007800
70007000
70007000
7800F000
3C01E000
3E03C000
1FFF8000
07FF0000
01FC0000
ENDCHAR
STARTCHAR 1EED
ENCODING 7917
SWIDTH 682 0
DWIDTH 28 0
BBX 24 33 3 -1
BITMAP
01F000
03F800
031C00
071C00
003800
007800
006000
006000
000000
000000
E000E7
E000E7
E000E7
E000EE
E000FE
E000FC
E000F8
E000E0
E000E0
E000E0
E000E0
E000E0
E000E0
E000E0
E000E0
E000E0
E001E0
F001E0
7803E0
7C0FE0
3FFEE0
1FFCE0
03F000
ENDCHAR
STARTCHAR 1EEE
ENCODING 7918
SWIDTH 707 0
DWIDTH 29 0
BBX 25 38 3 -1
BITMAP
03C00000
07F30000
07FF0000
043F0000
00040000
00000000
00000000
E0003980
E0003B80
E0003B80
E0003F80
E0003F00
E0003E00
E0003C00
E0003800
E0003800
E0003800
E0003800
E0003800
E0003800
E0003800
E0003800
E0003800
E0003800
E0003800
E0003800
E0003800
E0003800
E0003800
E0007800
70007000
70007000
7800F000
3C01E000
3E03C000
1FFF8000
07FF0000
01FC0000
ENDCHAR
STARTCHAR 1EEF
ENCODING 7919
SWIDTH 682 0
DWIDTH 28 0
BBX 24 30 3 0
BITMAP
0FC200
0FFE00
0CFE00
083C00
000000
000000
000000
E000E7
E000E7
E000E7
E000EE
E000FE
E000FC
E000F8
E000E0
E000E0
E000E0
E000E0
E000E0
E000E0
E000E0
E000E0
E000E0
E001E0
F001E0
7803E0
7C0FE0
3FFEE0
1FFCE0
03F000
ENDCHAR
STARTCHAR 1EF0
ENCODING 7920
SWIDTH 707 0
DWIDTH 29 0
BBX 25 38 3 -8
BITMAP
E0003980
E0003B80
E0003B80
E0003F80
E0003F00
E0003E00
E0003C00
E0003800
E0003800
E0003800
E0003800
E0003800
E0003800
E0003800
E0003800
E0003800
E0003800
E0003800
E0003800
E0003800
E0003800
E0003800
E0007800
70007000
70007000
7800F000
3C01E000
3E03C000
1FFF8000
07FF0000
01FC0000
00000000
00000000
00700000
00700000
00700000
00700000
00700000
ENDCHAR
STARTCHAR 1EF1
ENCODING 7921
SWIDTH 682 0
DWIDTH 28 0
BBX 24 30 3 -8
BITMAP
E000E7
E000E7
E000E7
E000EE
E000FE
E000FC
E000F8
E000E0
E000E0
E000E0
E000E0
E000E0
E000E0
E000E0
E000E0
E000E0
E001E0
F001E0
7803E0
7C0FE0
3FFEE0
1FFCE0
03F000
000000
000000
00E000
00E000
00E000
00E000
00E000
ENDCHAR
STARTCHAR 1EF2
ENCODING 7922
SWIDTH 585 0
DWIDTH 24 0
BBX 24 38 0 1
BITMAP
018000
03E000
01F000
007C00
003E00
000C00
000000
000000
F00007
70000E
78000E
38001C
3C003C
1C0038
1E0078
0E0070
0700F0
0700E0
0381E0
0381C0
01C3C0
01C380
00E780
00E700
007E00
007E00
003C00
003C00
001C00
001C00
001C00
001C00
001C00
001C00
001C00
001C00
001C00
001C00
ENDCHAR
STARTCHAR 1EF3
ENCODING 7923
SWIDTH 536 0
DWIDTH 22 0
BBX 20 39 1 -8
BITMAP
040000
0F0000
0F8000
03E000
01F800
007800
001000
000000
000000
E00070
E00070
F000F0
7000E0
7801E0
3801C0
3801C0
3C0380
1C0380
1E0700
0E0700
0E0F00
0F0E00
070E00
079C00
039C00
03B800
03F800
01F800
01F000
00F000
00E000
00E000
01C000
01C000
03C000
038000
078000
070000
070000
ENDCHAR
STARTCHAR 1EF4
ENCODING 7924
SWIDTH 585 0
DWIDTH 24 0
BBX 24 38 0 -8
BITMAP
F00007
70000E
78000E
38001C
3C003C
1C0038
1E0078
0E0070
0700F0
0700E0
0381E0
0381C0
01C3C0
01C380
00E780
00E700
007E00
007E00
003C00
003C00
001C00
001C00
001C00
001C00
001C00
001C00
001C00
001C00
001C00
001C00
000000
000000
000000
001C00
001C00
001C00
001C00
001C00
ENDCHAR
STARTCHAR 1EF5
ENCODING 7925
SWIDTH 536 0
DWIDTH 22 0
BBX 20 30 1 -8
BITMAP
E00070
E00070
F000F0
7000E0
7001E0
3801C0
3801C0
3C0380
1C0380
1C0780
0E0700
0E0F00
0F0E00
070E00
071C00
039C00
03BC00
03F800
01F800
01F000
00F000
00E000
00E000
01E000
01C000
03C380
038380
038380
070380
070380
ENDCHAR
STARTCHAR 1EF6
ENCODING 7926
SWIDTH 585 0
DWIDTH 24 0
BBX 24 40 0 0
BITMAP
003E00
007F00
00E300
00C300
000700
000E00
001C00
001800
000000
000000
F00007
70000E
78000E
38001C
3C003C
1C0038
1E0078
0E0070
0700F0
0700E0
0381E0
0381C0
01C3C0
01C380
00E780
00E700
007E00
007E00
003C00
003C00
001C00
001C00
001C00
001C00
001C00
001C00
001C00
001C00
001C00
001C00
ENDCHAR
STARTCHAR 1EF7
ENCODING 7927
SWIDTH 536 0
DWIDTH 22 0
BBX 20 40 1 -8
BITMAP
00F000
01FC00
038C00
030C00
001C00
003800
007000
006000
000000
000000
E00070
E00070
F000F0
7000E0
7801E0
3801C0
3801C0
3C0380
1C0380
1E0700
0E0700
0E0F00
0F0E00
070E00
079C00
039C00
03B800
03F800
01F800
01F000
00F000
00E000
00E000
01C000
01C000
03C000
038000
078000
070000
070000
ENDCHAR
STARTCHAR 1EF8
ENCODING 7928
SWIDTH 585 0
DWIDTH 24 0
BBX 24 37 0 0
BITMAP
00E000
01F8C0
03FFC0
010F80
010000
000000
000000
F00007
70000E
78000E
38001C
3C003C
1C0038
1E0078
0E0070
0700F0
0700E0
0381E0
0381C0
01C3C0
01C380
00E780
00E700
007E00
007E00
003C00
003C00
001C00
001C00
001C00
001C00
001C00
001C00
001C00
001C00
001C00
001C00
ENDCHAR
STARTCHAR 1EF9
ENCODING 7929
SWIDTH 536 0
DWIDTH 22 0
BBX 20 37 1 -7
BITMAP
07C200
0FFF00
0E7F00
041C00
000000
000000
000000
E00070
E00070
F000F0
7000E0
7801E0
3801C0
3801C0
3C0380
1C0380
1E0700
0E0700
0E0F00
0F0E00
070E00
079C00
039C00
03B800
03F800
01F800
01F000
00F000
00E000
00E000
01C000
01C000
03C000
038000
078000
070000
070000
ENDCHAR
STARTCHAR 2000
ENCODING 8192
SWIDTH 512 0
DWIDTH 21 0
BBX 0 0 0 0
BITMAP
ENDCHAR
STARTCHAR 2001
ENCODING 8193
SWIDTH 1000 0
DWIDTH 41 0
BBX 0 0 0 0
BITMAP
ENDCHAR
STARTCHAR 2002
ENCODING 8194
SWIDTH 512 0
DWIDTH 21 0
BBX 0 0 0 0
BITMAP
ENDCHAR
STARTCHAR 2003
ENCODING 8195
SWIDTH 1000 0
DWIDTH 41 0
BBX 0 0 0 0
BITMAP
ENDCHAR
STARTCHAR 2004
ENCODING 8196
SWIDTH 341 0
DWIDTH 14 0
BBX 0 0 0 0
BITMAP
ENDCHAR
STARTCHAR 2005
ENCODING 8197
SWIDTH 243 0
DWIDTH 10 0
BBX 0 0 0 0
BITMAP
ENDCHAR
STARTCHAR 2006
ENCODING 8198
SWIDTH 170 0
DWIDTH 7 0
BBX 0 0 0 0
BITMAP
ENDCHAR
STARTCHAR 2007
ENCODING 8199
SWIDTH 560 0
DWIDTH 23 0
BBX 0 0 0 0
BITMAP
ENDCHAR
STARTCHAR 2008
ENCODING 8200
SWIDTH 243 0
DWIDTH 10 0
BBX 0 0 0 0
BITMAP
ENDCHAR
STARTCHAR 2009
ENCODING 8201
SWIDTH 195 0
DWIDTH 8 0
BBX 0 0 0 0
BITMAP
ENDCHAR
STARTCHAR 200A
ENCODING 8202
SWIDTH 97 0
DWIDTH 4 0
BBX 0 0 0 0
BITMAP
ENDCHAR
STARTCHAR 200B
ENCODING 8203
SWIDTH 0 0
DWIDTH 0 0
BBX 0 0 0 0
BITMAP
ENDCHAR
STARTCHAR 200C
ENCODING 8204
SWIDTH 0 0
DWIDTH 0 0
BBX 0 0 0 0
BITMAP
ENDCHAR
STARTCHAR 200D
ENCODING 8205
SWIDTH 0 0
DWIDTH 0 0
BBX 0 0 0 0
BITMAP
ENDCHAR
STARTCHAR 2010
ENCODING 8208
SWIDTH 341 0
DWIDTH 14 0
BBX 11 3 1 9
BITMAP
FFE0
FFE0
FFE0
ENDCHAR
STARTCHAR 2011
ENCODING 8209
SWIDTH 341 0
DWIDTH 14 0
BBX 11 3 1 9
BITMAP
FFE0
FFE0
FFE0
ENDCHAR
STARTCHAR 2012
ENCODING 8210
SWIDTH 585 0
DWIDTH 24 0
BBX 18 3 3 14
BITMAP
FFFFC0
FFFFC0
FFFFC0
ENDCHAR
STARTCHAR 2013
ENCODING 8211
SWIDTH 512 0
DWIDTH 21 0
BBX 21 3 0 9
BITMAP
FFFFF8
FFFFF8
FFFFF8
ENDCHAR
STARTCHAR 2014
ENCODING 8212
SWIDTH 1000 0
DWIDTH 41 0
BBX 41 3 0 9
BITMAP
FFFFFFFFFF80
FFFFFFFFFF80
FFFFFFFFFF80
ENDCHAR
STARTCHAR 2015
ENCODING 8213
SWIDTH 1170 0
DWIDTH 48 0
BBX 41 3 3 9
BITMAP
FFFFFFFFFF80
FFFFFFFFFF80
FFFFFFFFFF80
ENDCHAR
STARTCHAR 2016
ENCODING 8214
SWIDTH 414 0
DWIDTH 17 0
BBX 11 33 3 -6
BITMAP
E0E0
E0E0
E0E0
E0E0
E0E0
E0E0
E0E0
E0E0
E0E0
E0E0
E0E0
E0E0
E0E0
E0E0
E0E0
E0E0
E0E0
E0E0
E0E0
E0E0
E0E0
E0E0
E0E0
E0E0
E0E0
E0E0
E0E0
E0E0
E0E0
E0E0
E0E0
E0E0
E0E0
ENDCHAR
STARTCHAR 2017
ENCODING 8215
SWIDTH 439 0
DWIDTH 18 0
BBX 12 10 3 -13
BITMAP
FFF0
FFF0
FFF0
0000
0000
0000
0000
FFF0
FFF0
FFF0
ENDCHAR
STARTCHAR 2018
ENCODING 8216
SWIDTH 341 0
DWIDTH 14 0
BBX 6 8 4 22
BITMAP
E0
70
70
38
38
1C
1C
1C
ENDCHAR
STARTCHAR 2019
ENCODING 8217
SWIDTH 341 0
DWIDTH 14 0
BBX 6 8 4 22
BITMAP
1C
1C
38
38
70
70
E0
E0
ENDCHAR
STARTCHAR 201A
ENCODING 8218
SWIDTH 365 0
DWIDTH 15 0
BBX 6 8 4 -3
BITMAP
1C
1C
38
38
70
70
E0
E0
ENDCHAR
STARTCHAR 201C
ENCODING 8220
SWIDTH 512 0
DWIDTH 21 0
BBX 12 8 4 22
BITMAP
E380
71C0
71C0
38E0
38E0
3870
1C70
1C70
ENDCHAR
STARTCHAR 201D
ENCODING 8221
SWIDTH 487 0
DWIDTH 20 0
BBX 12 8 4 22
BITMAP
1C70
3CE0
38E0
39E0
71C0
71C0
E380
E380
ENDCHAR
STARTCHAR 201E
ENCODING 8222
SWIDTH 512 0
DWIDTH 21 0
BBX 12 8 4 -3
BITMAP
1C70
1C70
38E0
38E0
71C0
71C0
E380
E380
ENDCHAR
STARTCHAR 2020
ENCODING 8224
SWIDTH 560 0
DWIDTH 23 0
BBX 18 36 2 -6
BITMAP
00E000
00E000
00E000
00E000
00E000
00E000
00E000
00E000
FFFFC0
FFFFC0
FFFFC0
00E000
00E000
00E000
00E000
00E000
00E000
00E000
00E000
00E000
00E000
00E000
00E000
00E000
00E000
00E000
00E000
00E000
00E000
00E000
00E000
00E000
00E000
00E000
00E000
00E000
ENDCHAR
STARTCHAR 2021
ENCODING 8225
SWIDTH 560 0
DWIDTH 23 0
BBX 18 36 2 -6
BITMAP
00E000
00E000
00E000
00E000
00E000
00E000
00E000
FFFFC0
FFFFC0
FFFFC0
00E000
00E000
00E000
00E000
FFFFC0
FFFFC0
FFFFC0
00E000
00E000
00E000
00E000
00E000
00E000
00E000
00E000
00E000
00E000
00E000
00E000
00E000
00E000
00E000
00E000
00E000
00E000
00E000
ENDCHAR
STARTCHAR 2022
ENCODING 8226
SWIDTH 512 0
DWIDTH 21 0
BBX 15 15 3 3
BITMAP
03C0
0FF0
3FF8
3FFC
7FFC
7FFE
FFFE
FFFE
FFFE
7FFE
7FFC
7FFC
3FF8
1FF0
07C0
ENDCHAR
STARTCHAR 2026
ENCODING 8230
SWIDTH 804 0
DWIDTH 33 0
BBX 27 5 3 0
BITMAP
E00E00E0
E00E00E0
E00E00E0
E00E00E0
E00E00E0
ENDCHAR
STARTCHAR 202F
ENCODING 8239
SWIDTH 195 0
DWIDTH 8 0
BBX 0 0 0 0
BITMAP
ENDCHAR
STARTCHAR 2030
ENCODING 8240
SWIDTH 1170 0
DWIDTH 48 0
BBX 46 32 1 -1
BITMAP
0F8000000000
3FE00E000000
7FF01C000000
70781C000000
E0383C000000
E01C38000000
C01C38000000
C01C70000000
C01C70000000
E01CE0000000
E038E0000000
7879C0000000
3FF1C0000000
1FE380000000
070380000000
000700000000
000700000000
000707000780
000E1FE01FE0
000E7FF03FF0
001C78787878
001CE038703C
0038E01CE01C
0038C01CE01C
0071C01CE01C
0070C01CE01C
00E0E01CE01C
00E0E038F03C
00E070787878
01C07FF03FF0
01C03FE01FE0
00000F800FC0
ENDCHAR
STARTCHAR 2031
ENCODING 8241
SWIDTH 1585 0
DWIDTH 65 0
BBX 63 32 1 -1
BITMAP
0F80000000000000
3FE00E0000000000
7FF01C0000000000
70781C0000000000
E0383C0000000000
E01C380000000000
C01C380000000000
C01C700000000000
C01C700000000000
E01CE00000000000
E038E00000000000
7879C00000000000
3FF1C00000000000
1FE3800000000000
0703800000000000
0007000000000000
0007000000000000
0007070007800380
000E1FE01FE01FE0
000E7FF03FF03FF8
001C787878787878
001CE038703C701C
0038E01CE01CE01C
0038C01CE01CE00C
0071C01CE01CE00E
0070C01CE01CE00E
00E0E01CE01CE01C
00E0E038F03C701C
00E0707878787838
01C07FF03FF03FF8
01C03FE01FE01FF0
00000F800FC007C0
ENDCHAR
STARTCHAR 2032
ENCODING 8242
SWIDTH 268 0
DWIDTH 11 0
BBX 5 9 3 21
BITMAP
38
38
30
70
70
60
E0
E0
C0
ENDCHAR
STARTCHAR 2033
ENCODING 8243
SWIDTH 414 0
DWIDTH 17 0
BBX 11 9 3 21
BITMAP
38E0
38E0
30E0
71C0
71C0
61C0
E380
E380
C380
ENDCHAR
STARTCHAR 2034
ENCODING 8244
SWIDTH 560 0
DWIDTH 23 0
BBX 17 9 3 21
BITMAP
38E380
38E380
30E380
71C700
71C700
61C700
E38600
E38E00
C38E00
ENDCHAR
STARTCHAR 2035
ENCODING 8245
SWIDTH 268 0
DWIDTH 11 0
BBX 5 9 3 21
BITMAP
C0
E0
E0
60
70
70
30
38
38
ENDCHAR
STARTCHAR 2036
ENCODING 8246
SWIDTH 414 0
DWIDTH 17 0
BBX 11 9 3 21
BITMAP
C300
E380
E380
6180
71C0
71C0
30C0
38E0
38E0
ENDCHAR
STARTCHAR 2037
ENCODING 8247
SWIDTH 560 0
DWIDTH 23 0
BBX 17 9 3 21
BITMAP
C30E00
E38E00
E38E00
618700
71C700
71C700
30C380
38E380
38E380
ENDCHAR
STARTCHAR 2039
ENCODING 8249
SWIDTH 243 0
DWIDTH 10 0
BBX 7 16 2 4
BITMAP
0C
1C
1C
38
78
70
E0
E0
E0
70
70
38
3C
1C
1E
08
ENDCHAR
STARTCHAR 203A
ENCODING 8250
SWIDTH 243 0
DWIDTH 10 0
BBX 7 16 2 4
BITMAP
E0
E0
70
70
38
38
1C
1E
1C
3C
38
78
70
E0
E0
40
ENDCHAR
STARTCHAR 203B
ENCODING 8251
SWIDTH 609 0
DWIDTH 25 0
BBX 23 22 1 -1
BITMAP
003800
007C00
007C00
047C40
0E38E0
0F01E0
0783C0
03CF80
71FF1C
78FE3C
F87C7E
F8FC3C
79FE3C
03EF00
03C780
0783C0
0F01E0
0E38E0
047C40
007C00
007C00
003800
ENDCHAR
STARTCHAR 203D
ENCODING 8253
SWIDTH 585 0
DWIDTH 24 0
BBX 19 35 3 0
BITMAP
00E000
00E000
00E000
00E000
03F800
0FFE00
1FFF00
3CE780
78E3C0
70E1C0
E0E1C0
E0E1C0
E0E1E0
E0E1E0
00E1C0
00E1C0
00E3C0
00E780
00EF00
00FE00
00FC00
00F800
00F000
00F000
00E000
00E000
00E000
000000
000000
000000
00E000
00E000
00E000
00E000
00E000
ENDCHAR
STARTCHAR 203F
ENCODING 8255
SWIDTH 512 0
DWIDTH 21 0
BBX 18 4 1 -8
BITMAP
F001C0
7FFFC0
3FFF80
07FC00
ENDCHAR
STARTCHAR 2040
ENCODING 8256
SWIDTH 512 0
DWIDTH 21 0
BBX 18 4 1 26
BITMAP
07FC00
3FFF80
7FFFC0
F001C0
ENDCHAR
STARTCHAR 2044
ENCODING 8260
SWIDTH 512 0
DWIDTH 21 0
BBX 15 33 3 -6
BITMAP
001E
001C
001C
003C
0038
0038
0078
0070
0070
00F0
00E0
00E0
01E0
01C0
01C0
03C0
0380
0380
0780
0700
0700
0E00
0E00
0E00
1C00
1C00
1C00
3800
3800
3800
7000
7000
F000
ENDCHAR
STARTCHAR 2045
ENCODING 8261
SWIDTH 341 0
DWIDTH 14 0
BBX 10 39 3 -9
BITMAP
FFC0
FFC0
FFC0
F000
F000
F000
F000
F000
F000
F000
F000
F000
F000
F000
F000
F000
F000
F000
FFC0
FFC0
FFC0
F000
F000
F000
F000
F000
F000
F000
F000
F000
F000
F000
F000
F000
F000
F000
FFC0
FFC0
FFC0
ENDCHAR
STARTCHAR 2046
ENCODING 8262
SWIDTH 341 0
DWIDTH 14 0
BBX 9 39 2 -9
BITMAP
FF80
FF80
FF80
0380
0380
0380
0380
0380
0380
0380
0380
0380
0380
0380
0380
0380
0380
0380
FF80
FF80
FF80
0380
0380
0380
0380
0380
0380
0380
0380
0380
0380
0380
0380
0380
0380
0380
FF80
FF80
FF80
ENDCHAR
STARTCHAR 2052
ENCODING 8274
SWIDTH 560 0
DWIDTH 23 0
BBX 21 30 1 0
BITMAP
000070
0000E0
7C00E0
FC01C0
FC01C0
FC0380
FC0780
780700
000F00
000E00
001C00
001C00
003800
003800
007000
00F000
00E000
01E000
01C000
038000
038000
070000
0700E0
0E01F0
1E03F8
1C03F8
3C01F8
3801F0
700000
700000
ENDCHAR
STARTCHAR 2054
ENCODING 8276
SWIDTH 512 0
DWIDTH 21 0
BBX 19 5 1 -8
BITMAP
03F800
1FFF00
7FFFC0
7001C0
E000E0
ENDCHAR
STARTCHAR 2057
ENCODING 8279
SWIDTH 707 0
DWIDTH 29 0
BBX 23 9 3 21
BITMAP
38E386
38E38E
30E38E
71C70C
71C71C
61C71C
E38618
E38E38
C38E38
ENDCHAR
STARTCHAR 205F
ENCODING 8287
SWIDTH 219 0
DWIDTH 9 0
BBX 0 0 0 0
BITMAP
ENDCHAR
STARTCHAR 2060
ENCODING 8288
SWIDTH 0 0
DWIDTH 0 0
BBX 0 0 0 0
BITMAP
ENDCHAR
STARTCHAR 2061
ENCODING 8289
SWIDTH 1097 0
DWIDTH 45 0
BBX 39 39 3 -9
BITMAP
078783C3C0
078783C3C0
078783C3C0
0000000000
0000000000
E00000000E
E00000000E
E00000000E
E00000000E
0000000000
0000000000
0000042000
000E0C7000
001C183800
E03018180E
E0FC300C0E
E0FC300C0E
E02060060E
0060600600
0060600600
0060600600
0040600600
E04020040E
E0C0300C0E
E0C0300C0E
E00018180E
00001C3800
00000C3000
0000000000
0000000000
E00000000E
E00000000E
E00000000E
E00000000E
0000000000
0000000000
078783C3C0
078783C3C0
078783C3C0
ENDCHAR
STARTCHAR 2062
ENCODING 8290
SWIDTH 0 0
DWIDTH 0 0
BBX 0 0 0 0
BITMAP
ENDCHAR
STARTCHAR 2063
ENCODING 8291
SWIDTH 0 0
DWIDTH 0 0
BBX 0 0 0 0
BITMAP
ENDCHAR
STARTCHAR 2064
ENCODING 8292
SWIDTH 0 0
DWIDTH 0 0
BBX 0 0 0 0
BITMAP
ENDCHAR
STARTCHAR 20A1
ENCODING 8353
SWIDTH 804 0
DWIDTH 33 0
BBX 29 38 2 -4
BITMAP
00070000
00070000
00070000
000FF000
007FFC00
01FFFF00
03E70FC0
078703E0
0F0701E0
1E0700F0
3C070078
38070038
78070000
70070000
70070000
E0070000
E0070000
E0070000
E0070000
E0070000
E0070000
E0070000
E0070000
F0070000
70070000
78070000
78070000
3C070038
1E070070
1F0700F0
0F8703E0
07E707C0
01FFFF80
00FFFE00
001FF000
00070000
00070000
00070000
ENDCHAR
STARTCHAR 20A4
ENCODING 8356
SWIDTH 560 0
DWIDTH 23 0
BBX 23 31 1 0
BITMAP
00FE00
03FF80
07FFE0
0F01F0
1E00F0
1C0078
3C0038
38001C
38001C
380000
380000
FFFFC0
FFFFC0
FFFFC0
1E0000
0F0000
070000
FFFFC0
FFFFC0
FFFFC0
00E00E
00F00E
00700E
00700E
00700E
00701E
00E01C
00E07C
7FFFF8
7FFFE0
7FFF80
ENDCHAR
STARTCHAR 20A6
ENCODING 8358
SWIDTH 731 0
DWIDTH 30 0
BBX 27 30 2 0
BITMAP
7C000380
7C000380
7E000380
7F000380
77000380
77800380
73C00380
71C00380
FFFFFFE0
FFFFFFE0
FFFFFFE0
70380380
703C0380
701C0380
700E0380
700F0380
FFFFFFE0
FFFFFFE0
FFFFFFE0
7001C380
7000E380
7000F380
70007380
70003B80
70003F80
70001F80
70000F80
70000F80
70000780
70000380
ENDCHAR
STARTCHAR 20A9
ENCODING 8361
SWIDTH 951 0
DWIDTH 39 0
BBX 39 30 0 0
BITMAP
700038000E
70003C001C
70003C001C
78007C001C
38007C001C
38007E0038
3800EE0038
1C00EE0038
FFFFFFFFFE
FFFFFFFFFE
FFFFFFFFFE
0E01C700F0
0E01C380E0
0E038380E0
07038380E0
07038381C0
FFFFFFFFFE
FFFFFFFFFE
FFFFFFFFFE
038701C380
038700E380
01CE00E380
01CE00E700
01CE007700
01FC007700
00FC007700
00FC007E00
00FC003E00
0078003E00
0078003C00
ENDCHAR
STARTCHAR 20AB
ENCODING 8363
SWIDTH 682 0
DWIDTH 28 0
BBX 22 33 3 -3
BITMAP
000070
000070
000070
000FFC
000FFC
000070
01F870
0FFE70
1F1F70
3C03F0
7001F0
7000F0
E000F0
E00070
C00070
C00070
C00070
C00070
E00070
E000F0
7000F0
7001F0
3C03F0
1F9F70
0FFE70
01F870
000000
000000
000000
000000
FFFFFC
FFFFFC
FFFFFC
ENDCHAR
STARTCHAR 20AC
ENCODING 8364
SWIDTH 560 0
DWIDTH 23 0
BBX 24 32 -1 -1
BITMAP
000FE0
007FF8
00FFFC
01F01E
03C00F
038007
078003
070002
070000
0E0000
0E0000
0E0000
FFFFF8
FFFFF8
0E0000
1E0000
1E0000
1E0000
FFFFE0
FFFFC0
0E0000
0E0000
0E0000
0F0000
070000
078000
038002
03C006
01F01E
00FFFC
007FF8
000FE0
ENDCHAR
STARTCHAR 20B1
ENCODING 8369
SWIDTH 682 0
DWIDTH 28 0
BBX 25 30 1 0
BITMAP
1FFF0000
1FFFE000
1FFFF800
1C007800
1C003C00
1C001C00
FFFFFF80
FFFFFF80
1C000E00
1C000E00
FFFFFF80
FFFFFF80
1C001C00
1C003C00
1C007800
1FFFF800
1FFFE000
1FFF0000
1C000000
1C000000
1C000000
1C000000
1C000000
1C000000
1C000000
1C000000
1C000000
1C000000
1C000000
1C000000
ENDCHAR
STARTCHAR 20B2
ENCODING 8370
SWIDTH 878 0
DWIDTH 36 0
BBX 32 38 2 -4
BITMAP
00018000
00018000
00018000
000FF000
007FFE00
01FFFF80
03F00FC0
078001F0
0F0000F0
1E000078
3C00003C
3800001C
78000000
70000000
F0000000
E0000000
E0000000
E0000000
E0000000
E0000000
E01FFFFF
E01FFFFF
E01FFFFF
F000000F
7000000E
7800000E
3800001C
3C00003C
1E000078
0F0000F0
07C001E0
03F007C0
01FFFF80
007FFE00
000FF000
00018000
00018000
00018000
ENDCHAR
STARTCHAR 20BD
ENCODING 8381
SWIDTH 658 0
DWIDTH 27 0
BBX 22 30 4 0
BITMAP
3FFE00
3FFFC0
3FFFF0
3800F8
380078
38003C
38001C
38001C
38001C
38001C
38001C
38001C
38003C
380078
3800F8
3FFFF0
FFFFC0
FFFE00
380000
380000
380000
FFF800
FFF800
380000
380000
380000
380000
380000
380000
380000
ENDCHAR
STARTCHAR 20BF
ENCODING 8383
SWIDTH 585 0
DWIDTH 24 0
BBX 19 36 3 -3
BITMAP
031800
031800
031800
FFF800
FFFC00
FFFF00
E00F80
E00380
E00380
E003C0
E003C0
E003C0
E00380
E00380
E00780
E01F00
FFFE00
FFFE00
FFFF80
E007C0
E001C0
E000E0
E000E0
E000E0
E000E0
E000E0
E000E0
E000E0
E001E0
E007C0
FFFF80
FFFF00
FFF800
031800
031800
031800
ENDCHAR
STARTCHAR 20D0
ENCODING 8400
SWIDTH 0 0
DWIDTH 0 0
BBX 17 8 -17 30
BITMAP
004000
01C000
07C000
1F8000
3E0000
FFFF80
FFFF80
FFFF80
ENDCHAR
STARTCHAR 20D1
ENCODING 8401
SWIDTH 0 0
DWIDTH 0 0
BBX 17 8 -17 30
BITMAP
010000
01C000
01E000
00F800
003E00
FFFF80
FFFF80
FFFF80
ENDCHAR
STARTCHAR 20D2
ENCODING 8402
SWIDTH 0 0
DWIDTH 0 0
BBX 3 33 -10 -6
BITMAP
E0
E0
E0
E0
E0
E0
E0
E0
E0
E0
E0
E0
E0
E0
E0
E0
E0
E0
E0
E0
E0
E0
E0
E0
E0
E0
E0
E0
E0
E0
E0
E0
E0
ENDCHAR
STARTCHAR 20D3
ENCODING 8403
SWIDTH 0 0
DWIDTH 0 0
BBX 3 21 -10 0
BITMAP
E0
E0
E0
E0
E0
E0
E0
E0
E0
E0
E0
E0
E0
E0
E0
E0
E0
E0
E0
E0
E0
ENDCHAR
STARTCHAR 20D4
ENCODING 8404
SWIDTH 0 0
DWIDTH 0 0
BBX 19 12 -18 30
BITMAP
080000
180000
1C0000
1C0000
38C000
3BFC00
7FFF00
7E0F80
7C23C0
FFE1C0
FFF0E0
FE00C0
ENDCHAR
STARTCHAR 20D5
ENCODING 8405
SWIDTH 0 0
DWIDTH 0 0
BBX 19 12 -18 30
BITMAP
000200
000600
000600
000700
00C700
07FB80
1FFF80
3C1FC0
7887C0
F1FFC0
E3FFE0
401FC0
ENDCHAR
STARTCHAR 20D6
ENCODING 8406
SWIDTH 0 0
DWIDTH 0 0
BBX 17 13 -17 24
BITMAP
004000
01C000
07C000
1F8000
3E0000
FFFF80
FFFF80
FFFF80
7C0000
1F0000
0FC000
03C000
00C000
ENDCHAR
STARTCHAR 20D7
ENCODING 8407
SWIDTH 0 0
DWIDTH 0 0
BBX 17 13 -17 24
BITMAP
010000
01C000
01E000
00F800
003E00
FFFF80
FFFF80
FFFF80
003F00
007C00
01F000
01C000
018000
ENDCHAR
STARTCHAR 20D8
ENCODING 8408
SWIDTH 0 0
DWIDTH 0 0
BBX 15 16 -16 2
BITMAP
07C0
1FF0
3FF8
787C
F01C
E01E
E00E
E00E
E00E
E00E
E01E
F01C
787C
3FF8
1FF0
07C0
ENDCHAR
STARTCHAR 20DB
ENCODING 8411
SWIDTH 0 0
DWIDTH 0 0
BBX 18 5 -18 26
BITMAP
E0E1C0
E0E1C0
E0E1C0
E0E1C0
E0E1C0
ENDCHAR
STARTCHAR 20DC
ENCODING 8412
SWIDTH 0 0
DWIDTH 0 0
BBX 25 5 -21 26
BITMAP
E1C3C380
E1C3C380
E1C3C380
E1C3C380
E1C3C380
ENDCHAR
STARTCHAR 20DD
ENCODING 8413
SWIDTH 0 0
DWIDTH 0 0
BBX 34 34 -26 -7
BITMAP
0007FC0000
003FFF0000
00FFFFC000
01FC07F000
03E000F800
0780007C00
0F00001E00
1E00000F00
3C00000F00
3800000780
7800000380
70000003C0
70000001C0
70000001C0
E0000001C0
E0000001C0
E0000001C0
E0000001C0
E0000001C0
E0000001C0
F0000001C0
70000001C0
7000000380
7800000380
3800000780
3C00000700
1E00000E00
0F00001E00
0780007C00
03E000F800
01FC07F000
00FFFFC000
003FFF0000
0007F80000
ENDCHAR
STARTCHAR 20DE
ENCODING 8414
SWIDTH 0 0
DWIDTH 0 0
BBX 33 33 -25 -6
BITMAP
FFFFFFFF80
FFFFFFFF80
FFFFFFFF80
E000000380
E000000380
E000000380
E000000380
E000000380
E000000380
E000000380
E000000380
E000000380
E000000380
E000000380
E000000380
E000000380
E000000380
E000000380
E000000380
E000000380
E000000380
E000000380
E000000380
E000000380
E000000380
E000000380
E000000380
E000000380
E000000380
E000000380
FFFFFFFF80
FFFFFFFF80
FFFFFFFF80
ENDCHAR
STARTCHAR 20DF
ENCODING 8415
SWIDTH 0 0
DWIDTH 0 0
BBX 49 49 -33 -14
BITMAP
000001C0000000
000003E0000000
000007F0000000
00000FF8000000
00001E7C000000
00003C3E000000
0000781F000000
0000F00F800000
0001E007C00000
0003C003E00000
00078001F00000
000F0000F80000
001E00007C0000
003C00003E0000
007800001F0000
00F000000F8000
01E0000007C000
03C0000003E000
0780000001F000
0F00000000F800
1E000000007C00
3C000000003E00
78000000001F00
F0000000000F80
E0000000000780
F0000000000780
F8000000000F00
7C000000001E00
3E000000003C00
1F000000007800
0F80000000F000
07C0000001E000
03E0000003C000
01F00000078000
00F800000F0000
007C00001E0000
003E00003C0000
001F0000780000
000F8000F00000
0007C001E00000
0003E003C00000
0001F007800000
0000F80F000000
00007C1E000000
00003E3C000000
00001F78000000
00000FF0000000
000007E0000000
000003C0000000
ENDCHAR
STARTCHAR 20E1
ENCODING 8417
SWIDTH 0 0
DWIDTH 0 0
BBX 24 13 -21 25
BITMAP
004200
01C380
03C3E0
0F81F8
3E007C
FFFFFF
FFFFFF
FFFFFF
3E003E
1F00F8
07C3F0
01C3C0
00C300
ENDCHAR
STARTCHAR 20E4
ENCODING 8420
SWIDTH 0 0
DWIDTH 0 0
BBX 43 38 -30 -9
BITMAP
00000E000000
00001E000000
00001F000000
00003F000000
00003B800000
000073C00000
0000F1C00000
0000E1E00000
0001E0E00000
0001C0F00000
0003C0700000
000780380000
0007003C0000
000F001C0000
000E001E0000
001E000E0000
001C000F0000
003800078000
007800038000
00700003C000
00F00001C000
00E00001E000
01E00000E000
01C00000F000
038000007800
078000003800
070000003C00
0F0000001C00
0E0000001E00
1E0000000E00
3C0000000700
380000000780
780000000380
7000000003C0
F000000001C0
FFFFFFFFFFE0
FFFFFFFFFFE0
FFFFFFFFFFE0
ENDCHAR
STARTCHAR 20E5
ENCODING 8421
SWIDTH 0 0
DWIDTH 0 0
BBX 14 33 -16 -6
BITMAP
E000
F000
7000
7000
7800
3800
3800
3C00
1C00
1C00
1E00
0E00
0E00
0700
0700
0700
0380
0380
0380
01C0
01C0
01E0
00E0
00E0
00F0
0070
0070
0078
0038
0038
003C
001C
001C
ENDCHAR
STARTCHAR 20E6
ENCODING 8422
SWIDTH 0 0
DWIDTH 0 0
BBX 11 33 -14 -6
BITMAP
E1E0
E1E0
E1E0
E1E0
E1E0
E1E0
E1E0
E1E0
E1E0
E1E0
E1E0
E1E0
E1E0
E1E0
E1E0
E1E0
E1E0
E1E0
E1E0
E1E0
E1E0
E1E0
E1E0
E1E0
E1E0
E1E0
E1E0
E1E0
E1E0
E1E0
E1E0
E1E0
E1E0
ENDCHAR
STARTCHAR 20E8
ENCODING 8424
SWIDTH 0 0
DWIDTH 0 0
BBX 18 5 -18 -7
BITMAP
E0E1C0
E0E1C0
E0E1C0
E0E1C0
E0E1C0
ENDCHAR
STARTCHAR 20E9
ENCODING 8425
SWIDTH 0 0
DWIDTH 0 0
BBX 30 5 -24 29
BITMAP
FFFFFFFC
FFFFFFFC
FFFFFFFC
E000000C
E000000C
ENDCHAR
STARTCHAR 20EA
ENCODING 8426
SWIDTH 0 0
DWIDTH 0 0
BBX 33 15 -25 3
BITMAP
0020000000
00E0000000
01E0000000
07E0000000
1F80000000
3F00000000
FFFFFFFF80
FFFFFFFF80
FFFFFFFF80
7F00000000
1F80000000
07E0000000
01E0000000
00E0000000
0020000000
ENDCHAR
ENDFONT
